%TF.GenerationSoftware,KiCad,Pcbnew,7.0.8*%
%TF.CreationDate,2023-10-16T22:15:18+02:00*%
%TF.ProjectId,sata_caddy,73617461-5f63-4616-9464-792e6b696361,rev?*%
%TF.SameCoordinates,Original*%
%TF.FileFunction,Drillmap*%
%TF.FilePolarity,Positive*%
%FSLAX45Y45*%
G04 Gerber Fmt 4.5, Leading zero omitted, Abs format (unit mm)*
G04 Created by KiCad (PCBNEW 7.0.8) date 2023-10-16 22:15:18*
%MOMM*%
%LPD*%
G01*
G04 APERTURE LIST*
%ADD10C,0.100000*%
%ADD11C,0.200000*%
%ADD12C,0.163000*%
G04 APERTURE END LIST*
D10*
X7460000Y-4910000D02*
G75*
G03*
X6660000Y-4910000I-400000J0D01*
G01*
X7460000Y-4910000D02*
X7460000Y-5410000D01*
X6660000Y-5410000D02*
G75*
G03*
X7460000Y-5410000I400000J0D01*
G01*
X6200000Y-5000000D02*
X6200000Y-6300000D01*
X6200000Y-5000000D02*
X1500000Y-5000000D01*
X9900000Y-4820000D02*
X7950000Y-4820000D01*
X6660000Y-4910000D02*
X6660000Y-5410000D01*
X7680000Y-3000000D02*
X7950000Y-3000000D01*
X1500000Y-5000000D02*
X1500000Y-3000000D01*
X9900000Y-6300000D02*
X9900000Y-4820000D01*
X6200000Y-6300000D02*
X9900000Y-6300000D01*
X1500000Y-3000000D02*
X7680000Y-3000000D01*
X7950000Y-4820000D02*
X7950000Y-3000000D01*
D11*
D12*
X1995500Y-3138500D02*
X2158500Y-3301500D01*
X2158500Y-3138500D02*
X1995500Y-3301500D01*
X5314500Y-3138500D02*
X5477500Y-3301500D01*
X5477500Y-3138500D02*
X5314500Y-3301500D01*
D11*
X1755777Y-6616484D02*
X1755777Y-6416484D01*
X1755777Y-6416484D02*
X1803396Y-6416484D01*
X1803396Y-6416484D02*
X1831967Y-6426008D01*
X1831967Y-6426008D02*
X1851015Y-6445055D01*
X1851015Y-6445055D02*
X1860539Y-6464103D01*
X1860539Y-6464103D02*
X1870062Y-6502198D01*
X1870062Y-6502198D02*
X1870062Y-6530769D01*
X1870062Y-6530769D02*
X1860539Y-6568865D01*
X1860539Y-6568865D02*
X1851015Y-6587912D01*
X1851015Y-6587912D02*
X1831967Y-6606960D01*
X1831967Y-6606960D02*
X1803396Y-6616484D01*
X1803396Y-6616484D02*
X1755777Y-6616484D01*
X1955777Y-6616484D02*
X1955777Y-6483150D01*
X1955777Y-6521246D02*
X1965301Y-6502198D01*
X1965301Y-6502198D02*
X1974824Y-6492674D01*
X1974824Y-6492674D02*
X1993872Y-6483150D01*
X1993872Y-6483150D02*
X2012920Y-6483150D01*
X2079586Y-6616484D02*
X2079586Y-6483150D01*
X2079586Y-6416484D02*
X2070062Y-6426008D01*
X2070062Y-6426008D02*
X2079586Y-6435531D01*
X2079586Y-6435531D02*
X2089110Y-6426008D01*
X2089110Y-6426008D02*
X2079586Y-6416484D01*
X2079586Y-6416484D02*
X2079586Y-6435531D01*
X2203396Y-6616484D02*
X2184348Y-6606960D01*
X2184348Y-6606960D02*
X2174824Y-6587912D01*
X2174824Y-6587912D02*
X2174824Y-6416484D01*
X2308158Y-6616484D02*
X2289110Y-6606960D01*
X2289110Y-6606960D02*
X2279586Y-6587912D01*
X2279586Y-6587912D02*
X2279586Y-6416484D01*
X2536729Y-6616484D02*
X2536729Y-6416484D01*
X2536729Y-6416484D02*
X2603396Y-6559341D01*
X2603396Y-6559341D02*
X2670063Y-6416484D01*
X2670063Y-6416484D02*
X2670063Y-6616484D01*
X2851015Y-6616484D02*
X2851015Y-6511722D01*
X2851015Y-6511722D02*
X2841491Y-6492674D01*
X2841491Y-6492674D02*
X2822443Y-6483150D01*
X2822443Y-6483150D02*
X2784348Y-6483150D01*
X2784348Y-6483150D02*
X2765301Y-6492674D01*
X2851015Y-6606960D02*
X2831967Y-6616484D01*
X2831967Y-6616484D02*
X2784348Y-6616484D01*
X2784348Y-6616484D02*
X2765301Y-6606960D01*
X2765301Y-6606960D02*
X2755777Y-6587912D01*
X2755777Y-6587912D02*
X2755777Y-6568865D01*
X2755777Y-6568865D02*
X2765301Y-6549817D01*
X2765301Y-6549817D02*
X2784348Y-6540293D01*
X2784348Y-6540293D02*
X2831967Y-6540293D01*
X2831967Y-6540293D02*
X2851015Y-6530769D01*
X2946253Y-6483150D02*
X2946253Y-6683150D01*
X2946253Y-6492674D02*
X2965301Y-6483150D01*
X2965301Y-6483150D02*
X3003396Y-6483150D01*
X3003396Y-6483150D02*
X3022443Y-6492674D01*
X3022443Y-6492674D02*
X3031967Y-6502198D01*
X3031967Y-6502198D02*
X3041491Y-6521246D01*
X3041491Y-6521246D02*
X3041491Y-6578388D01*
X3041491Y-6578388D02*
X3031967Y-6597436D01*
X3031967Y-6597436D02*
X3022443Y-6606960D01*
X3022443Y-6606960D02*
X3003396Y-6616484D01*
X3003396Y-6616484D02*
X2965301Y-6616484D01*
X2965301Y-6616484D02*
X2946253Y-6606960D01*
X3127205Y-6597436D02*
X3136729Y-6606960D01*
X3136729Y-6606960D02*
X3127205Y-6616484D01*
X3127205Y-6616484D02*
X3117682Y-6606960D01*
X3117682Y-6606960D02*
X3127205Y-6597436D01*
X3127205Y-6597436D02*
X3127205Y-6616484D01*
X3127205Y-6492674D02*
X3136729Y-6502198D01*
X3136729Y-6502198D02*
X3127205Y-6511722D01*
X3127205Y-6511722D02*
X3117682Y-6502198D01*
X3117682Y-6502198D02*
X3127205Y-6492674D01*
X3127205Y-6492674D02*
X3127205Y-6511722D01*
D12*
X1332000Y-6863500D02*
X1495000Y-7026500D01*
X1495000Y-6863500D02*
X1332000Y-7026500D01*
D11*
X1860539Y-7036484D02*
X1746253Y-7036484D01*
X1803396Y-7036484D02*
X1803396Y-6836484D01*
X1803396Y-6836484D02*
X1784348Y-6865055D01*
X1784348Y-6865055D02*
X1765301Y-6884103D01*
X1765301Y-6884103D02*
X1746253Y-6893627D01*
X1946253Y-7017436D02*
X1955777Y-7026960D01*
X1955777Y-7026960D02*
X1946253Y-7036484D01*
X1946253Y-7036484D02*
X1936729Y-7026960D01*
X1936729Y-7026960D02*
X1946253Y-7017436D01*
X1946253Y-7017436D02*
X1946253Y-7036484D01*
X2127205Y-6836484D02*
X2089110Y-6836484D01*
X2089110Y-6836484D02*
X2070062Y-6846008D01*
X2070062Y-6846008D02*
X2060539Y-6855531D01*
X2060539Y-6855531D02*
X2041491Y-6884103D01*
X2041491Y-6884103D02*
X2031967Y-6922198D01*
X2031967Y-6922198D02*
X2031967Y-6998388D01*
X2031967Y-6998388D02*
X2041491Y-7017436D01*
X2041491Y-7017436D02*
X2051015Y-7026960D01*
X2051015Y-7026960D02*
X2070062Y-7036484D01*
X2070062Y-7036484D02*
X2108158Y-7036484D01*
X2108158Y-7036484D02*
X2127205Y-7026960D01*
X2127205Y-7026960D02*
X2136729Y-7017436D01*
X2136729Y-7017436D02*
X2146253Y-6998388D01*
X2146253Y-6998388D02*
X2146253Y-6950769D01*
X2146253Y-6950769D02*
X2136729Y-6931722D01*
X2136729Y-6931722D02*
X2127205Y-6922198D01*
X2127205Y-6922198D02*
X2108158Y-6912674D01*
X2108158Y-6912674D02*
X2070062Y-6912674D01*
X2070062Y-6912674D02*
X2051015Y-6922198D01*
X2051015Y-6922198D02*
X2041491Y-6931722D01*
X2041491Y-6931722D02*
X2031967Y-6950769D01*
X2212920Y-6836484D02*
X2336729Y-6836484D01*
X2336729Y-6836484D02*
X2270063Y-6912674D01*
X2270063Y-6912674D02*
X2298634Y-6912674D01*
X2298634Y-6912674D02*
X2317682Y-6922198D01*
X2317682Y-6922198D02*
X2327205Y-6931722D01*
X2327205Y-6931722D02*
X2336729Y-6950769D01*
X2336729Y-6950769D02*
X2336729Y-6998388D01*
X2336729Y-6998388D02*
X2327205Y-7017436D01*
X2327205Y-7017436D02*
X2317682Y-7026960D01*
X2317682Y-7026960D02*
X2298634Y-7036484D01*
X2298634Y-7036484D02*
X2241491Y-7036484D01*
X2241491Y-7036484D02*
X2222444Y-7026960D01*
X2222444Y-7026960D02*
X2212920Y-7017436D01*
X2460539Y-6836484D02*
X2479586Y-6836484D01*
X2479586Y-6836484D02*
X2498634Y-6846008D01*
X2498634Y-6846008D02*
X2508158Y-6855531D01*
X2508158Y-6855531D02*
X2517682Y-6874579D01*
X2517682Y-6874579D02*
X2527205Y-6912674D01*
X2527205Y-6912674D02*
X2527205Y-6960293D01*
X2527205Y-6960293D02*
X2517682Y-6998388D01*
X2517682Y-6998388D02*
X2508158Y-7017436D01*
X2508158Y-7017436D02*
X2498634Y-7026960D01*
X2498634Y-7026960D02*
X2479586Y-7036484D01*
X2479586Y-7036484D02*
X2460539Y-7036484D01*
X2460539Y-7036484D02*
X2441491Y-7026960D01*
X2441491Y-7026960D02*
X2431967Y-7017436D01*
X2431967Y-7017436D02*
X2422444Y-6998388D01*
X2422444Y-6998388D02*
X2412920Y-6960293D01*
X2412920Y-6960293D02*
X2412920Y-6912674D01*
X2412920Y-6912674D02*
X2422444Y-6874579D01*
X2422444Y-6874579D02*
X2431967Y-6855531D01*
X2431967Y-6855531D02*
X2441491Y-6846008D01*
X2441491Y-6846008D02*
X2460539Y-6836484D01*
X2612920Y-7036484D02*
X2612920Y-6903150D01*
X2612920Y-6922198D02*
X2622444Y-6912674D01*
X2622444Y-6912674D02*
X2641491Y-6903150D01*
X2641491Y-6903150D02*
X2670063Y-6903150D01*
X2670063Y-6903150D02*
X2689110Y-6912674D01*
X2689110Y-6912674D02*
X2698634Y-6931722D01*
X2698634Y-6931722D02*
X2698634Y-7036484D01*
X2698634Y-6931722D02*
X2708158Y-6912674D01*
X2708158Y-6912674D02*
X2727205Y-6903150D01*
X2727205Y-6903150D02*
X2755777Y-6903150D01*
X2755777Y-6903150D02*
X2774825Y-6912674D01*
X2774825Y-6912674D02*
X2784348Y-6931722D01*
X2784348Y-6931722D02*
X2784348Y-7036484D01*
X2879586Y-7036484D02*
X2879586Y-6903150D01*
X2879586Y-6922198D02*
X2889110Y-6912674D01*
X2889110Y-6912674D02*
X2908158Y-6903150D01*
X2908158Y-6903150D02*
X2936729Y-6903150D01*
X2936729Y-6903150D02*
X2955777Y-6912674D01*
X2955777Y-6912674D02*
X2965301Y-6931722D01*
X2965301Y-6931722D02*
X2965301Y-7036484D01*
X2965301Y-6931722D02*
X2974824Y-6912674D01*
X2974824Y-6912674D02*
X2993872Y-6903150D01*
X2993872Y-6903150D02*
X3022443Y-6903150D01*
X3022443Y-6903150D02*
X3041491Y-6912674D01*
X3041491Y-6912674D02*
X3051015Y-6931722D01*
X3051015Y-6931722D02*
X3051015Y-7036484D01*
X3441491Y-6826960D02*
X3270063Y-7084103D01*
X3698634Y-6836484D02*
X3717682Y-6836484D01*
X3717682Y-6836484D02*
X3736729Y-6846008D01*
X3736729Y-6846008D02*
X3746253Y-6855531D01*
X3746253Y-6855531D02*
X3755777Y-6874579D01*
X3755777Y-6874579D02*
X3765301Y-6912674D01*
X3765301Y-6912674D02*
X3765301Y-6960293D01*
X3765301Y-6960293D02*
X3755777Y-6998388D01*
X3755777Y-6998388D02*
X3746253Y-7017436D01*
X3746253Y-7017436D02*
X3736729Y-7026960D01*
X3736729Y-7026960D02*
X3717682Y-7036484D01*
X3717682Y-7036484D02*
X3698634Y-7036484D01*
X3698634Y-7036484D02*
X3679586Y-7026960D01*
X3679586Y-7026960D02*
X3670063Y-7017436D01*
X3670063Y-7017436D02*
X3660539Y-6998388D01*
X3660539Y-6998388D02*
X3651015Y-6960293D01*
X3651015Y-6960293D02*
X3651015Y-6912674D01*
X3651015Y-6912674D02*
X3660539Y-6874579D01*
X3660539Y-6874579D02*
X3670063Y-6855531D01*
X3670063Y-6855531D02*
X3679586Y-6846008D01*
X3679586Y-6846008D02*
X3698634Y-6836484D01*
X3851015Y-7017436D02*
X3860539Y-7026960D01*
X3860539Y-7026960D02*
X3851015Y-7036484D01*
X3851015Y-7036484D02*
X3841491Y-7026960D01*
X3841491Y-7026960D02*
X3851015Y-7017436D01*
X3851015Y-7017436D02*
X3851015Y-7036484D01*
X3984348Y-6836484D02*
X4003396Y-6836484D01*
X4003396Y-6836484D02*
X4022444Y-6846008D01*
X4022444Y-6846008D02*
X4031967Y-6855531D01*
X4031967Y-6855531D02*
X4041491Y-6874579D01*
X4041491Y-6874579D02*
X4051015Y-6912674D01*
X4051015Y-6912674D02*
X4051015Y-6960293D01*
X4051015Y-6960293D02*
X4041491Y-6998388D01*
X4041491Y-6998388D02*
X4031967Y-7017436D01*
X4031967Y-7017436D02*
X4022444Y-7026960D01*
X4022444Y-7026960D02*
X4003396Y-7036484D01*
X4003396Y-7036484D02*
X3984348Y-7036484D01*
X3984348Y-7036484D02*
X3965301Y-7026960D01*
X3965301Y-7026960D02*
X3955777Y-7017436D01*
X3955777Y-7017436D02*
X3946253Y-6998388D01*
X3946253Y-6998388D02*
X3936729Y-6960293D01*
X3936729Y-6960293D02*
X3936729Y-6912674D01*
X3936729Y-6912674D02*
X3946253Y-6874579D01*
X3946253Y-6874579D02*
X3955777Y-6855531D01*
X3955777Y-6855531D02*
X3965301Y-6846008D01*
X3965301Y-6846008D02*
X3984348Y-6836484D01*
X4222444Y-6836484D02*
X4184348Y-6836484D01*
X4184348Y-6836484D02*
X4165301Y-6846008D01*
X4165301Y-6846008D02*
X4155777Y-6855531D01*
X4155777Y-6855531D02*
X4136729Y-6884103D01*
X4136729Y-6884103D02*
X4127206Y-6922198D01*
X4127206Y-6922198D02*
X4127206Y-6998388D01*
X4127206Y-6998388D02*
X4136729Y-7017436D01*
X4136729Y-7017436D02*
X4146253Y-7026960D01*
X4146253Y-7026960D02*
X4165301Y-7036484D01*
X4165301Y-7036484D02*
X4203396Y-7036484D01*
X4203396Y-7036484D02*
X4222444Y-7026960D01*
X4222444Y-7026960D02*
X4231968Y-7017436D01*
X4231968Y-7017436D02*
X4241491Y-6998388D01*
X4241491Y-6998388D02*
X4241491Y-6950769D01*
X4241491Y-6950769D02*
X4231968Y-6931722D01*
X4231968Y-6931722D02*
X4222444Y-6922198D01*
X4222444Y-6922198D02*
X4203396Y-6912674D01*
X4203396Y-6912674D02*
X4165301Y-6912674D01*
X4165301Y-6912674D02*
X4146253Y-6922198D01*
X4146253Y-6922198D02*
X4136729Y-6931722D01*
X4136729Y-6931722D02*
X4127206Y-6950769D01*
X4412920Y-6903150D02*
X4412920Y-7036484D01*
X4365301Y-6826960D02*
X4317682Y-6969817D01*
X4317682Y-6969817D02*
X4441491Y-6969817D01*
X4508158Y-6855531D02*
X4517682Y-6846008D01*
X4517682Y-6846008D02*
X4536729Y-6836484D01*
X4536729Y-6836484D02*
X4584349Y-6836484D01*
X4584349Y-6836484D02*
X4603396Y-6846008D01*
X4603396Y-6846008D02*
X4612920Y-6855531D01*
X4612920Y-6855531D02*
X4622444Y-6874579D01*
X4622444Y-6874579D02*
X4622444Y-6893627D01*
X4622444Y-6893627D02*
X4612920Y-6922198D01*
X4612920Y-6922198D02*
X4498634Y-7036484D01*
X4498634Y-7036484D02*
X4622444Y-7036484D01*
X4698634Y-6836484D02*
X4698634Y-6874579D01*
X4774825Y-6836484D02*
X4774825Y-6874579D01*
X5070063Y-7112674D02*
X5060539Y-7103150D01*
X5060539Y-7103150D02*
X5041491Y-7074579D01*
X5041491Y-7074579D02*
X5031968Y-7055531D01*
X5031968Y-7055531D02*
X5022444Y-7026960D01*
X5022444Y-7026960D02*
X5012920Y-6979341D01*
X5012920Y-6979341D02*
X5012920Y-6941246D01*
X5012920Y-6941246D02*
X5022444Y-6893627D01*
X5022444Y-6893627D02*
X5031968Y-6865055D01*
X5031968Y-6865055D02*
X5041491Y-6846008D01*
X5041491Y-6846008D02*
X5060539Y-6817436D01*
X5060539Y-6817436D02*
X5070063Y-6807912D01*
X5136730Y-6855531D02*
X5146253Y-6846008D01*
X5146253Y-6846008D02*
X5165301Y-6836484D01*
X5165301Y-6836484D02*
X5212920Y-6836484D01*
X5212920Y-6836484D02*
X5231968Y-6846008D01*
X5231968Y-6846008D02*
X5241491Y-6855531D01*
X5241491Y-6855531D02*
X5251015Y-6874579D01*
X5251015Y-6874579D02*
X5251015Y-6893627D01*
X5251015Y-6893627D02*
X5241491Y-6922198D01*
X5241491Y-6922198D02*
X5127206Y-7036484D01*
X5127206Y-7036484D02*
X5251015Y-7036484D01*
X5489111Y-7036484D02*
X5489111Y-6836484D01*
X5574825Y-7036484D02*
X5574825Y-6931722D01*
X5574825Y-6931722D02*
X5565301Y-6912674D01*
X5565301Y-6912674D02*
X5546253Y-6903150D01*
X5546253Y-6903150D02*
X5517682Y-6903150D01*
X5517682Y-6903150D02*
X5498634Y-6912674D01*
X5498634Y-6912674D02*
X5489111Y-6922198D01*
X5698634Y-7036484D02*
X5679587Y-7026960D01*
X5679587Y-7026960D02*
X5670063Y-7017436D01*
X5670063Y-7017436D02*
X5660539Y-6998388D01*
X5660539Y-6998388D02*
X5660539Y-6941246D01*
X5660539Y-6941246D02*
X5670063Y-6922198D01*
X5670063Y-6922198D02*
X5679587Y-6912674D01*
X5679587Y-6912674D02*
X5698634Y-6903150D01*
X5698634Y-6903150D02*
X5727206Y-6903150D01*
X5727206Y-6903150D02*
X5746253Y-6912674D01*
X5746253Y-6912674D02*
X5755777Y-6922198D01*
X5755777Y-6922198D02*
X5765301Y-6941246D01*
X5765301Y-6941246D02*
X5765301Y-6998388D01*
X5765301Y-6998388D02*
X5755777Y-7017436D01*
X5755777Y-7017436D02*
X5746253Y-7026960D01*
X5746253Y-7026960D02*
X5727206Y-7036484D01*
X5727206Y-7036484D02*
X5698634Y-7036484D01*
X5879587Y-7036484D02*
X5860539Y-7026960D01*
X5860539Y-7026960D02*
X5851015Y-7007912D01*
X5851015Y-7007912D02*
X5851015Y-6836484D01*
X6031968Y-7026960D02*
X6012920Y-7036484D01*
X6012920Y-7036484D02*
X5974825Y-7036484D01*
X5974825Y-7036484D02*
X5955777Y-7026960D01*
X5955777Y-7026960D02*
X5946253Y-7007912D01*
X5946253Y-7007912D02*
X5946253Y-6931722D01*
X5946253Y-6931722D02*
X5955777Y-6912674D01*
X5955777Y-6912674D02*
X5974825Y-6903150D01*
X5974825Y-6903150D02*
X6012920Y-6903150D01*
X6012920Y-6903150D02*
X6031968Y-6912674D01*
X6031968Y-6912674D02*
X6041491Y-6931722D01*
X6041491Y-6931722D02*
X6041491Y-6950769D01*
X6041491Y-6950769D02*
X5946253Y-6969817D01*
X6117682Y-7026960D02*
X6136730Y-7036484D01*
X6136730Y-7036484D02*
X6174825Y-7036484D01*
X6174825Y-7036484D02*
X6193872Y-7026960D01*
X6193872Y-7026960D02*
X6203396Y-7007912D01*
X6203396Y-7007912D02*
X6203396Y-6998388D01*
X6203396Y-6998388D02*
X6193872Y-6979341D01*
X6193872Y-6979341D02*
X6174825Y-6969817D01*
X6174825Y-6969817D02*
X6146253Y-6969817D01*
X6146253Y-6969817D02*
X6127206Y-6960293D01*
X6127206Y-6960293D02*
X6117682Y-6941246D01*
X6117682Y-6941246D02*
X6117682Y-6931722D01*
X6117682Y-6931722D02*
X6127206Y-6912674D01*
X6127206Y-6912674D02*
X6146253Y-6903150D01*
X6146253Y-6903150D02*
X6174825Y-6903150D01*
X6174825Y-6903150D02*
X6193872Y-6912674D01*
X6270063Y-7112674D02*
X6279587Y-7103150D01*
X6279587Y-7103150D02*
X6298634Y-7074579D01*
X6298634Y-7074579D02*
X6308158Y-7055531D01*
X6308158Y-7055531D02*
X6317682Y-7026960D01*
X6317682Y-7026960D02*
X6327206Y-6979341D01*
X6327206Y-6979341D02*
X6327206Y-6941246D01*
X6327206Y-6941246D02*
X6317682Y-6893627D01*
X6317682Y-6893627D02*
X6308158Y-6865055D01*
X6308158Y-6865055D02*
X6298634Y-6846008D01*
X6298634Y-6846008D02*
X6279587Y-6817436D01*
X6279587Y-6817436D02*
X6270063Y-6807912D01*
X6631968Y-7112674D02*
X6622444Y-7103150D01*
X6622444Y-7103150D02*
X6603396Y-7074579D01*
X6603396Y-7074579D02*
X6593872Y-7055531D01*
X6593872Y-7055531D02*
X6584349Y-7026960D01*
X6584349Y-7026960D02*
X6574825Y-6979341D01*
X6574825Y-6979341D02*
X6574825Y-6941246D01*
X6574825Y-6941246D02*
X6584349Y-6893627D01*
X6584349Y-6893627D02*
X6593872Y-6865055D01*
X6593872Y-6865055D02*
X6603396Y-6846008D01*
X6603396Y-6846008D02*
X6622444Y-6817436D01*
X6622444Y-6817436D02*
X6631968Y-6807912D01*
X6708158Y-6903150D02*
X6708158Y-7036484D01*
X6708158Y-6922198D02*
X6717682Y-6912674D01*
X6717682Y-6912674D02*
X6736730Y-6903150D01*
X6736730Y-6903150D02*
X6765301Y-6903150D01*
X6765301Y-6903150D02*
X6784349Y-6912674D01*
X6784349Y-6912674D02*
X6793872Y-6931722D01*
X6793872Y-6931722D02*
X6793872Y-7036484D01*
X6917682Y-7036484D02*
X6898634Y-7026960D01*
X6898634Y-7026960D02*
X6889111Y-7017436D01*
X6889111Y-7017436D02*
X6879587Y-6998388D01*
X6879587Y-6998388D02*
X6879587Y-6941246D01*
X6879587Y-6941246D02*
X6889111Y-6922198D01*
X6889111Y-6922198D02*
X6898634Y-6912674D01*
X6898634Y-6912674D02*
X6917682Y-6903150D01*
X6917682Y-6903150D02*
X6946253Y-6903150D01*
X6946253Y-6903150D02*
X6965301Y-6912674D01*
X6965301Y-6912674D02*
X6974825Y-6922198D01*
X6974825Y-6922198D02*
X6984349Y-6941246D01*
X6984349Y-6941246D02*
X6984349Y-6998388D01*
X6984349Y-6998388D02*
X6974825Y-7017436D01*
X6974825Y-7017436D02*
X6965301Y-7026960D01*
X6965301Y-7026960D02*
X6946253Y-7036484D01*
X6946253Y-7036484D02*
X6917682Y-7036484D01*
X7041492Y-6903150D02*
X7117682Y-6903150D01*
X7070063Y-6836484D02*
X7070063Y-7007912D01*
X7070063Y-7007912D02*
X7079587Y-7026960D01*
X7079587Y-7026960D02*
X7098634Y-7036484D01*
X7098634Y-7036484D02*
X7117682Y-7036484D01*
X7336730Y-6903150D02*
X7336730Y-7103150D01*
X7336730Y-6912674D02*
X7355777Y-6903150D01*
X7355777Y-6903150D02*
X7393873Y-6903150D01*
X7393873Y-6903150D02*
X7412920Y-6912674D01*
X7412920Y-6912674D02*
X7422444Y-6922198D01*
X7422444Y-6922198D02*
X7431968Y-6941246D01*
X7431968Y-6941246D02*
X7431968Y-6998388D01*
X7431968Y-6998388D02*
X7422444Y-7017436D01*
X7422444Y-7017436D02*
X7412920Y-7026960D01*
X7412920Y-7026960D02*
X7393873Y-7036484D01*
X7393873Y-7036484D02*
X7355777Y-7036484D01*
X7355777Y-7036484D02*
X7336730Y-7026960D01*
X7546253Y-7036484D02*
X7527206Y-7026960D01*
X7527206Y-7026960D02*
X7517682Y-7007912D01*
X7517682Y-7007912D02*
X7517682Y-6836484D01*
X7708158Y-7036484D02*
X7708158Y-6931722D01*
X7708158Y-6931722D02*
X7698634Y-6912674D01*
X7698634Y-6912674D02*
X7679587Y-6903150D01*
X7679587Y-6903150D02*
X7641492Y-6903150D01*
X7641492Y-6903150D02*
X7622444Y-6912674D01*
X7708158Y-7026960D02*
X7689111Y-7036484D01*
X7689111Y-7036484D02*
X7641492Y-7036484D01*
X7641492Y-7036484D02*
X7622444Y-7026960D01*
X7622444Y-7026960D02*
X7612920Y-7007912D01*
X7612920Y-7007912D02*
X7612920Y-6988865D01*
X7612920Y-6988865D02*
X7622444Y-6969817D01*
X7622444Y-6969817D02*
X7641492Y-6960293D01*
X7641492Y-6960293D02*
X7689111Y-6960293D01*
X7689111Y-6960293D02*
X7708158Y-6950769D01*
X7774825Y-6903150D02*
X7851015Y-6903150D01*
X7803396Y-6836484D02*
X7803396Y-7007912D01*
X7803396Y-7007912D02*
X7812920Y-7026960D01*
X7812920Y-7026960D02*
X7831968Y-7036484D01*
X7831968Y-7036484D02*
X7851015Y-7036484D01*
X7993873Y-7026960D02*
X7974825Y-7036484D01*
X7974825Y-7036484D02*
X7936730Y-7036484D01*
X7936730Y-7036484D02*
X7917682Y-7026960D01*
X7917682Y-7026960D02*
X7908158Y-7007912D01*
X7908158Y-7007912D02*
X7908158Y-6931722D01*
X7908158Y-6931722D02*
X7917682Y-6912674D01*
X7917682Y-6912674D02*
X7936730Y-6903150D01*
X7936730Y-6903150D02*
X7974825Y-6903150D01*
X7974825Y-6903150D02*
X7993873Y-6912674D01*
X7993873Y-6912674D02*
X8003396Y-6931722D01*
X8003396Y-6931722D02*
X8003396Y-6950769D01*
X8003396Y-6950769D02*
X7908158Y-6969817D01*
X8174825Y-7036484D02*
X8174825Y-6836484D01*
X8174825Y-7026960D02*
X8155777Y-7036484D01*
X8155777Y-7036484D02*
X8117682Y-7036484D01*
X8117682Y-7036484D02*
X8098634Y-7026960D01*
X8098634Y-7026960D02*
X8089111Y-7017436D01*
X8089111Y-7017436D02*
X8079587Y-6998388D01*
X8079587Y-6998388D02*
X8079587Y-6941246D01*
X8079587Y-6941246D02*
X8089111Y-6922198D01*
X8089111Y-6922198D02*
X8098634Y-6912674D01*
X8098634Y-6912674D02*
X8117682Y-6903150D01*
X8117682Y-6903150D02*
X8155777Y-6903150D01*
X8155777Y-6903150D02*
X8174825Y-6912674D01*
X8251015Y-7112674D02*
X8260539Y-7103150D01*
X8260539Y-7103150D02*
X8279587Y-7074579D01*
X8279587Y-7074579D02*
X8289111Y-7055531D01*
X8289111Y-7055531D02*
X8298634Y-7026960D01*
X8298634Y-7026960D02*
X8308158Y-6979341D01*
X8308158Y-6979341D02*
X8308158Y-6941246D01*
X8308158Y-6941246D02*
X8298634Y-6893627D01*
X8298634Y-6893627D02*
X8289111Y-6865055D01*
X8289111Y-6865055D02*
X8279587Y-6846008D01*
X8279587Y-6846008D02*
X8260539Y-6817436D01*
X8260539Y-6817436D02*
X8251015Y-6807912D01*
M02*
