%TF.GenerationSoftware,KiCad,Pcbnew,7.0.8*%
%TF.CreationDate,2023-10-16T22:13:19+02:00*%
%TF.ProjectId,sata_caddy,73617461-5f63-4616-9464-792e6b696361,rev?*%
%TF.SameCoordinates,Original*%
%TF.FileFunction,Copper,L1,Top*%
%TF.FilePolarity,Positive*%
%FSLAX46Y46*%
G04 Gerber Fmt 4.6, Leading zero omitted, Abs format (unit mm)*
G04 Created by KiCad (PCBNEW 7.0.8) date 2023-10-16 22:13:19*
%MOMM*%
%LPD*%
G01*
G04 APERTURE LIST*
%TA.AperFunction,ComponentPad*%
%ADD10C,1.400000*%
%TD*%
%TA.AperFunction,ComponentPad*%
%ADD11O,1.400000X1.400000*%
%TD*%
%TA.AperFunction,ComponentPad*%
%ADD12R,1.700000X1.700000*%
%TD*%
%TA.AperFunction,ComponentPad*%
%ADD13O,1.700000X1.700000*%
%TD*%
%TA.AperFunction,ComponentPad*%
%ADD14R,1.050000X1.500000*%
%TD*%
%TA.AperFunction,ComponentPad*%
%ADD15O,1.050000X1.500000*%
%TD*%
%TA.AperFunction,ComponentPad*%
%ADD16R,1.600000X1.600000*%
%TD*%
%TA.AperFunction,ComponentPad*%
%ADD17O,1.600000X1.600000*%
%TD*%
%TA.AperFunction,ComponentPad*%
%ADD18C,1.000000*%
%TD*%
%TA.AperFunction,ComponentPad*%
%ADD19O,1.545000X3.090000*%
%TD*%
%TA.AperFunction,ViaPad*%
%ADD20C,0.800000*%
%TD*%
%TA.AperFunction,Conductor*%
%ADD21C,0.250000*%
%TD*%
%TA.AperFunction,Conductor*%
%ADD22C,1.000000*%
%TD*%
G04 APERTURE END LIST*
D10*
%TO.P,R4,1*%
%TO.N,/SENS_CADDY_CLOSED*%
X68400000Y-43200000D03*
D11*
%TO.P,R4,2*%
%TO.N,Net-(U1--)*%
X76020000Y-43200000D03*
%TD*%
D12*
%TO.P,J1,1,Pin_1*%
%TO.N,+3.3V*%
X82650000Y-51175000D03*
D13*
%TO.P,J1,2,Pin_2*%
%TO.N,/RED_ANODE*%
X85190000Y-51175000D03*
%TO.P,J1,3,Pin_3*%
%TO.N,/GREEN_ANODE*%
X87730000Y-51175000D03*
%TO.P,J1,4,Pin_4*%
%TO.N,/BLUE_ANODE*%
X90270000Y-51175000D03*
%TO.P,J1,5,Pin_5*%
%TO.N,/CONN_SENS*%
X92810000Y-51175000D03*
%TO.P,J1,6,Pin_6*%
%TO.N,GND*%
X95350000Y-51175000D03*
%TD*%
D12*
%TO.P,J4,1,Pin_1*%
%TO.N,+3.3V*%
X84620000Y-59900000D03*
D13*
%TO.P,J4,2,Pin_2*%
%TO.N,/SENS_CADDY_CLOSED*%
X87160000Y-59900000D03*
%TO.P,J4,3,Pin_3*%
%TO.N,/RED_ANODE*%
X89700000Y-59900000D03*
%TO.P,J4,4,Pin_4*%
%TO.N,/GREEN_ANODE*%
X92240000Y-59900000D03*
%TO.P,J4,5,Pin_5*%
%TO.N,GND*%
X94780000Y-59900000D03*
%TD*%
D10*
%TO.P,R1,1*%
%TO.N,+3.3V*%
X62200000Y-39420000D03*
D11*
%TO.P,R1,2*%
%TO.N,/SATA_PIN_11*%
X62200000Y-31800000D03*
%TD*%
D14*
%TO.P,Q1,1,C*%
%TO.N,/BLUE_ANODE*%
X62560000Y-43900000D03*
D15*
%TO.P,Q1,2,B*%
%TO.N,/SATA_PIN_11*%
X63830000Y-43900000D03*
%TO.P,Q1,3,E*%
%TO.N,+3.3V*%
X65100000Y-43900000D03*
%TD*%
D10*
%TO.P,R2,1*%
%TO.N,/CONN_SENS*%
X88680000Y-55800000D03*
D11*
%TO.P,R2,2*%
%TO.N,GND*%
X96300000Y-55800000D03*
%TD*%
D10*
%TO.P,R3,1*%
%TO.N,Net-(U1--)*%
X77890000Y-55800000D03*
D11*
%TO.P,R3,2*%
%TO.N,GND*%
X85510000Y-55800000D03*
%TD*%
D16*
%TO.P,U1,1,NULL*%
%TO.N,unconnected-(U1-NULL-Pad1)*%
X76000000Y-40100000D03*
D17*
%TO.P,U1,2,-*%
%TO.N,Net-(U1--)*%
X76000000Y-37560000D03*
%TO.P,U1,3,+*%
%TO.N,/CONN_SENS*%
X76000000Y-35020000D03*
%TO.P,U1,4,V-*%
%TO.N,GND*%
X76000000Y-32480000D03*
%TO.P,U1,5,NULL*%
%TO.N,unconnected-(U1-NULL-Pad5)*%
X68380000Y-32480000D03*
%TO.P,U1,6*%
%TO.N,/SENS_CADDY_CLOSED*%
X68380000Y-35020000D03*
%TO.P,U1,7,V+*%
%TO.N,+3.3V*%
X68380000Y-37560000D03*
%TO.P,U1,8,STRB*%
%TO.N,unconnected-(U1-STRB-Pad8)*%
X68380000Y-40100000D03*
%TD*%
D18*
%TO.P,J3,P1,P1*%
%TO.N,+3.3V*%
X39270000Y-46500000D03*
%TO.P,J3,P2,P2*%
X38000000Y-46500000D03*
%TO.P,J3,P3,P3*%
X36730000Y-46500000D03*
%TO.P,J3,P4,P4*%
%TO.N,GND*%
X35460000Y-46500000D03*
%TO.P,J3,P5,P5*%
X34190000Y-46500000D03*
%TO.P,J3,P6,P6*%
X32920000Y-46500000D03*
%TO.P,J3,P7,P7*%
%TO.N,Net-(J2-PadP7)*%
X31650000Y-46500000D03*
%TO.P,J3,P8,P8*%
%TO.N,Net-(J2-PadP8)*%
X30380000Y-46500000D03*
%TO.P,J3,P9,P9*%
%TO.N,Net-(J2-PadP9)*%
X29110000Y-46500000D03*
%TO.P,J3,P10,P10*%
%TO.N,GND*%
X27840000Y-46500000D03*
%TO.P,J3,P11,P11*%
X26570000Y-46500000D03*
%TO.P,J3,P12,P12*%
X25300000Y-46500000D03*
%TO.P,J3,P13,P13*%
%TO.N,Net-(J2-PadP13)*%
X24030000Y-46500000D03*
%TO.P,J3,P14,P14*%
%TO.N,Net-(J2-PadP14)*%
X22760000Y-46500000D03*
%TO.P,J3,P15,P15*%
%TO.N,Net-(J2-PadP15)*%
X21490000Y-46500000D03*
%TO.P,J3,S1,S1*%
%TO.N,/S1*%
X53240000Y-46500000D03*
%TO.P,J3,S2,S2*%
%TO.N,/S2*%
X51970000Y-46500000D03*
%TO.P,J3,S3,S3*%
%TO.N,/S3*%
X50700000Y-46500000D03*
%TO.P,J3,S4,S4*%
%TO.N,/S4*%
X49430000Y-46500000D03*
%TO.P,J3,S5,S5*%
%TO.N,/S5*%
X48160000Y-46500000D03*
%TO.P,J3,S6,S6*%
%TO.N,/S6*%
X46890000Y-46500000D03*
%TO.P,J3,S7,S7*%
%TO.N,/S7*%
X45620000Y-46500000D03*
D19*
%TO.P,J3,SH,SHIELD*%
%TO.N,GND*%
X17515000Y-46500000D03*
X43045000Y-46500000D03*
X55615000Y-46500000D03*
%TD*%
%TO.P,J2,SH,SHIELD*%
%TO.N,GND*%
X18655000Y-32975000D03*
X56075000Y-32975000D03*
%TD*%
D20*
%TO.N,GND*%
X34000000Y-31900000D03*
X17900000Y-42700000D03*
X55300000Y-38400000D03*
X19600000Y-35900000D03*
X32300000Y-32900000D03*
X26600000Y-44200000D03*
X19600000Y-41500000D03*
X43700000Y-37700000D03*
X17800000Y-40300000D03*
X51900000Y-32800000D03*
X55200000Y-40700000D03*
X22100000Y-31200000D03*
X43700000Y-43000000D03*
X38300000Y-32900000D03*
X57100000Y-37000000D03*
X26600000Y-40900000D03*
X26600000Y-37800000D03*
X57000000Y-41900000D03*
X19600000Y-38900000D03*
X17900000Y-37400000D03*
X43700000Y-34900000D03*
X41800000Y-39100000D03*
X29700000Y-32800000D03*
X46600000Y-31800000D03*
X19600000Y-43900000D03*
X41800000Y-41700000D03*
X45100000Y-32800000D03*
X43800000Y-31800000D03*
X55300000Y-43000000D03*
X27300000Y-31200000D03*
X36500000Y-32000000D03*
X40300000Y-31900000D03*
X31000000Y-31900000D03*
X57100000Y-39300000D03*
X43800000Y-40300000D03*
X26200000Y-32400000D03*
X24700000Y-31200000D03*
X41900000Y-32900000D03*
X50300000Y-31900000D03*
X23300000Y-32300000D03*
X55200000Y-35900000D03*
X41800000Y-36400000D03*
X48000000Y-32800000D03*
%TD*%
D21*
%TO.N,+3.3V*%
X82650000Y-57930000D02*
X84620000Y-59900000D01*
D22*
X36730000Y-46500000D02*
X39270000Y-46500000D01*
D21*
X82650000Y-51175000D02*
X82650000Y-57930000D01*
X63680000Y-39420000D02*
X65100000Y-40840000D01*
X65100000Y-43900000D02*
X65100000Y-40840000D01*
X64400000Y-45346325D02*
X64400000Y-57900000D01*
X64400000Y-57900000D02*
X67000000Y-60500000D01*
X59000000Y-46500000D02*
X56900000Y-48600000D01*
X62200000Y-39420000D02*
X63680000Y-39420000D01*
X65100000Y-43900000D02*
X65100000Y-44646325D01*
X84020000Y-60500000D02*
X84620000Y-59900000D01*
X67000000Y-60500000D02*
X84020000Y-60500000D01*
X41370000Y-48600000D02*
X39270000Y-46500000D01*
X65100000Y-44646325D02*
X64400000Y-45346325D01*
X67770000Y-37560000D02*
X68380000Y-37560000D01*
X56900000Y-48600000D02*
X41370000Y-48600000D01*
X59000000Y-41000000D02*
X59000000Y-46500000D01*
X62200000Y-39420000D02*
X60580000Y-39420000D01*
X60580000Y-39420000D02*
X59000000Y-41000000D01*
X65100000Y-40840000D02*
X68380000Y-37560000D01*
%TO.N,/BLUE_ANODE*%
X63900000Y-47600000D02*
X62560000Y-46260000D01*
X97500000Y-60800000D02*
X96400000Y-61900000D01*
X97500000Y-50000000D02*
X97500000Y-60800000D01*
X96400000Y-61900000D02*
X67763604Y-61900000D01*
X96900000Y-49400000D02*
X97500000Y-50000000D01*
X62560000Y-46260000D02*
X62560000Y-43900000D01*
X67763604Y-61900000D02*
X63900000Y-58036396D01*
X90270000Y-51175000D02*
X92045000Y-49400000D01*
X92045000Y-49400000D02*
X96900000Y-49400000D01*
X63900000Y-58036396D02*
X63900000Y-47600000D01*
%TO.N,/CONN_SENS*%
X92810000Y-51175000D02*
X88680000Y-55305000D01*
X88680000Y-55305000D02*
X88680000Y-55800000D01*
%TO.N,/SATA_PIN_11*%
X63830000Y-43153675D02*
X63830000Y-43900000D01*
%TO.N,Net-(U1--)*%
X74000000Y-41180000D02*
X76020000Y-43200000D01*
X76000000Y-37560000D02*
X74840000Y-37560000D01*
X76020000Y-43200000D02*
X77890000Y-45070000D01*
X74840000Y-37560000D02*
X74000000Y-38400000D01*
X77890000Y-45070000D02*
X77890000Y-55800000D01*
X74000000Y-38400000D02*
X74000000Y-41180000D01*
%TO.N,/SENS_CADDY_CLOSED*%
X70600000Y-41000000D02*
X68400000Y-43200000D01*
X70600000Y-36300000D02*
X70600000Y-41000000D01*
X69320000Y-35020000D02*
X70600000Y-36300000D01*
X68380000Y-35020000D02*
X69320000Y-35020000D01*
%TD*%
%TA.AperFunction,Conductor*%
%TO.N,GND*%
G36*
X96799312Y-51529374D02*
G01*
X96853190Y-51573859D01*
X96874465Y-51640411D01*
X96874500Y-51643363D01*
X96874500Y-54554643D01*
X96854815Y-54621682D01*
X96802011Y-54667437D01*
X96732853Y-54677381D01*
X96705707Y-54670270D01*
X96629801Y-54640864D01*
X96629802Y-54640864D01*
X96550000Y-54625946D01*
X96550000Y-55551061D01*
X96468885Y-55487928D01*
X96358405Y-55450000D01*
X96270995Y-55450000D01*
X96184784Y-55464386D01*
X96082053Y-55519981D01*
X96002940Y-55605921D01*
X95956018Y-55712892D01*
X95946372Y-55829302D01*
X95975047Y-55942538D01*
X96038936Y-56040327D01*
X96131115Y-56112072D01*
X96241595Y-56150000D01*
X96329005Y-56150000D01*
X96415216Y-56135614D01*
X96517947Y-56080019D01*
X96550000Y-56045200D01*
X96550000Y-56974052D01*
X96629807Y-56959134D01*
X96705705Y-56929731D01*
X96775329Y-56923868D01*
X96837069Y-56956577D01*
X96871324Y-57017474D01*
X96874500Y-57045357D01*
X96874500Y-60489547D01*
X96854815Y-60556586D01*
X96838181Y-60577228D01*
X96177228Y-61238181D01*
X96115905Y-61271666D01*
X96089547Y-61274500D01*
X95563942Y-61274500D01*
X95496903Y-61254815D01*
X95451148Y-61202011D01*
X95441204Y-61132853D01*
X95470229Y-61069297D01*
X95492818Y-61048926D01*
X95651078Y-60938109D01*
X95818105Y-60771082D01*
X95953600Y-60577578D01*
X96053429Y-60363492D01*
X96053432Y-60363486D01*
X96110636Y-60150000D01*
X95213686Y-60150000D01*
X95239493Y-60109844D01*
X95280000Y-59971889D01*
X95280000Y-59828111D01*
X95239493Y-59690156D01*
X95213686Y-59650000D01*
X96110636Y-59650000D01*
X96110635Y-59649999D01*
X96053432Y-59436513D01*
X96053429Y-59436507D01*
X95953600Y-59222422D01*
X95953599Y-59222420D01*
X95818113Y-59028926D01*
X95818108Y-59028920D01*
X95651082Y-58861894D01*
X95457578Y-58726399D01*
X95243492Y-58626570D01*
X95243486Y-58626567D01*
X95030000Y-58569364D01*
X95030000Y-59464498D01*
X94922315Y-59415320D01*
X94815763Y-59400000D01*
X94744237Y-59400000D01*
X94637685Y-59415320D01*
X94530000Y-59464498D01*
X94530000Y-58569364D01*
X94529999Y-58569364D01*
X94316513Y-58626567D01*
X94316507Y-58626570D01*
X94102422Y-58726399D01*
X94102420Y-58726400D01*
X93908926Y-58861886D01*
X93908920Y-58861891D01*
X93741891Y-59028920D01*
X93741890Y-59028922D01*
X93611880Y-59214595D01*
X93557303Y-59258219D01*
X93487804Y-59265412D01*
X93425450Y-59233890D01*
X93408730Y-59214594D01*
X93278494Y-59028597D01*
X93111402Y-58861506D01*
X93111395Y-58861501D01*
X92917834Y-58725967D01*
X92917830Y-58725965D01*
X92917828Y-58725964D01*
X92703663Y-58626097D01*
X92703659Y-58626096D01*
X92703655Y-58626094D01*
X92475413Y-58564938D01*
X92475403Y-58564936D01*
X92240001Y-58544341D01*
X92239999Y-58544341D01*
X92004596Y-58564936D01*
X92004586Y-58564938D01*
X91776344Y-58626094D01*
X91776335Y-58626098D01*
X91562171Y-58725964D01*
X91562169Y-58725965D01*
X91368597Y-58861505D01*
X91201505Y-59028597D01*
X91071575Y-59214158D01*
X91016998Y-59257783D01*
X90947500Y-59264977D01*
X90885145Y-59233454D01*
X90868425Y-59214158D01*
X90738494Y-59028597D01*
X90571402Y-58861506D01*
X90571395Y-58861501D01*
X90377834Y-58725967D01*
X90377830Y-58725965D01*
X90377828Y-58725964D01*
X90163663Y-58626097D01*
X90163659Y-58626096D01*
X90163655Y-58626094D01*
X89935413Y-58564938D01*
X89935403Y-58564936D01*
X89700001Y-58544341D01*
X89699999Y-58544341D01*
X89464596Y-58564936D01*
X89464586Y-58564938D01*
X89236344Y-58626094D01*
X89236335Y-58626098D01*
X89022171Y-58725964D01*
X89022169Y-58725965D01*
X88828597Y-58861505D01*
X88661505Y-59028597D01*
X88531575Y-59214158D01*
X88476998Y-59257783D01*
X88407500Y-59264977D01*
X88345145Y-59233454D01*
X88328425Y-59214158D01*
X88198494Y-59028597D01*
X88031402Y-58861506D01*
X88031395Y-58861501D01*
X87837834Y-58725967D01*
X87837830Y-58725965D01*
X87837828Y-58725964D01*
X87623663Y-58626097D01*
X87623659Y-58626096D01*
X87623655Y-58626094D01*
X87395413Y-58564938D01*
X87395403Y-58564936D01*
X87160001Y-58544341D01*
X87159999Y-58544341D01*
X86924596Y-58564936D01*
X86924586Y-58564938D01*
X86696344Y-58626094D01*
X86696335Y-58626098D01*
X86482171Y-58725964D01*
X86482169Y-58725965D01*
X86288600Y-58861503D01*
X86166673Y-58983430D01*
X86105350Y-59016914D01*
X86035658Y-59011930D01*
X85979725Y-58970058D01*
X85962810Y-58939081D01*
X85913797Y-58807671D01*
X85913793Y-58807664D01*
X85827547Y-58692455D01*
X85827544Y-58692452D01*
X85712335Y-58606206D01*
X85712328Y-58606202D01*
X85577482Y-58555908D01*
X85577483Y-58555908D01*
X85517883Y-58549501D01*
X85517881Y-58549500D01*
X85517873Y-58549500D01*
X85517865Y-58549500D01*
X84205453Y-58549500D01*
X84138414Y-58529815D01*
X84117772Y-58513181D01*
X83311819Y-57707228D01*
X83278334Y-57645905D01*
X83275500Y-57619547D01*
X83275500Y-56050000D01*
X84333505Y-56050000D01*
X84386239Y-56235349D01*
X84485368Y-56434425D01*
X84619391Y-56611900D01*
X84783738Y-56761721D01*
X84972820Y-56878797D01*
X84972822Y-56878798D01*
X85180195Y-56959135D01*
X85260000Y-56974052D01*
X85260000Y-56050000D01*
X84333505Y-56050000D01*
X83275500Y-56050000D01*
X83275500Y-55829302D01*
X85156372Y-55829302D01*
X85185047Y-55942538D01*
X85248936Y-56040327D01*
X85341115Y-56112072D01*
X85451595Y-56150000D01*
X85539005Y-56150000D01*
X85625216Y-56135614D01*
X85727947Y-56080019D01*
X85755581Y-56050000D01*
X85760000Y-56050000D01*
X85760000Y-56974052D01*
X85839804Y-56959135D01*
X86047177Y-56878798D01*
X86047179Y-56878797D01*
X86236261Y-56761721D01*
X86400608Y-56611900D01*
X86534631Y-56434425D01*
X86633760Y-56235349D01*
X86686495Y-56050000D01*
X85760000Y-56050000D01*
X85755581Y-56050000D01*
X85807060Y-55994079D01*
X85853982Y-55887108D01*
X85863628Y-55770698D01*
X85834953Y-55657462D01*
X85771064Y-55559673D01*
X85678885Y-55487928D01*
X85568405Y-55450000D01*
X85480995Y-55450000D01*
X85394784Y-55464386D01*
X85292053Y-55519981D01*
X85212940Y-55605921D01*
X85166018Y-55712892D01*
X85156372Y-55829302D01*
X83275500Y-55829302D01*
X83275500Y-55550000D01*
X84333505Y-55550000D01*
X85260000Y-55550000D01*
X85260000Y-54625946D01*
X85760000Y-54625946D01*
X85760000Y-55550000D01*
X86686495Y-55550000D01*
X86633760Y-55364650D01*
X86534631Y-55165574D01*
X86400608Y-54988099D01*
X86236261Y-54838278D01*
X86047179Y-54721202D01*
X86047177Y-54721201D01*
X85839799Y-54640864D01*
X85760000Y-54625946D01*
X85260000Y-54625946D01*
X85180200Y-54640864D01*
X84972822Y-54721201D01*
X84972820Y-54721202D01*
X84783738Y-54838278D01*
X84619391Y-54988099D01*
X84485368Y-55165574D01*
X84386239Y-55364650D01*
X84333505Y-55550000D01*
X83275500Y-55550000D01*
X83275500Y-52649499D01*
X83295185Y-52582460D01*
X83347989Y-52536705D01*
X83399500Y-52525499D01*
X83547871Y-52525499D01*
X83547872Y-52525499D01*
X83607483Y-52519091D01*
X83742331Y-52468796D01*
X83857546Y-52382546D01*
X83943796Y-52267331D01*
X83992810Y-52135916D01*
X84034681Y-52079984D01*
X84100145Y-52055566D01*
X84168418Y-52070417D01*
X84196673Y-52091569D01*
X84318599Y-52213495D01*
X84415384Y-52281265D01*
X84512165Y-52349032D01*
X84512167Y-52349033D01*
X84512170Y-52349035D01*
X84726337Y-52448903D01*
X84954592Y-52510063D01*
X85131034Y-52525500D01*
X85189999Y-52530659D01*
X85190000Y-52530659D01*
X85190001Y-52530659D01*
X85248966Y-52525500D01*
X85425408Y-52510063D01*
X85653663Y-52448903D01*
X85867830Y-52349035D01*
X86061401Y-52213495D01*
X86228495Y-52046401D01*
X86358425Y-51860842D01*
X86413002Y-51817217D01*
X86482500Y-51810023D01*
X86544855Y-51841546D01*
X86561575Y-51860842D01*
X86691281Y-52046082D01*
X86691505Y-52046401D01*
X86858599Y-52213495D01*
X86955384Y-52281265D01*
X87052165Y-52349032D01*
X87052167Y-52349033D01*
X87052170Y-52349035D01*
X87266337Y-52448903D01*
X87494592Y-52510063D01*
X87671034Y-52525500D01*
X87729999Y-52530659D01*
X87730000Y-52530659D01*
X87730001Y-52530659D01*
X87788966Y-52525500D01*
X87965408Y-52510063D01*
X88193663Y-52448903D01*
X88407830Y-52349035D01*
X88601401Y-52213495D01*
X88768495Y-52046401D01*
X88898425Y-51860842D01*
X88953002Y-51817217D01*
X89022500Y-51810023D01*
X89084855Y-51841546D01*
X89101575Y-51860842D01*
X89231281Y-52046082D01*
X89231505Y-52046401D01*
X89398599Y-52213495D01*
X89495384Y-52281265D01*
X89592165Y-52349032D01*
X89592167Y-52349033D01*
X89592170Y-52349035D01*
X89806337Y-52448903D01*
X90034592Y-52510063D01*
X90211034Y-52525500D01*
X90269999Y-52530659D01*
X90270387Y-52530659D01*
X90270551Y-52530707D01*
X90275394Y-52531131D01*
X90275308Y-52532104D01*
X90337426Y-52550344D01*
X90383181Y-52603148D01*
X90393125Y-52672306D01*
X90364100Y-52735862D01*
X90358068Y-52742340D01*
X88512461Y-54587946D01*
X88451138Y-54621431D01*
X88447567Y-54622153D01*
X88350068Y-54640380D01*
X88350064Y-54640381D01*
X88350062Y-54640381D01*
X88350060Y-54640382D01*
X88227911Y-54687703D01*
X88142601Y-54720752D01*
X88142595Y-54720754D01*
X87953439Y-54837874D01*
X87953437Y-54837876D01*
X87789020Y-54987761D01*
X87654943Y-55165308D01*
X87654938Y-55165316D01*
X87555775Y-55364461D01*
X87555769Y-55364476D01*
X87494885Y-55578462D01*
X87494884Y-55578464D01*
X87474357Y-55799999D01*
X87474357Y-55800000D01*
X87494884Y-56021535D01*
X87494885Y-56021537D01*
X87555769Y-56235523D01*
X87555775Y-56235538D01*
X87654938Y-56434683D01*
X87654943Y-56434691D01*
X87789020Y-56612238D01*
X87953437Y-56762123D01*
X87953439Y-56762125D01*
X88142595Y-56879245D01*
X88142596Y-56879245D01*
X88142599Y-56879247D01*
X88350060Y-56959618D01*
X88568757Y-57000500D01*
X88568759Y-57000500D01*
X88791241Y-57000500D01*
X88791243Y-57000500D01*
X89009940Y-56959618D01*
X89217401Y-56879247D01*
X89406562Y-56762124D01*
X89570981Y-56612236D01*
X89705058Y-56434689D01*
X89804229Y-56235528D01*
X89857016Y-56050000D01*
X95123505Y-56050000D01*
X95176239Y-56235349D01*
X95275368Y-56434425D01*
X95409391Y-56611900D01*
X95573738Y-56761721D01*
X95762820Y-56878797D01*
X95762822Y-56878798D01*
X95970195Y-56959135D01*
X96050000Y-56974052D01*
X96050000Y-56050000D01*
X95123505Y-56050000D01*
X89857016Y-56050000D01*
X89865115Y-56021536D01*
X89885643Y-55800000D01*
X89865115Y-55578464D01*
X89857016Y-55550000D01*
X95123505Y-55550000D01*
X96050000Y-55550000D01*
X96050000Y-54625946D01*
X95970200Y-54640864D01*
X95762822Y-54721201D01*
X95762820Y-54721202D01*
X95573738Y-54838278D01*
X95409391Y-54988099D01*
X95275368Y-55165574D01*
X95176239Y-55364650D01*
X95123505Y-55550000D01*
X89857016Y-55550000D01*
X89804229Y-55364472D01*
X89744567Y-55244655D01*
X89732306Y-55175870D01*
X89759179Y-55111375D01*
X89767876Y-55101712D01*
X92354354Y-52515235D01*
X92415675Y-52481752D01*
X92474123Y-52483142D01*
X92574592Y-52510063D01*
X92751034Y-52525500D01*
X92809999Y-52530659D01*
X92810000Y-52530659D01*
X92810001Y-52530659D01*
X92868966Y-52525500D01*
X93045408Y-52510063D01*
X93273663Y-52448903D01*
X93487830Y-52349035D01*
X93681401Y-52213495D01*
X93848495Y-52046401D01*
X93978730Y-51860405D01*
X94033307Y-51816781D01*
X94102805Y-51809587D01*
X94165160Y-51841110D01*
X94181879Y-51860405D01*
X94311890Y-52046078D01*
X94478917Y-52213105D01*
X94672421Y-52348600D01*
X94886507Y-52448429D01*
X94886516Y-52448433D01*
X95100000Y-52505634D01*
X95100000Y-51610501D01*
X95207685Y-51659680D01*
X95314237Y-51675000D01*
X95385763Y-51675000D01*
X95492315Y-51659680D01*
X95600000Y-51610501D01*
X95600000Y-52505633D01*
X95813483Y-52448433D01*
X95813492Y-52448429D01*
X96027578Y-52348600D01*
X96221082Y-52213105D01*
X96388105Y-52046082D01*
X96523600Y-51852578D01*
X96623429Y-51638492D01*
X96623433Y-51638483D01*
X96630725Y-51611270D01*
X96667090Y-51551610D01*
X96729936Y-51521080D01*
X96799312Y-51529374D01*
G37*
%TD.AperFunction*%
%TA.AperFunction,Conductor*%
G36*
X79442539Y-30020185D02*
G01*
X79488294Y-30072989D01*
X79499500Y-30124500D01*
X79499500Y-48175467D01*
X79499416Y-48175889D01*
X79499459Y-48200001D01*
X79499500Y-48200099D01*
X79499616Y-48200382D01*
X79499618Y-48200384D01*
X79499808Y-48200462D01*
X79500000Y-48200541D01*
X79500002Y-48200539D01*
X79524616Y-48200524D01*
X79524616Y-48200528D01*
X79524760Y-48200500D01*
X98875500Y-48200500D01*
X98942539Y-48220185D01*
X98988294Y-48272989D01*
X98999500Y-48324500D01*
X98999500Y-62875500D01*
X98979815Y-62942539D01*
X98927011Y-62988294D01*
X98875500Y-62999500D01*
X62124500Y-62999500D01*
X62057461Y-62979815D01*
X62011706Y-62927011D01*
X62000500Y-62875500D01*
X62000500Y-50024759D01*
X62000528Y-50024616D01*
X62000524Y-50024616D01*
X62000539Y-50000002D01*
X62000541Y-50000000D01*
X62000462Y-49999808D01*
X62000384Y-49999618D01*
X62000382Y-49999616D01*
X62000099Y-49999500D01*
X62000000Y-49999459D01*
X61975446Y-49999459D01*
X61975240Y-49999500D01*
X15124500Y-49999500D01*
X15057461Y-49979815D01*
X15011706Y-49927011D01*
X15000500Y-49875500D01*
X15000500Y-47329640D01*
X16242500Y-47329640D01*
X16257888Y-47500633D01*
X16318821Y-47721420D01*
X16318826Y-47721431D01*
X16418207Y-47927799D01*
X16418209Y-47927803D01*
X16552839Y-48113105D01*
X16552846Y-48113113D01*
X16718401Y-48271400D01*
X16909561Y-48397585D01*
X17120190Y-48487611D01*
X17120193Y-48487612D01*
X17264999Y-48520663D01*
X17265000Y-48520663D01*
X17265000Y-47508909D01*
X17275839Y-47516560D01*
X17409235Y-47563969D01*
X17550475Y-47573630D01*
X17689084Y-47544827D01*
X17765000Y-47505490D01*
X17765000Y-48522755D01*
X17799296Y-48518111D01*
X17799300Y-48518110D01*
X18017147Y-48447327D01*
X18218847Y-48338788D01*
X18218850Y-48338786D01*
X18397928Y-48195976D01*
X18548634Y-48023480D01*
X18548635Y-48023478D01*
X18666118Y-47826847D01*
X18746600Y-47612399D01*
X18787500Y-47387029D01*
X18787500Y-46750000D01*
X18030000Y-46750000D01*
X18030000Y-46500000D01*
X20484659Y-46500000D01*
X20503975Y-46696129D01*
X20512172Y-46723152D01*
X20559144Y-46877997D01*
X20561188Y-46884733D01*
X20654086Y-47058532D01*
X20654090Y-47058539D01*
X20779116Y-47210883D01*
X20931460Y-47335909D01*
X20931467Y-47335913D01*
X21105266Y-47428811D01*
X21105269Y-47428811D01*
X21105273Y-47428814D01*
X21293868Y-47486024D01*
X21490000Y-47505341D01*
X21686132Y-47486024D01*
X21874727Y-47428814D01*
X22048538Y-47335910D01*
X22048544Y-47335904D01*
X22053607Y-47332523D01*
X22054703Y-47334164D01*
X22110639Y-47310405D01*
X22179507Y-47322194D01*
X22196148Y-47332888D01*
X22196393Y-47332523D01*
X22201458Y-47335907D01*
X22201462Y-47335910D01*
X22375273Y-47428814D01*
X22563868Y-47486024D01*
X22760000Y-47505341D01*
X22956132Y-47486024D01*
X23144727Y-47428814D01*
X23318538Y-47335910D01*
X23318544Y-47335904D01*
X23323607Y-47332523D01*
X23324703Y-47334164D01*
X23380639Y-47310405D01*
X23449507Y-47322194D01*
X23466148Y-47332888D01*
X23466393Y-47332523D01*
X23471458Y-47335907D01*
X23471462Y-47335910D01*
X23645273Y-47428814D01*
X23833868Y-47486024D01*
X24030000Y-47505341D01*
X24226132Y-47486024D01*
X24414727Y-47428814D01*
X24588538Y-47335910D01*
X24588544Y-47335904D01*
X24593607Y-47332523D01*
X24594624Y-47334045D01*
X24651021Y-47310084D01*
X24719890Y-47321866D01*
X24736424Y-47332489D01*
X24736678Y-47332110D01*
X24741746Y-47335496D01*
X24915460Y-47428348D01*
X25103969Y-47485531D01*
X25103965Y-47485531D01*
X25300000Y-47504838D01*
X25496032Y-47485531D01*
X25684537Y-47428348D01*
X25808522Y-47362076D01*
X26061476Y-47362076D01*
X26185466Y-47428350D01*
X26373969Y-47485531D01*
X26373965Y-47485531D01*
X26570000Y-47504838D01*
X26766032Y-47485531D01*
X26954537Y-47428348D01*
X27078522Y-47362076D01*
X26570001Y-46853553D01*
X26570000Y-46853553D01*
X26061476Y-47362076D01*
X25808522Y-47362076D01*
X25296447Y-46850000D01*
X25329005Y-46850000D01*
X25415216Y-46835614D01*
X25517947Y-46780019D01*
X25597060Y-46694079D01*
X25643982Y-46587108D01*
X25651200Y-46500000D01*
X25653553Y-46500000D01*
X25935000Y-46781446D01*
X25935001Y-46781446D01*
X26187145Y-46529302D01*
X26216372Y-46529302D01*
X26245047Y-46642538D01*
X26308936Y-46740327D01*
X26401115Y-46812072D01*
X26511595Y-46850000D01*
X26599005Y-46850000D01*
X26685216Y-46835614D01*
X26787947Y-46780019D01*
X26867060Y-46694079D01*
X26913982Y-46587108D01*
X26921200Y-46500000D01*
X26923552Y-46500000D01*
X27205000Y-46781446D01*
X27205001Y-46781446D01*
X27486446Y-46500001D01*
X27486446Y-46499999D01*
X27205001Y-46218553D01*
X27205000Y-46218553D01*
X26923552Y-46500000D01*
X26921200Y-46500000D01*
X26923628Y-46470698D01*
X26894953Y-46357462D01*
X26831064Y-46259673D01*
X26738885Y-46187928D01*
X26628405Y-46150000D01*
X26540995Y-46150000D01*
X26454784Y-46164386D01*
X26352053Y-46219981D01*
X26272940Y-46305921D01*
X26226018Y-46412892D01*
X26216372Y-46529302D01*
X26187145Y-46529302D01*
X26216446Y-46500001D01*
X26216446Y-46499999D01*
X25935001Y-46218553D01*
X25935000Y-46218553D01*
X25653553Y-46500000D01*
X25651200Y-46500000D01*
X25653628Y-46470698D01*
X25624953Y-46357462D01*
X25561064Y-46259673D01*
X25468885Y-46187928D01*
X25358405Y-46150000D01*
X25296447Y-46150000D01*
X25300000Y-46146447D01*
X25808522Y-45637922D01*
X26061475Y-45637922D01*
X26570000Y-46146446D01*
X26570001Y-46146446D01*
X27078522Y-45637922D01*
X27331475Y-45637922D01*
X27843553Y-46150000D01*
X27810995Y-46150000D01*
X27724784Y-46164386D01*
X27622053Y-46219981D01*
X27542940Y-46305921D01*
X27496018Y-46412892D01*
X27486372Y-46529302D01*
X27515047Y-46642538D01*
X27578936Y-46740327D01*
X27671115Y-46812072D01*
X27781595Y-46850000D01*
X27843551Y-46850000D01*
X27331476Y-47362075D01*
X27331476Y-47362076D01*
X27455466Y-47428350D01*
X27643969Y-47485531D01*
X27643965Y-47485531D01*
X27840000Y-47504838D01*
X28036032Y-47485531D01*
X28224539Y-47428348D01*
X28398252Y-47335497D01*
X28403320Y-47332111D01*
X28404444Y-47333793D01*
X28460203Y-47310086D01*
X28529075Y-47321851D01*
X28546186Y-47332843D01*
X28546399Y-47332526D01*
X28551457Y-47335906D01*
X28551462Y-47335910D01*
X28725273Y-47428814D01*
X28913868Y-47486024D01*
X29110000Y-47505341D01*
X29306132Y-47486024D01*
X29494727Y-47428814D01*
X29668538Y-47335910D01*
X29668544Y-47335904D01*
X29673607Y-47332523D01*
X29674703Y-47334164D01*
X29730639Y-47310405D01*
X29799507Y-47322194D01*
X29816148Y-47332888D01*
X29816393Y-47332523D01*
X29821458Y-47335907D01*
X29821462Y-47335910D01*
X29995273Y-47428814D01*
X30183868Y-47486024D01*
X30380000Y-47505341D01*
X30576132Y-47486024D01*
X30764727Y-47428814D01*
X30938538Y-47335910D01*
X30938544Y-47335904D01*
X30943607Y-47332523D01*
X30944703Y-47334164D01*
X31000639Y-47310405D01*
X31069507Y-47322194D01*
X31086148Y-47332888D01*
X31086393Y-47332523D01*
X31091458Y-47335907D01*
X31091462Y-47335910D01*
X31265273Y-47428814D01*
X31453868Y-47486024D01*
X31650000Y-47505341D01*
X31846132Y-47486024D01*
X32034727Y-47428814D01*
X32208538Y-47335910D01*
X32208544Y-47335904D01*
X32213607Y-47332523D01*
X32214624Y-47334045D01*
X32271021Y-47310084D01*
X32339890Y-47321866D01*
X32356424Y-47332489D01*
X32356678Y-47332110D01*
X32361746Y-47335496D01*
X32535460Y-47428348D01*
X32723969Y-47485531D01*
X32723965Y-47485531D01*
X32920000Y-47504838D01*
X33116032Y-47485531D01*
X33304537Y-47428348D01*
X33428522Y-47362076D01*
X33681476Y-47362076D01*
X33805466Y-47428350D01*
X33993969Y-47485531D01*
X33993965Y-47485531D01*
X34190000Y-47504838D01*
X34386032Y-47485531D01*
X34574537Y-47428348D01*
X34698522Y-47362076D01*
X34190001Y-46853553D01*
X34190000Y-46853553D01*
X33681476Y-47362076D01*
X33428522Y-47362076D01*
X32916447Y-46850000D01*
X32949005Y-46850000D01*
X33035216Y-46835614D01*
X33137947Y-46780019D01*
X33217060Y-46694079D01*
X33263982Y-46587108D01*
X33271200Y-46500000D01*
X33273552Y-46500000D01*
X33555000Y-46781446D01*
X33555001Y-46781446D01*
X33807145Y-46529302D01*
X33836372Y-46529302D01*
X33865047Y-46642538D01*
X33928936Y-46740327D01*
X34021115Y-46812072D01*
X34131595Y-46850000D01*
X34219005Y-46850000D01*
X34305216Y-46835614D01*
X34407947Y-46780019D01*
X34487060Y-46694079D01*
X34533982Y-46587108D01*
X34541200Y-46500000D01*
X34543552Y-46500000D01*
X34825000Y-46781446D01*
X34825001Y-46781446D01*
X35106446Y-46500001D01*
X35106446Y-46499999D01*
X34825001Y-46218553D01*
X34825000Y-46218553D01*
X34543552Y-46500000D01*
X34541200Y-46500000D01*
X34543628Y-46470698D01*
X34514953Y-46357462D01*
X34451064Y-46259673D01*
X34358885Y-46187928D01*
X34248405Y-46150000D01*
X34160995Y-46150000D01*
X34074784Y-46164386D01*
X33972053Y-46219981D01*
X33892940Y-46305921D01*
X33846018Y-46412892D01*
X33836372Y-46529302D01*
X33807145Y-46529302D01*
X33836446Y-46500001D01*
X33836446Y-46499999D01*
X33555001Y-46218553D01*
X33555000Y-46218553D01*
X33273552Y-46500000D01*
X33271200Y-46500000D01*
X33273628Y-46470698D01*
X33244953Y-46357462D01*
X33181064Y-46259673D01*
X33088885Y-46187928D01*
X32978405Y-46150000D01*
X32916447Y-46150000D01*
X32920000Y-46146447D01*
X33428522Y-45637922D01*
X33681475Y-45637922D01*
X34190000Y-46146446D01*
X34190001Y-46146446D01*
X34698522Y-45637922D01*
X34951475Y-45637922D01*
X35463553Y-46150000D01*
X35430995Y-46150000D01*
X35344784Y-46164386D01*
X35242053Y-46219981D01*
X35162940Y-46305921D01*
X35116018Y-46412892D01*
X35106372Y-46529302D01*
X35135047Y-46642538D01*
X35198936Y-46740327D01*
X35291115Y-46812072D01*
X35401595Y-46850000D01*
X35463551Y-46850000D01*
X34951476Y-47362075D01*
X34951476Y-47362076D01*
X35075466Y-47428350D01*
X35263969Y-47485531D01*
X35263965Y-47485531D01*
X35460000Y-47504838D01*
X35656032Y-47485531D01*
X35844539Y-47428348D01*
X36018258Y-47335493D01*
X36023328Y-47332106D01*
X36024452Y-47333789D01*
X36080203Y-47310086D01*
X36149075Y-47321851D01*
X36166187Y-47332844D01*
X36166400Y-47332527D01*
X36171458Y-47335907D01*
X36171462Y-47335910D01*
X36171468Y-47335913D01*
X36203399Y-47352980D01*
X36209585Y-47356767D01*
X36229563Y-47370673D01*
X36241950Y-47379295D01*
X36241952Y-47379296D01*
X36293683Y-47401495D01*
X36298446Y-47403784D01*
X36345273Y-47428814D01*
X36383166Y-47440308D01*
X36389599Y-47442656D01*
X36428942Y-47459540D01*
X36480776Y-47470192D01*
X36486296Y-47471593D01*
X36533868Y-47486024D01*
X36576644Y-47490236D01*
X36583026Y-47491204D01*
X36597700Y-47494219D01*
X36628256Y-47500500D01*
X36628259Y-47500500D01*
X36677800Y-47500500D01*
X36683881Y-47500799D01*
X36693930Y-47501788D01*
X36730000Y-47505341D01*
X36766069Y-47501788D01*
X36776119Y-47500799D01*
X36782200Y-47500500D01*
X37947800Y-47500500D01*
X37953881Y-47500799D01*
X37963930Y-47501788D01*
X38000000Y-47505341D01*
X38036069Y-47501788D01*
X38046119Y-47500799D01*
X38052200Y-47500500D01*
X39217800Y-47500500D01*
X39223881Y-47500799D01*
X39233930Y-47501788D01*
X39270000Y-47505341D01*
X39301510Y-47502237D01*
X39315999Y-47500811D01*
X39318941Y-47500591D01*
X39320725Y-47500500D01*
X39320742Y-47500500D01*
X39321204Y-47500452D01*
X39321294Y-47500444D01*
X39321412Y-47500466D01*
X39323891Y-47500341D01*
X39323920Y-47500933D01*
X39389982Y-47513237D01*
X39421535Y-47536125D01*
X40869197Y-48983788D01*
X40879022Y-48996051D01*
X40879243Y-48995869D01*
X40884214Y-49001878D01*
X40905043Y-49021437D01*
X40934635Y-49049226D01*
X40955529Y-49070120D01*
X40961011Y-49074373D01*
X40965443Y-49078157D01*
X40999418Y-49110062D01*
X41016976Y-49119714D01*
X41033235Y-49130395D01*
X41049064Y-49142673D01*
X41091838Y-49161182D01*
X41097056Y-49163738D01*
X41137908Y-49186197D01*
X41157316Y-49191180D01*
X41175717Y-49197480D01*
X41194104Y-49205437D01*
X41237488Y-49212308D01*
X41240119Y-49212725D01*
X41245839Y-49213909D01*
X41290981Y-49225500D01*
X41311016Y-49225500D01*
X41330414Y-49227026D01*
X41350194Y-49230159D01*
X41350195Y-49230160D01*
X41350195Y-49230159D01*
X41350196Y-49230160D01*
X41396584Y-49225775D01*
X41402422Y-49225500D01*
X56817257Y-49225500D01*
X56832877Y-49227224D01*
X56832904Y-49226939D01*
X56840660Y-49227671D01*
X56840667Y-49227673D01*
X56909814Y-49225500D01*
X56939350Y-49225500D01*
X56946228Y-49224630D01*
X56952041Y-49224172D01*
X56998627Y-49222709D01*
X57017869Y-49217117D01*
X57036912Y-49213174D01*
X57056792Y-49210664D01*
X57100122Y-49193507D01*
X57105646Y-49191617D01*
X57109396Y-49190527D01*
X57150390Y-49178618D01*
X57167629Y-49168422D01*
X57185103Y-49159862D01*
X57203727Y-49152488D01*
X57203727Y-49152487D01*
X57203732Y-49152486D01*
X57241449Y-49125082D01*
X57246305Y-49121892D01*
X57286420Y-49098170D01*
X57300589Y-49083999D01*
X57315379Y-49071368D01*
X57331587Y-49059594D01*
X57361299Y-49023676D01*
X57365212Y-49019376D01*
X59383788Y-47000801D01*
X59396042Y-46990986D01*
X59395859Y-46990764D01*
X59401866Y-46985792D01*
X59401877Y-46985786D01*
X59438748Y-46946522D01*
X59449227Y-46935364D01*
X59459671Y-46924918D01*
X59470120Y-46914471D01*
X59474379Y-46908978D01*
X59478152Y-46904561D01*
X59510062Y-46870582D01*
X59519713Y-46853024D01*
X59530396Y-46836761D01*
X59542673Y-46820936D01*
X59561185Y-46778153D01*
X59563738Y-46772941D01*
X59586197Y-46732092D01*
X59591180Y-46712680D01*
X59597481Y-46694280D01*
X59605437Y-46675896D01*
X59612729Y-46629852D01*
X59613906Y-46624171D01*
X59625500Y-46579019D01*
X59625500Y-46558983D01*
X59627027Y-46539582D01*
X59630160Y-46519804D01*
X59625775Y-46473415D01*
X59625500Y-46467577D01*
X59625500Y-41310452D01*
X59645185Y-41243413D01*
X59661819Y-41222771D01*
X60802772Y-40081819D01*
X60864095Y-40048334D01*
X60890453Y-40045500D01*
X61106258Y-40045500D01*
X61173297Y-40065185D01*
X61205212Y-40094773D01*
X61309020Y-40232238D01*
X61473437Y-40382123D01*
X61473439Y-40382125D01*
X61662595Y-40499245D01*
X61662596Y-40499245D01*
X61662599Y-40499247D01*
X61870060Y-40579618D01*
X62088757Y-40620500D01*
X62088759Y-40620500D01*
X62311241Y-40620500D01*
X62311243Y-40620500D01*
X62529940Y-40579618D01*
X62737401Y-40499247D01*
X62926562Y-40382124D01*
X63090981Y-40232236D01*
X63194788Y-40094772D01*
X63250897Y-40053137D01*
X63293742Y-40045500D01*
X63369548Y-40045500D01*
X63436587Y-40065185D01*
X63457229Y-40081819D01*
X64438181Y-41062771D01*
X64471666Y-41124094D01*
X64474500Y-41150452D01*
X64474500Y-42611541D01*
X64454815Y-42678580D01*
X64402011Y-42724335D01*
X64332853Y-42734279D01*
X64271460Y-42707085D01*
X64167821Y-42621349D01*
X64024828Y-42554062D01*
X64024825Y-42554060D01*
X63944923Y-42538818D01*
X63869588Y-42524448D01*
X63869584Y-42524448D01*
X63711862Y-42534371D01*
X63711859Y-42534371D01*
X63561558Y-42583208D01*
X63428114Y-42667894D01*
X63422110Y-42672862D01*
X63420338Y-42670720D01*
X63371512Y-42699391D01*
X63301699Y-42696579D01*
X63298060Y-42695286D01*
X63192482Y-42655908D01*
X63192483Y-42655908D01*
X63132883Y-42649501D01*
X63132881Y-42649500D01*
X63132873Y-42649500D01*
X63132864Y-42649500D01*
X61987129Y-42649500D01*
X61987123Y-42649501D01*
X61927516Y-42655908D01*
X61792671Y-42706202D01*
X61792664Y-42706206D01*
X61677455Y-42792452D01*
X61677452Y-42792455D01*
X61591206Y-42907664D01*
X61591202Y-42907671D01*
X61540908Y-43042517D01*
X61534501Y-43102116D01*
X61534500Y-43102135D01*
X61534500Y-44697870D01*
X61534501Y-44697876D01*
X61540908Y-44757483D01*
X61591202Y-44892328D01*
X61591206Y-44892335D01*
X61677452Y-45007544D01*
X61677455Y-45007547D01*
X61792664Y-45093793D01*
X61792666Y-45093794D01*
X61792669Y-45093796D01*
X61853833Y-45116608D01*
X61909766Y-45158478D01*
X61934184Y-45223942D01*
X61934500Y-45232790D01*
X61934500Y-46177255D01*
X61932775Y-46192872D01*
X61933061Y-46192899D01*
X61932326Y-46200665D01*
X61934500Y-46269814D01*
X61934500Y-46299343D01*
X61934501Y-46299360D01*
X61935368Y-46306231D01*
X61935826Y-46312050D01*
X61937290Y-46358624D01*
X61937291Y-46358627D01*
X61942880Y-46377867D01*
X61946824Y-46396911D01*
X61949336Y-46416792D01*
X61958100Y-46438928D01*
X61966490Y-46460119D01*
X61968382Y-46465647D01*
X61978363Y-46500002D01*
X61981382Y-46510390D01*
X61989328Y-46523827D01*
X61991580Y-46527634D01*
X62000136Y-46545100D01*
X62002693Y-46551556D01*
X62007514Y-46563732D01*
X62034898Y-46601423D01*
X62038106Y-46606307D01*
X62061827Y-46646416D01*
X62061833Y-46646424D01*
X62075990Y-46660580D01*
X62088627Y-46675375D01*
X62100406Y-46691587D01*
X62127536Y-46714031D01*
X62136309Y-46721288D01*
X62140620Y-46725210D01*
X62713950Y-47298540D01*
X63238181Y-47822771D01*
X63271666Y-47884094D01*
X63274500Y-47910452D01*
X63274500Y-57953651D01*
X63272775Y-57969268D01*
X63273061Y-57969295D01*
X63272326Y-57977061D01*
X63274500Y-58046210D01*
X63274500Y-58075739D01*
X63274501Y-58075756D01*
X63275368Y-58082627D01*
X63275826Y-58088446D01*
X63277290Y-58135020D01*
X63277291Y-58135023D01*
X63282880Y-58154263D01*
X63286824Y-58173307D01*
X63289336Y-58193188D01*
X63294421Y-58206032D01*
X63306490Y-58236515D01*
X63308382Y-58242043D01*
X63321381Y-58286784D01*
X63331580Y-58304030D01*
X63340136Y-58321496D01*
X63346467Y-58337484D01*
X63347514Y-58340128D01*
X63374898Y-58377819D01*
X63378106Y-58382703D01*
X63401827Y-58422812D01*
X63401833Y-58422820D01*
X63415990Y-58436976D01*
X63428628Y-58451772D01*
X63440405Y-58467982D01*
X63440406Y-58467983D01*
X63476309Y-58497684D01*
X63480620Y-58501606D01*
X67253179Y-62274166D01*
X67262801Y-62283788D01*
X67272626Y-62296051D01*
X67272847Y-62295869D01*
X67277818Y-62301878D01*
X67298647Y-62321437D01*
X67328239Y-62349226D01*
X67349133Y-62370120D01*
X67354615Y-62374373D01*
X67359047Y-62378157D01*
X67393022Y-62410062D01*
X67410580Y-62419714D01*
X67426839Y-62430395D01*
X67442668Y-62442673D01*
X67485442Y-62461182D01*
X67490660Y-62463738D01*
X67531512Y-62486197D01*
X67550920Y-62491180D01*
X67569321Y-62497480D01*
X67587708Y-62505437D01*
X67631092Y-62512308D01*
X67633723Y-62512725D01*
X67639443Y-62513909D01*
X67684585Y-62525500D01*
X67704620Y-62525500D01*
X67724018Y-62527026D01*
X67743798Y-62530159D01*
X67743799Y-62530160D01*
X67743799Y-62530159D01*
X67743800Y-62530160D01*
X67790188Y-62525775D01*
X67796026Y-62525500D01*
X96317257Y-62525500D01*
X96332877Y-62527224D01*
X96332904Y-62526939D01*
X96340660Y-62527671D01*
X96340667Y-62527673D01*
X96409814Y-62525500D01*
X96439350Y-62525500D01*
X96446228Y-62524630D01*
X96452041Y-62524172D01*
X96498627Y-62522709D01*
X96517869Y-62517117D01*
X96536912Y-62513174D01*
X96556792Y-62510664D01*
X96600122Y-62493507D01*
X96605646Y-62491617D01*
X96609396Y-62490527D01*
X96650390Y-62478618D01*
X96667629Y-62468422D01*
X96685103Y-62459862D01*
X96703727Y-62452488D01*
X96703727Y-62452487D01*
X96703732Y-62452486D01*
X96741449Y-62425082D01*
X96746305Y-62421892D01*
X96786420Y-62398170D01*
X96800589Y-62383999D01*
X96815379Y-62371368D01*
X96831587Y-62359594D01*
X96861299Y-62323676D01*
X96865212Y-62319376D01*
X97883787Y-61300802D01*
X97896042Y-61290986D01*
X97895859Y-61290764D01*
X97901866Y-61285792D01*
X97901877Y-61285786D01*
X97932775Y-61252882D01*
X97949227Y-61235364D01*
X97959671Y-61224918D01*
X97970120Y-61214471D01*
X97974379Y-61208978D01*
X97978152Y-61204561D01*
X98010062Y-61170582D01*
X98019715Y-61153020D01*
X98030389Y-61136770D01*
X98042673Y-61120936D01*
X98061180Y-61078167D01*
X98063749Y-61072924D01*
X98086196Y-61032093D01*
X98086197Y-61032092D01*
X98091177Y-61012691D01*
X98097478Y-60994288D01*
X98105438Y-60975896D01*
X98112730Y-60929849D01*
X98113911Y-60924152D01*
X98125500Y-60879019D01*
X98125500Y-60858983D01*
X98127027Y-60839582D01*
X98130160Y-60819804D01*
X98125775Y-60773415D01*
X98125500Y-60767577D01*
X98125500Y-50082738D01*
X98127224Y-50067124D01*
X98126938Y-50067097D01*
X98127672Y-50059334D01*
X98125500Y-49990203D01*
X98125500Y-49960651D01*
X98125500Y-49960650D01*
X98124629Y-49953759D01*
X98124172Y-49947945D01*
X98123514Y-49927011D01*
X98122709Y-49901373D01*
X98117122Y-49882144D01*
X98113174Y-49863084D01*
X98110664Y-49843208D01*
X98093507Y-49799875D01*
X98091619Y-49794359D01*
X98078619Y-49749612D01*
X98068418Y-49732363D01*
X98059860Y-49714894D01*
X98052486Y-49696268D01*
X98052483Y-49696264D01*
X98052483Y-49696263D01*
X98025098Y-49658571D01*
X98021890Y-49653687D01*
X97998172Y-49613582D01*
X97998163Y-49613571D01*
X97984005Y-49599413D01*
X97971370Y-49584620D01*
X97959593Y-49568412D01*
X97923693Y-49538713D01*
X97919381Y-49534790D01*
X97400803Y-49016212D01*
X97390980Y-49003950D01*
X97390759Y-49004134D01*
X97385786Y-48998123D01*
X97367159Y-48980631D01*
X97335364Y-48950773D01*
X97324919Y-48940328D01*
X97314475Y-48929883D01*
X97308986Y-48925625D01*
X97304561Y-48921847D01*
X97270582Y-48889938D01*
X97270580Y-48889936D01*
X97270577Y-48889935D01*
X97253029Y-48880288D01*
X97236763Y-48869604D01*
X97220933Y-48857325D01*
X97178168Y-48838818D01*
X97172922Y-48836248D01*
X97132093Y-48813803D01*
X97132092Y-48813802D01*
X97112693Y-48808822D01*
X97094281Y-48802518D01*
X97075898Y-48794562D01*
X97075892Y-48794560D01*
X97029874Y-48787272D01*
X97024152Y-48786087D01*
X96979021Y-48774500D01*
X96979019Y-48774500D01*
X96958984Y-48774500D01*
X96939586Y-48772973D01*
X96932162Y-48771797D01*
X96919805Y-48769840D01*
X96919804Y-48769840D01*
X96873416Y-48774225D01*
X96867578Y-48774500D01*
X92127738Y-48774500D01*
X92112121Y-48772776D01*
X92112094Y-48773062D01*
X92104332Y-48772327D01*
X92035204Y-48774500D01*
X92005650Y-48774500D01*
X92004929Y-48774590D01*
X91998757Y-48775369D01*
X91992945Y-48775826D01*
X91946373Y-48777290D01*
X91946372Y-48777290D01*
X91927129Y-48782881D01*
X91908079Y-48786825D01*
X91888211Y-48789334D01*
X91844884Y-48806488D01*
X91839358Y-48808379D01*
X91794614Y-48821379D01*
X91794610Y-48821381D01*
X91777366Y-48831579D01*
X91759905Y-48840133D01*
X91741274Y-48847510D01*
X91741262Y-48847517D01*
X91703570Y-48874902D01*
X91698687Y-48878109D01*
X91658580Y-48901829D01*
X91644414Y-48915995D01*
X91629624Y-48928627D01*
X91613414Y-48940404D01*
X91613411Y-48940407D01*
X91583710Y-48976309D01*
X91579777Y-48980631D01*
X90725646Y-49834762D01*
X90664323Y-49868247D01*
X90605872Y-49866856D01*
X90505413Y-49839938D01*
X90505403Y-49839936D01*
X90270001Y-49819341D01*
X90269999Y-49819341D01*
X90034596Y-49839936D01*
X90034586Y-49839938D01*
X89806344Y-49901094D01*
X89806335Y-49901098D01*
X89592171Y-50000964D01*
X89592169Y-50000965D01*
X89398597Y-50136505D01*
X89231505Y-50303597D01*
X89101575Y-50489158D01*
X89046998Y-50532783D01*
X88977500Y-50539977D01*
X88915145Y-50508454D01*
X88898425Y-50489158D01*
X88768494Y-50303597D01*
X88601402Y-50136506D01*
X88601395Y-50136501D01*
X88407834Y-50000967D01*
X88407830Y-50000965D01*
X88362474Y-49979815D01*
X88193663Y-49901097D01*
X88193659Y-49901096D01*
X88193655Y-49901094D01*
X87965413Y-49839938D01*
X87965403Y-49839936D01*
X87730001Y-49819341D01*
X87729999Y-49819341D01*
X87494596Y-49839936D01*
X87494586Y-49839938D01*
X87266344Y-49901094D01*
X87266335Y-49901098D01*
X87052171Y-50000964D01*
X87052169Y-50000965D01*
X86858597Y-50136505D01*
X86691505Y-50303597D01*
X86561575Y-50489158D01*
X86506998Y-50532783D01*
X86437500Y-50539977D01*
X86375145Y-50508454D01*
X86358425Y-50489158D01*
X86228494Y-50303597D01*
X86061402Y-50136506D01*
X86061395Y-50136501D01*
X85867834Y-50000967D01*
X85867830Y-50000965D01*
X85822474Y-49979815D01*
X85653663Y-49901097D01*
X85653659Y-49901096D01*
X85653655Y-49901094D01*
X85425413Y-49839938D01*
X85425403Y-49839936D01*
X85190001Y-49819341D01*
X85189999Y-49819341D01*
X84954596Y-49839936D01*
X84954586Y-49839938D01*
X84726344Y-49901094D01*
X84726335Y-49901098D01*
X84512171Y-50000964D01*
X84512169Y-50000965D01*
X84318600Y-50136503D01*
X84196673Y-50258430D01*
X84135350Y-50291914D01*
X84065658Y-50286930D01*
X84009725Y-50245058D01*
X83992810Y-50214081D01*
X83943797Y-50082671D01*
X83943793Y-50082664D01*
X83857547Y-49967455D01*
X83857544Y-49967452D01*
X83742335Y-49881206D01*
X83742328Y-49881202D01*
X83607482Y-49830908D01*
X83607483Y-49830908D01*
X83547883Y-49824501D01*
X83547881Y-49824500D01*
X83547873Y-49824500D01*
X83547864Y-49824500D01*
X81752129Y-49824500D01*
X81752123Y-49824501D01*
X81692516Y-49830908D01*
X81557671Y-49881202D01*
X81557664Y-49881206D01*
X81442455Y-49967452D01*
X81442452Y-49967455D01*
X81356206Y-50082664D01*
X81356202Y-50082671D01*
X81305908Y-50217517D01*
X81299501Y-50277116D01*
X81299500Y-50277135D01*
X81299500Y-52072870D01*
X81299501Y-52072876D01*
X81305908Y-52132483D01*
X81356202Y-52267328D01*
X81356206Y-52267335D01*
X81442452Y-52382544D01*
X81442455Y-52382547D01*
X81557664Y-52468793D01*
X81557671Y-52468797D01*
X81584955Y-52478973D01*
X81692517Y-52519091D01*
X81752127Y-52525500D01*
X81900500Y-52525499D01*
X81967539Y-52545183D01*
X82013294Y-52597987D01*
X82024500Y-52649499D01*
X82024500Y-57847255D01*
X82022775Y-57862872D01*
X82023061Y-57862899D01*
X82022326Y-57870665D01*
X82024500Y-57939814D01*
X82024500Y-57969343D01*
X82024501Y-57969360D01*
X82025368Y-57976231D01*
X82025826Y-57982050D01*
X82027290Y-58028624D01*
X82027291Y-58028627D01*
X82032880Y-58047867D01*
X82036824Y-58066911D01*
X82039336Y-58086792D01*
X82056490Y-58130119D01*
X82058382Y-58135647D01*
X82071382Y-58180390D01*
X82078950Y-58193188D01*
X82081580Y-58197634D01*
X82090138Y-58215103D01*
X82097514Y-58233732D01*
X82124898Y-58271423D01*
X82128106Y-58276307D01*
X82151827Y-58316416D01*
X82151833Y-58316424D01*
X82165990Y-58330580D01*
X82178628Y-58345376D01*
X82190405Y-58361586D01*
X82190406Y-58361587D01*
X82226309Y-58391288D01*
X82230620Y-58395210D01*
X82774491Y-58939081D01*
X83233181Y-59397771D01*
X83266666Y-59459094D01*
X83269500Y-59485452D01*
X83269500Y-59750500D01*
X83249815Y-59817539D01*
X83197011Y-59863294D01*
X83145500Y-59874500D01*
X67310453Y-59874500D01*
X67243414Y-59854815D01*
X67222772Y-59838181D01*
X65061819Y-57677228D01*
X65028334Y-57615905D01*
X65025500Y-57589547D01*
X65025500Y-54296528D01*
X66599500Y-54296528D01*
X66638026Y-54687702D01*
X66714704Y-55073194D01*
X66714707Y-55073205D01*
X66828810Y-55449354D01*
X66979230Y-55812499D01*
X66979232Y-55812504D01*
X67164511Y-56159137D01*
X67164522Y-56159155D01*
X67382887Y-56485960D01*
X67382897Y-56485974D01*
X67632254Y-56789817D01*
X67910182Y-57067745D01*
X67910187Y-57067749D01*
X67910188Y-57067750D01*
X68214031Y-57317107D01*
X68540851Y-57535482D01*
X68540860Y-57535487D01*
X68540862Y-57535488D01*
X68887495Y-57720767D01*
X68887497Y-57720767D01*
X68887503Y-57720771D01*
X69250647Y-57871190D01*
X69626785Y-57985290D01*
X69626791Y-57985291D01*
X69626794Y-57985292D01*
X69626805Y-57985295D01*
X69988467Y-58057233D01*
X70012297Y-58061973D01*
X70403468Y-58100500D01*
X70403471Y-58100500D01*
X70796529Y-58100500D01*
X70796532Y-58100500D01*
X71187703Y-58061973D01*
X71266949Y-58046210D01*
X71573194Y-57985295D01*
X71573205Y-57985292D01*
X71573205Y-57985291D01*
X71573215Y-57985290D01*
X71949353Y-57871190D01*
X72312497Y-57720771D01*
X72659149Y-57535482D01*
X72985969Y-57317107D01*
X73289812Y-57067750D01*
X73567750Y-56789812D01*
X73817107Y-56485969D01*
X74035482Y-56159149D01*
X74220771Y-55812497D01*
X74371190Y-55449353D01*
X74485290Y-55073215D01*
X74485292Y-55073205D01*
X74485295Y-55073194D01*
X74561973Y-54687702D01*
X74566634Y-54640380D01*
X74600500Y-54296532D01*
X74600500Y-54100000D01*
X74600500Y-54099500D01*
X74600500Y-49099901D01*
X74600500Y-48903468D01*
X74561973Y-48512297D01*
X74549050Y-48447327D01*
X74485295Y-48126805D01*
X74485292Y-48126794D01*
X74485291Y-48126791D01*
X74485290Y-48126785D01*
X74371190Y-47750647D01*
X74220771Y-47387503D01*
X74218399Y-47383066D01*
X74035488Y-47040862D01*
X74035487Y-47040860D01*
X74035482Y-47040851D01*
X73817107Y-46714031D01*
X73567750Y-46410188D01*
X73567749Y-46410187D01*
X73567745Y-46410182D01*
X73289817Y-46132254D01*
X72985974Y-45882897D01*
X72985973Y-45882896D01*
X72985969Y-45882893D01*
X72659149Y-45664518D01*
X72659144Y-45664515D01*
X72659137Y-45664511D01*
X72312504Y-45479232D01*
X72312499Y-45479230D01*
X72254420Y-45455173D01*
X72074028Y-45380452D01*
X71949354Y-45328810D01*
X71573205Y-45214707D01*
X71573194Y-45214704D01*
X71187702Y-45138026D01*
X70893089Y-45109010D01*
X70796532Y-45099500D01*
X70403468Y-45099500D01*
X70314251Y-45108287D01*
X70012297Y-45138026D01*
X69626805Y-45214704D01*
X69626794Y-45214707D01*
X69250645Y-45328810D01*
X68887500Y-45479230D01*
X68887495Y-45479232D01*
X68540862Y-45664511D01*
X68540844Y-45664522D01*
X68214039Y-45882887D01*
X68214025Y-45882897D01*
X67910182Y-46132254D01*
X67632254Y-46410182D01*
X67382897Y-46714025D01*
X67382887Y-46714039D01*
X67164522Y-47040844D01*
X67164511Y-47040862D01*
X66979232Y-47387495D01*
X66979230Y-47387500D01*
X66828810Y-47750645D01*
X66714707Y-48126794D01*
X66714704Y-48126805D01*
X66638026Y-48512297D01*
X66610226Y-48794562D01*
X66599662Y-48901830D01*
X66599500Y-48903471D01*
X66599500Y-54296528D01*
X65025500Y-54296528D01*
X65025500Y-45656777D01*
X65045185Y-45589738D01*
X65061819Y-45569096D01*
X65258007Y-45372908D01*
X65483788Y-45147126D01*
X65496042Y-45137311D01*
X65495859Y-45137089D01*
X65501866Y-45132117D01*
X65501877Y-45132111D01*
X65537860Y-45093793D01*
X65549227Y-45081689D01*
X65559671Y-45071243D01*
X65570120Y-45060796D01*
X65574371Y-45055314D01*
X65578164Y-45050874D01*
X65597155Y-45030651D01*
X65599383Y-45028277D01*
X65631317Y-45003807D01*
X65672494Y-44981798D01*
X65828647Y-44853647D01*
X65956798Y-44697494D01*
X66052023Y-44519341D01*
X66110662Y-44326033D01*
X66125500Y-44175380D01*
X66125500Y-43624620D01*
X66110662Y-43473967D01*
X66052023Y-43280659D01*
X66052021Y-43280656D01*
X66052021Y-43280654D01*
X65956801Y-43102511D01*
X65956799Y-43102509D01*
X65956798Y-43102506D01*
X65917824Y-43055016D01*
X65828647Y-42946352D01*
X65770835Y-42898907D01*
X65731501Y-42841161D01*
X65725500Y-42803054D01*
X65725500Y-41150452D01*
X65745185Y-41083413D01*
X65761819Y-41062771D01*
X66310377Y-40514213D01*
X66867183Y-39957406D01*
X66928504Y-39923923D01*
X66998196Y-39928907D01*
X67054129Y-39970779D01*
X67078546Y-40036243D01*
X67078390Y-40055895D01*
X67074532Y-40099996D01*
X67074532Y-40100001D01*
X67094364Y-40326686D01*
X67094366Y-40326697D01*
X67153258Y-40546488D01*
X67153261Y-40546497D01*
X67249431Y-40752732D01*
X67249432Y-40752734D01*
X67379954Y-40939141D01*
X67540858Y-41100045D01*
X67540861Y-41100047D01*
X67727266Y-41230568D01*
X67933504Y-41326739D01*
X67933509Y-41326740D01*
X67933511Y-41326741D01*
X67986415Y-41340916D01*
X68153308Y-41385635D01*
X68315230Y-41399801D01*
X68379998Y-41405468D01*
X68380000Y-41405468D01*
X68380002Y-41405468D01*
X68436807Y-41400498D01*
X68606692Y-41385635D01*
X68826496Y-41326739D01*
X69032734Y-41230568D01*
X69219139Y-41100047D01*
X69380047Y-40939139D01*
X69510568Y-40752734D01*
X69606739Y-40546496D01*
X69665635Y-40326692D01*
X69685468Y-40100000D01*
X69665635Y-39873308D01*
X69606739Y-39653504D01*
X69510568Y-39447266D01*
X69380047Y-39260861D01*
X69380045Y-39260858D01*
X69219141Y-39099954D01*
X69032734Y-38969432D01*
X69032728Y-38969429D01*
X68988120Y-38948628D01*
X68974724Y-38942381D01*
X68922285Y-38896210D01*
X68903133Y-38829017D01*
X68923348Y-38762135D01*
X68974725Y-38717618D01*
X69032734Y-38690568D01*
X69219139Y-38560047D01*
X69380047Y-38399139D01*
X69510568Y-38212734D01*
X69606739Y-38006496D01*
X69665635Y-37786692D01*
X69685468Y-37560000D01*
X69665635Y-37333308D01*
X69606739Y-37113504D01*
X69510568Y-36907266D01*
X69380047Y-36720861D01*
X69380045Y-36720858D01*
X69219141Y-36559954D01*
X69032734Y-36429432D01*
X69032728Y-36429429D01*
X68974725Y-36402382D01*
X68922285Y-36356210D01*
X68903133Y-36289017D01*
X68923348Y-36222135D01*
X68974725Y-36177618D01*
X69032734Y-36150568D01*
X69219139Y-36020047D01*
X69239615Y-35999570D01*
X69300936Y-35966084D01*
X69370628Y-35971067D01*
X69414978Y-35999569D01*
X69938181Y-36522771D01*
X69971666Y-36584094D01*
X69974500Y-36610452D01*
X69974500Y-40689546D01*
X69954815Y-40756585D01*
X69938181Y-40777227D01*
X68729892Y-41985515D01*
X68668569Y-42019000D01*
X68619426Y-42019722D01*
X68511243Y-41999500D01*
X68288757Y-41999500D01*
X68070060Y-42040382D01*
X67938864Y-42091207D01*
X67862601Y-42120752D01*
X67862595Y-42120754D01*
X67673439Y-42237874D01*
X67673437Y-42237876D01*
X67509020Y-42387761D01*
X67374943Y-42565308D01*
X67374938Y-42565316D01*
X67275775Y-42764461D01*
X67275769Y-42764476D01*
X67214885Y-42978462D01*
X67214884Y-42978464D01*
X67194357Y-43199999D01*
X67194357Y-43200000D01*
X67214884Y-43421535D01*
X67214885Y-43421537D01*
X67275769Y-43635523D01*
X67275775Y-43635538D01*
X67374938Y-43834683D01*
X67374943Y-43834691D01*
X67509020Y-44012238D01*
X67673437Y-44162123D01*
X67673439Y-44162125D01*
X67862595Y-44279245D01*
X67862596Y-44279245D01*
X67862599Y-44279247D01*
X68070060Y-44359618D01*
X68288757Y-44400500D01*
X68288759Y-44400500D01*
X68511241Y-44400500D01*
X68511243Y-44400500D01*
X68729940Y-44359618D01*
X68937401Y-44279247D01*
X69126562Y-44162124D01*
X69290981Y-44012236D01*
X69425058Y-43834689D01*
X69524229Y-43635528D01*
X69585115Y-43421536D01*
X69605643Y-43200000D01*
X69585115Y-42978464D01*
X69585112Y-42978454D01*
X69584685Y-42976167D01*
X69584798Y-42975046D01*
X69584586Y-42972755D01*
X69585034Y-42972713D01*
X69591713Y-42906651D01*
X69618889Y-42865699D01*
X70983787Y-41500802D01*
X70996042Y-41490986D01*
X70995859Y-41490764D01*
X71001866Y-41485792D01*
X71001877Y-41485786D01*
X71037704Y-41447634D01*
X71049227Y-41435364D01*
X71059671Y-41424918D01*
X71070120Y-41414471D01*
X71074379Y-41408978D01*
X71078152Y-41404561D01*
X71110062Y-41370582D01*
X71119715Y-41353020D01*
X71130389Y-41336770D01*
X71142673Y-41320936D01*
X71161180Y-41278167D01*
X71163749Y-41272924D01*
X71186196Y-41232093D01*
X71186197Y-41232092D01*
X71191177Y-41212691D01*
X71197478Y-41194288D01*
X71205438Y-41175896D01*
X71212730Y-41129849D01*
X71213911Y-41124152D01*
X71214806Y-41120667D01*
X71225500Y-41079019D01*
X71225500Y-41058983D01*
X71227027Y-41039582D01*
X71230160Y-41019804D01*
X71225775Y-40973415D01*
X71225500Y-40967577D01*
X71225500Y-38380195D01*
X73369840Y-38380195D01*
X73374225Y-38426583D01*
X73374500Y-38432421D01*
X73374500Y-41097255D01*
X73372775Y-41112872D01*
X73373061Y-41112899D01*
X73372326Y-41120665D01*
X73374500Y-41189814D01*
X73374500Y-41219343D01*
X73374501Y-41219360D01*
X73375368Y-41226231D01*
X73375826Y-41232050D01*
X73377290Y-41278624D01*
X73377291Y-41278627D01*
X73382880Y-41297867D01*
X73386824Y-41316911D01*
X73389336Y-41336792D01*
X73406490Y-41380119D01*
X73408382Y-41385647D01*
X73416756Y-41414471D01*
X73421382Y-41430390D01*
X73424323Y-41435364D01*
X73431580Y-41447634D01*
X73440138Y-41465103D01*
X73447514Y-41483732D01*
X73474898Y-41521423D01*
X73478106Y-41526307D01*
X73501827Y-41566416D01*
X73501833Y-41566424D01*
X73515990Y-41580580D01*
X73528628Y-41595376D01*
X73540405Y-41611586D01*
X73540406Y-41611587D01*
X73576309Y-41641288D01*
X73580620Y-41645210D01*
X74323171Y-42387761D01*
X74801107Y-42865697D01*
X74834592Y-42927020D01*
X74835266Y-42972742D01*
X74835414Y-42972756D01*
X74835287Y-42974125D01*
X74835317Y-42976153D01*
X74834884Y-42978465D01*
X74814357Y-43199999D01*
X74814357Y-43200000D01*
X74834884Y-43421535D01*
X74834885Y-43421537D01*
X74895769Y-43635523D01*
X74895775Y-43635538D01*
X74994938Y-43834683D01*
X74994943Y-43834691D01*
X75129020Y-44012238D01*
X75293437Y-44162123D01*
X75293439Y-44162125D01*
X75482595Y-44279245D01*
X75482596Y-44279245D01*
X75482599Y-44279247D01*
X75690060Y-44359618D01*
X75908757Y-44400500D01*
X75908759Y-44400500D01*
X76131240Y-44400500D01*
X76131243Y-44400500D01*
X76239427Y-44380276D01*
X76308942Y-44387307D01*
X76349893Y-44414484D01*
X77228181Y-45292771D01*
X77261666Y-45354094D01*
X77264500Y-45380452D01*
X77264500Y-54706233D01*
X77244815Y-54773272D01*
X77205778Y-54811660D01*
X77163436Y-54837877D01*
X76999020Y-54987761D01*
X76864943Y-55165308D01*
X76864938Y-55165316D01*
X76765775Y-55364461D01*
X76765769Y-55364476D01*
X76704885Y-55578462D01*
X76704884Y-55578464D01*
X76684357Y-55799999D01*
X76684357Y-55800000D01*
X76704884Y-56021535D01*
X76704885Y-56021537D01*
X76765769Y-56235523D01*
X76765775Y-56235538D01*
X76864938Y-56434683D01*
X76864943Y-56434691D01*
X76999020Y-56612238D01*
X77163437Y-56762123D01*
X77163439Y-56762125D01*
X77352595Y-56879245D01*
X77352596Y-56879245D01*
X77352599Y-56879247D01*
X77560060Y-56959618D01*
X77778757Y-57000500D01*
X77778759Y-57000500D01*
X78001241Y-57000500D01*
X78001243Y-57000500D01*
X78219940Y-56959618D01*
X78427401Y-56879247D01*
X78616562Y-56762124D01*
X78780981Y-56612236D01*
X78915058Y-56434689D01*
X79014229Y-56235528D01*
X79075115Y-56021536D01*
X79095643Y-55800000D01*
X79075115Y-55578464D01*
X79014229Y-55364472D01*
X78915189Y-55165574D01*
X78915061Y-55165316D01*
X78915056Y-55165308D01*
X78780979Y-54987761D01*
X78616563Y-54837877D01*
X78616562Y-54837876D01*
X78574222Y-54811660D01*
X78527587Y-54759631D01*
X78515500Y-54706233D01*
X78515500Y-45152737D01*
X78517224Y-45137123D01*
X78516938Y-45137096D01*
X78517672Y-45129333D01*
X78516028Y-45077023D01*
X78515500Y-45060202D01*
X78515500Y-45030650D01*
X78514629Y-45023759D01*
X78514172Y-45017945D01*
X78514139Y-45016907D01*
X78512709Y-44971372D01*
X78507120Y-44952137D01*
X78503174Y-44933084D01*
X78500664Y-44913208D01*
X78483501Y-44869859D01*
X78481614Y-44864346D01*
X78468617Y-44819610D01*
X78468616Y-44819608D01*
X78458421Y-44802369D01*
X78449860Y-44784893D01*
X78442486Y-44766269D01*
X78442486Y-44766267D01*
X78432474Y-44752488D01*
X78415083Y-44728550D01*
X78411900Y-44723705D01*
X78388170Y-44683579D01*
X78388165Y-44683573D01*
X78374005Y-44669413D01*
X78361370Y-44654620D01*
X78349593Y-44638412D01*
X78313693Y-44608713D01*
X78309381Y-44604790D01*
X77238892Y-43534301D01*
X77205407Y-43472978D01*
X77204737Y-43427259D01*
X77204586Y-43427245D01*
X77204716Y-43425836D01*
X77204687Y-43423822D01*
X77205112Y-43421545D01*
X77205115Y-43421536D01*
X77225643Y-43200000D01*
X77216609Y-43102511D01*
X77205115Y-42978464D01*
X77205114Y-42978462D01*
X77203490Y-42972755D01*
X77144229Y-42764472D01*
X77129195Y-42734279D01*
X77045061Y-42565316D01*
X77045056Y-42565308D01*
X76910979Y-42387761D01*
X76746562Y-42237876D01*
X76746560Y-42237874D01*
X76557404Y-42120754D01*
X76557398Y-42120752D01*
X76349940Y-42040382D01*
X76131243Y-41999500D01*
X75908757Y-41999500D01*
X75864623Y-42007749D01*
X75800571Y-42019723D01*
X75731056Y-42012691D01*
X75690106Y-41985515D01*
X75316771Y-41612180D01*
X75283286Y-41550857D01*
X75288270Y-41481165D01*
X75330142Y-41425232D01*
X75395606Y-41400815D01*
X75404428Y-41400499D01*
X76847872Y-41400499D01*
X76907483Y-41394091D01*
X77042331Y-41343796D01*
X77157546Y-41257546D01*
X77243796Y-41142331D01*
X77294091Y-41007483D01*
X77300500Y-40947873D01*
X77300499Y-39252128D01*
X77294091Y-39192517D01*
X77259567Y-39099954D01*
X77243797Y-39057671D01*
X77243793Y-39057664D01*
X77157547Y-38942455D01*
X77157544Y-38942452D01*
X77042335Y-38856206D01*
X77042328Y-38856202D01*
X76907482Y-38805908D01*
X76907483Y-38805908D01*
X76872404Y-38802137D01*
X76807853Y-38775399D01*
X76768005Y-38718006D01*
X76765512Y-38648181D01*
X76801165Y-38588092D01*
X76814539Y-38577272D01*
X76839140Y-38560046D01*
X77000045Y-38399141D01*
X77000047Y-38399139D01*
X77130568Y-38212734D01*
X77226739Y-38006496D01*
X77285635Y-37786692D01*
X77305468Y-37560000D01*
X77285635Y-37333308D01*
X77226739Y-37113504D01*
X77130568Y-36907266D01*
X77000047Y-36720861D01*
X77000045Y-36720858D01*
X76839141Y-36559954D01*
X76652734Y-36429432D01*
X76652728Y-36429429D01*
X76594725Y-36402382D01*
X76542285Y-36356210D01*
X76523133Y-36289017D01*
X76543348Y-36222135D01*
X76594725Y-36177618D01*
X76652734Y-36150568D01*
X76839139Y-36020047D01*
X77000047Y-35859139D01*
X77130568Y-35672734D01*
X77226739Y-35466496D01*
X77285635Y-35246692D01*
X77305468Y-35020000D01*
X77303115Y-34993110D01*
X77292571Y-34872585D01*
X77285635Y-34793308D01*
X77238695Y-34618123D01*
X77226741Y-34573511D01*
X77226738Y-34573502D01*
X77130568Y-34367266D01*
X77000047Y-34180861D01*
X77000045Y-34180858D01*
X76839141Y-34019954D01*
X76652734Y-33889432D01*
X76652732Y-33889431D01*
X76594725Y-33862382D01*
X76594132Y-33862105D01*
X76541694Y-33815934D01*
X76522542Y-33748740D01*
X76542758Y-33681859D01*
X76594134Y-33637341D01*
X76652484Y-33610132D01*
X76838820Y-33479657D01*
X76999657Y-33318820D01*
X77130134Y-33132482D01*
X77226265Y-32926326D01*
X77226269Y-32926317D01*
X77278872Y-32730000D01*
X76315686Y-32730000D01*
X76327641Y-32718045D01*
X76385165Y-32605148D01*
X76404986Y-32480000D01*
X76385165Y-32354852D01*
X76327641Y-32241955D01*
X76315686Y-32230000D01*
X77278872Y-32230000D01*
X77278872Y-32229999D01*
X77226269Y-32033682D01*
X77226265Y-32033673D01*
X77130134Y-31827517D01*
X76999657Y-31641179D01*
X76838820Y-31480342D01*
X76652482Y-31349865D01*
X76446328Y-31253734D01*
X76250000Y-31201127D01*
X76250000Y-32164314D01*
X76238045Y-32152359D01*
X76125148Y-32094835D01*
X76031481Y-32080000D01*
X75968519Y-32080000D01*
X75874852Y-32094835D01*
X75761955Y-32152359D01*
X75750000Y-32164314D01*
X75750000Y-31201127D01*
X75553671Y-31253734D01*
X75347517Y-31349865D01*
X75161179Y-31480342D01*
X75000342Y-31641179D01*
X74869865Y-31827517D01*
X74773734Y-32033673D01*
X74773730Y-32033682D01*
X74721127Y-32229999D01*
X74721128Y-32230000D01*
X75684314Y-32230000D01*
X75672359Y-32241955D01*
X75614835Y-32354852D01*
X75595014Y-32480000D01*
X75614835Y-32605148D01*
X75672359Y-32718045D01*
X75684314Y-32730000D01*
X74721128Y-32730000D01*
X74773730Y-32926317D01*
X74773734Y-32926326D01*
X74869865Y-33132482D01*
X75000342Y-33318820D01*
X75161179Y-33479657D01*
X75347518Y-33610134D01*
X75347520Y-33610135D01*
X75405865Y-33637342D01*
X75458305Y-33683514D01*
X75477457Y-33750707D01*
X75457242Y-33817589D01*
X75405867Y-33862105D01*
X75347268Y-33889431D01*
X75347264Y-33889433D01*
X75160858Y-34019954D01*
X74999954Y-34180858D01*
X74869432Y-34367265D01*
X74869431Y-34367267D01*
X74773261Y-34573502D01*
X74773258Y-34573511D01*
X74714366Y-34793302D01*
X74714364Y-34793313D01*
X74694532Y-35019998D01*
X74694532Y-35020001D01*
X74714364Y-35246686D01*
X74714366Y-35246697D01*
X74773258Y-35466488D01*
X74773261Y-35466497D01*
X74869431Y-35672732D01*
X74869432Y-35672734D01*
X74999954Y-35859141D01*
X75160858Y-36020045D01*
X75160861Y-36020047D01*
X75347266Y-36150568D01*
X75405275Y-36177618D01*
X75457714Y-36223791D01*
X75476866Y-36290984D01*
X75456650Y-36357865D01*
X75405275Y-36402382D01*
X75347267Y-36429431D01*
X75347265Y-36429432D01*
X75160858Y-36559954D01*
X74999956Y-36720856D01*
X74886703Y-36882599D01*
X74832126Y-36926223D01*
X74800652Y-36934499D01*
X74793764Y-36935369D01*
X74787947Y-36935826D01*
X74741372Y-36937290D01*
X74741369Y-36937291D01*
X74722126Y-36942881D01*
X74703083Y-36946825D01*
X74683204Y-36949336D01*
X74683203Y-36949337D01*
X74639878Y-36966490D01*
X74634352Y-36968382D01*
X74589608Y-36981383D01*
X74589604Y-36981385D01*
X74572365Y-36991580D01*
X74554898Y-37000137D01*
X74536269Y-37007512D01*
X74536267Y-37007513D01*
X74498564Y-37034906D01*
X74493682Y-37038112D01*
X74453580Y-37061828D01*
X74439408Y-37076000D01*
X74424623Y-37088628D01*
X74408412Y-37100407D01*
X74378709Y-37136310D01*
X74374777Y-37140631D01*
X73616208Y-37899199D01*
X73603951Y-37909020D01*
X73604134Y-37909241D01*
X73598123Y-37914213D01*
X73550772Y-37964636D01*
X73529889Y-37985519D01*
X73529877Y-37985532D01*
X73525621Y-37991017D01*
X73521837Y-37995447D01*
X73489937Y-38029418D01*
X73489936Y-38029420D01*
X73480284Y-38046976D01*
X73469610Y-38063226D01*
X73457329Y-38079061D01*
X73457324Y-38079068D01*
X73438815Y-38121838D01*
X73436245Y-38127084D01*
X73413803Y-38167906D01*
X73408822Y-38187307D01*
X73402521Y-38205710D01*
X73394562Y-38224102D01*
X73394561Y-38224105D01*
X73387271Y-38270127D01*
X73386087Y-38275846D01*
X73374501Y-38320972D01*
X73374500Y-38320982D01*
X73374500Y-38341016D01*
X73372973Y-38360415D01*
X73369840Y-38380194D01*
X73369840Y-38380195D01*
X71225500Y-38380195D01*
X71225500Y-36382737D01*
X71227224Y-36367123D01*
X71226938Y-36367096D01*
X71227672Y-36359333D01*
X71225500Y-36290202D01*
X71225500Y-36260651D01*
X71225500Y-36260650D01*
X71224629Y-36253759D01*
X71224172Y-36247945D01*
X71222709Y-36201374D01*
X71222709Y-36201372D01*
X71217120Y-36182137D01*
X71213174Y-36163084D01*
X71210664Y-36143208D01*
X71193501Y-36099859D01*
X71191614Y-36094346D01*
X71178617Y-36049610D01*
X71178616Y-36049608D01*
X71168421Y-36032369D01*
X71159860Y-36014893D01*
X71158308Y-36010975D01*
X71152486Y-35996268D01*
X71152486Y-35996267D01*
X71142474Y-35982488D01*
X71125083Y-35958550D01*
X71121900Y-35953705D01*
X71098170Y-35913579D01*
X71098165Y-35913573D01*
X71084005Y-35899413D01*
X71071370Y-35884620D01*
X71059593Y-35868412D01*
X71023693Y-35838713D01*
X71019381Y-35834790D01*
X69820803Y-34636212D01*
X69810980Y-34623950D01*
X69810759Y-34624134D01*
X69805786Y-34618123D01*
X69755364Y-34570773D01*
X69744919Y-34560328D01*
X69734475Y-34549883D01*
X69728986Y-34545625D01*
X69724561Y-34541847D01*
X69690582Y-34509938D01*
X69690580Y-34509936D01*
X69690577Y-34509935D01*
X69673029Y-34500288D01*
X69656763Y-34489604D01*
X69640933Y-34477325D01*
X69598168Y-34458819D01*
X69592917Y-34456246D01*
X69573486Y-34445563D01*
X69524224Y-34396014D01*
X69520848Y-34389310D01*
X69510571Y-34367272D01*
X69510567Y-34367265D01*
X69464761Y-34301847D01*
X69380047Y-34180861D01*
X69380045Y-34180858D01*
X69219141Y-34019954D01*
X69032734Y-33889432D01*
X69032728Y-33889429D01*
X68974725Y-33862382D01*
X68922285Y-33816210D01*
X68903133Y-33749017D01*
X68923348Y-33682135D01*
X68974725Y-33637618D01*
X68975319Y-33637341D01*
X69032734Y-33610568D01*
X69219139Y-33480047D01*
X69380047Y-33319139D01*
X69510568Y-33132734D01*
X69606739Y-32926496D01*
X69665635Y-32706692D01*
X69685468Y-32480000D01*
X69665635Y-32253308D01*
X69606739Y-32033504D01*
X69510568Y-31827266D01*
X69380047Y-31640861D01*
X69380045Y-31640858D01*
X69219141Y-31479954D01*
X69032734Y-31349432D01*
X69032732Y-31349431D01*
X68826497Y-31253261D01*
X68826488Y-31253258D01*
X68606697Y-31194366D01*
X68606693Y-31194365D01*
X68606692Y-31194365D01*
X68606691Y-31194364D01*
X68606686Y-31194364D01*
X68380002Y-31174532D01*
X68379998Y-31174532D01*
X68153313Y-31194364D01*
X68153302Y-31194366D01*
X67933511Y-31253258D01*
X67933502Y-31253261D01*
X67727267Y-31349431D01*
X67727265Y-31349432D01*
X67540858Y-31479954D01*
X67379954Y-31640858D01*
X67249432Y-31827265D01*
X67249431Y-31827267D01*
X67153261Y-32033502D01*
X67153258Y-32033511D01*
X67094366Y-32253302D01*
X67094364Y-32253313D01*
X67074532Y-32479998D01*
X67074532Y-32480001D01*
X67094364Y-32706686D01*
X67094366Y-32706697D01*
X67153258Y-32926488D01*
X67153261Y-32926497D01*
X67249431Y-33132732D01*
X67249432Y-33132734D01*
X67379954Y-33319141D01*
X67540858Y-33480045D01*
X67540861Y-33480047D01*
X67727266Y-33610568D01*
X67784681Y-33637341D01*
X67785275Y-33637618D01*
X67837714Y-33683791D01*
X67856866Y-33750984D01*
X67836650Y-33817865D01*
X67785275Y-33862382D01*
X67727267Y-33889431D01*
X67727265Y-33889432D01*
X67540858Y-34019954D01*
X67379954Y-34180858D01*
X67249432Y-34367265D01*
X67249431Y-34367267D01*
X67153261Y-34573502D01*
X67153258Y-34573511D01*
X67094366Y-34793302D01*
X67094364Y-34793313D01*
X67074532Y-35019998D01*
X67074532Y-35020001D01*
X67094364Y-35246686D01*
X67094366Y-35246697D01*
X67153258Y-35466488D01*
X67153261Y-35466497D01*
X67249431Y-35672732D01*
X67249432Y-35672734D01*
X67379954Y-35859141D01*
X67540858Y-36020045D01*
X67540861Y-36020047D01*
X67727266Y-36150568D01*
X67785275Y-36177618D01*
X67837714Y-36223791D01*
X67856866Y-36290984D01*
X67836650Y-36357865D01*
X67785275Y-36402382D01*
X67727267Y-36429431D01*
X67727265Y-36429432D01*
X67540858Y-36559954D01*
X67379954Y-36720858D01*
X67249432Y-36907265D01*
X67249431Y-36907267D01*
X67153261Y-37113502D01*
X67153258Y-37113511D01*
X67094366Y-37333302D01*
X67094364Y-37333313D01*
X67074532Y-37559998D01*
X67074532Y-37560000D01*
X67094364Y-37786686D01*
X67094365Y-37786691D01*
X67094366Y-37786697D01*
X67112680Y-37855048D01*
X67111017Y-37924897D01*
X67080586Y-37974821D01*
X65187680Y-39867727D01*
X65126357Y-39901212D01*
X65056665Y-39896228D01*
X65012318Y-39867727D01*
X64180803Y-39036212D01*
X64170980Y-39023950D01*
X64170759Y-39024134D01*
X64165786Y-39018123D01*
X64147159Y-39000631D01*
X64115364Y-38970773D01*
X64104919Y-38960328D01*
X64094475Y-38949883D01*
X64088986Y-38945625D01*
X64084561Y-38941847D01*
X64050582Y-38909938D01*
X64050580Y-38909936D01*
X64050577Y-38909935D01*
X64033029Y-38900288D01*
X64016763Y-38889604D01*
X64000933Y-38877325D01*
X63958168Y-38858818D01*
X63952922Y-38856248D01*
X63912093Y-38833803D01*
X63912092Y-38833802D01*
X63892693Y-38828822D01*
X63874281Y-38822518D01*
X63855898Y-38814562D01*
X63855892Y-38814560D01*
X63809874Y-38807272D01*
X63804152Y-38806087D01*
X63759021Y-38794500D01*
X63759019Y-38794500D01*
X63738984Y-38794500D01*
X63719586Y-38792973D01*
X63712162Y-38791797D01*
X63699805Y-38789840D01*
X63699804Y-38789840D01*
X63653416Y-38794225D01*
X63647578Y-38794500D01*
X63293742Y-38794500D01*
X63226703Y-38774815D01*
X63194788Y-38745227D01*
X63090979Y-38607761D01*
X62926562Y-38457876D01*
X62926560Y-38457874D01*
X62737404Y-38340754D01*
X62737398Y-38340752D01*
X62529940Y-38260382D01*
X62311243Y-38219500D01*
X62088757Y-38219500D01*
X61870060Y-38260382D01*
X61738864Y-38311207D01*
X61662601Y-38340752D01*
X61662595Y-38340754D01*
X61473439Y-38457874D01*
X61473437Y-38457876D01*
X61309020Y-38607761D01*
X61205212Y-38745227D01*
X61149103Y-38786863D01*
X61106258Y-38794500D01*
X60662737Y-38794500D01*
X60647120Y-38792776D01*
X60647093Y-38793062D01*
X60639331Y-38792327D01*
X60570203Y-38794500D01*
X60540650Y-38794500D01*
X60539929Y-38794590D01*
X60533757Y-38795369D01*
X60527945Y-38795826D01*
X60481372Y-38797290D01*
X60481369Y-38797291D01*
X60462126Y-38802881D01*
X60443083Y-38806825D01*
X60423204Y-38809336D01*
X60423203Y-38809337D01*
X60379878Y-38826490D01*
X60374352Y-38828382D01*
X60329608Y-38841383D01*
X60329604Y-38841385D01*
X60312365Y-38851580D01*
X60294898Y-38860137D01*
X60276269Y-38867512D01*
X60276267Y-38867513D01*
X60238564Y-38894906D01*
X60233682Y-38898112D01*
X60193580Y-38921828D01*
X60179408Y-38936000D01*
X60164623Y-38948628D01*
X60148412Y-38960407D01*
X60118709Y-38996310D01*
X60114777Y-39000631D01*
X58616208Y-40499199D01*
X58603951Y-40509020D01*
X58604134Y-40509241D01*
X58598123Y-40514213D01*
X58550772Y-40564636D01*
X58529889Y-40585519D01*
X58529877Y-40585532D01*
X58525621Y-40591017D01*
X58521837Y-40595447D01*
X58489937Y-40629418D01*
X58489936Y-40629420D01*
X58480284Y-40646976D01*
X58469610Y-40663226D01*
X58457329Y-40679061D01*
X58457324Y-40679068D01*
X58438815Y-40721838D01*
X58436245Y-40727084D01*
X58413803Y-40767906D01*
X58408822Y-40787307D01*
X58402521Y-40805710D01*
X58394562Y-40824102D01*
X58394561Y-40824105D01*
X58387271Y-40870127D01*
X58386087Y-40875846D01*
X58374501Y-40920972D01*
X58374500Y-40920982D01*
X58374500Y-40941016D01*
X58372973Y-40960415D01*
X58371375Y-40970507D01*
X58369840Y-40980196D01*
X58373584Y-41019804D01*
X58374225Y-41026583D01*
X58374500Y-41032421D01*
X58374500Y-46189546D01*
X58354815Y-46256585D01*
X58338181Y-46277227D01*
X57092450Y-47522957D01*
X57031127Y-47556442D01*
X56961435Y-47551458D01*
X56905502Y-47509586D01*
X56881085Y-47444122D01*
X56882762Y-47413132D01*
X56887500Y-47387027D01*
X56887500Y-46750000D01*
X56130000Y-46750000D01*
X56130000Y-46250000D01*
X56887500Y-46250000D01*
X56887500Y-45670363D01*
X56887499Y-45670359D01*
X56872111Y-45499366D01*
X56811178Y-45278579D01*
X56811173Y-45278568D01*
X56711792Y-45072200D01*
X56711790Y-45072196D01*
X56577160Y-44886894D01*
X56577153Y-44886886D01*
X56411598Y-44728599D01*
X56220438Y-44602414D01*
X56009811Y-44512389D01*
X56009805Y-44512387D01*
X55865000Y-44479336D01*
X55865000Y-45491090D01*
X55854161Y-45483440D01*
X55720765Y-45436031D01*
X55579525Y-45426370D01*
X55440916Y-45455173D01*
X55365000Y-45494509D01*
X55365000Y-44477243D01*
X55330694Y-44481890D01*
X55112852Y-44552672D01*
X54911152Y-44661211D01*
X54911149Y-44661213D01*
X54732071Y-44804023D01*
X54581365Y-44976519D01*
X54581364Y-44976521D01*
X54463881Y-45173152D01*
X54383399Y-45387600D01*
X54342500Y-45612970D01*
X54342500Y-45945180D01*
X54322815Y-46012219D01*
X54270011Y-46057974D01*
X54200853Y-46067918D01*
X54137297Y-46038893D01*
X54109142Y-46003633D01*
X54075913Y-45941467D01*
X54075909Y-45941460D01*
X53950883Y-45789116D01*
X53798539Y-45664090D01*
X53798532Y-45664086D01*
X53624733Y-45571188D01*
X53624727Y-45571186D01*
X53456996Y-45520305D01*
X53436129Y-45513975D01*
X53240000Y-45494659D01*
X53043870Y-45513975D01*
X52855266Y-45571188D01*
X52681467Y-45664086D01*
X52676399Y-45667473D01*
X52675305Y-45665836D01*
X52619337Y-45689596D01*
X52550471Y-45677795D01*
X52533843Y-45667109D01*
X52533601Y-45667473D01*
X52528532Y-45664086D01*
X52354733Y-45571188D01*
X52354727Y-45571186D01*
X52186996Y-45520305D01*
X52166129Y-45513975D01*
X51970000Y-45494659D01*
X51773870Y-45513975D01*
X51585266Y-45571188D01*
X51411467Y-45664086D01*
X51406399Y-45667473D01*
X51405305Y-45665836D01*
X51349337Y-45689596D01*
X51280471Y-45677795D01*
X51263843Y-45667109D01*
X51263601Y-45667473D01*
X51258532Y-45664086D01*
X51084733Y-45571188D01*
X51084727Y-45571186D01*
X50916996Y-45520305D01*
X50896129Y-45513975D01*
X50700000Y-45494659D01*
X50503870Y-45513975D01*
X50315266Y-45571188D01*
X50141467Y-45664086D01*
X50136399Y-45667473D01*
X50135305Y-45665836D01*
X50079337Y-45689596D01*
X50010471Y-45677795D01*
X49993843Y-45667109D01*
X49993601Y-45667473D01*
X49988532Y-45664086D01*
X49814733Y-45571188D01*
X49814727Y-45571186D01*
X49646996Y-45520305D01*
X49626129Y-45513975D01*
X49430000Y-45494659D01*
X49233870Y-45513975D01*
X49045266Y-45571188D01*
X48871467Y-45664086D01*
X48866399Y-45667473D01*
X48865305Y-45665836D01*
X48809337Y-45689596D01*
X48740471Y-45677795D01*
X48723843Y-45667109D01*
X48723601Y-45667473D01*
X48718532Y-45664086D01*
X48544733Y-45571188D01*
X48544727Y-45571186D01*
X48376996Y-45520305D01*
X48356129Y-45513975D01*
X48160000Y-45494659D01*
X47963870Y-45513975D01*
X47775266Y-45571188D01*
X47601467Y-45664086D01*
X47596399Y-45667473D01*
X47595305Y-45665836D01*
X47539337Y-45689596D01*
X47470471Y-45677795D01*
X47453843Y-45667109D01*
X47453601Y-45667473D01*
X47448532Y-45664086D01*
X47274733Y-45571188D01*
X47274727Y-45571186D01*
X47106996Y-45520305D01*
X47086129Y-45513975D01*
X46890000Y-45494659D01*
X46693870Y-45513975D01*
X46505266Y-45571188D01*
X46331467Y-45664086D01*
X46326399Y-45667473D01*
X46325305Y-45665836D01*
X46269337Y-45689596D01*
X46200471Y-45677795D01*
X46183843Y-45667109D01*
X46183601Y-45667473D01*
X46178532Y-45664086D01*
X46004733Y-45571188D01*
X46004727Y-45571186D01*
X45836996Y-45520305D01*
X45816129Y-45513975D01*
X45620000Y-45494659D01*
X45423870Y-45513975D01*
X45235266Y-45571188D01*
X45061467Y-45664086D01*
X45061460Y-45664090D01*
X44909116Y-45789116D01*
X44784090Y-45941460D01*
X44784086Y-45941467D01*
X44691188Y-46115266D01*
X44633975Y-46303870D01*
X44614659Y-46500000D01*
X44633975Y-46696129D01*
X44642172Y-46723152D01*
X44689144Y-46877997D01*
X44691188Y-46884733D01*
X44784086Y-47058532D01*
X44784090Y-47058539D01*
X44909116Y-47210883D01*
X45061460Y-47335909D01*
X45061467Y-47335913D01*
X45235266Y-47428811D01*
X45235269Y-47428811D01*
X45235273Y-47428814D01*
X45423868Y-47486024D01*
X45620000Y-47505341D01*
X45816132Y-47486024D01*
X46004727Y-47428814D01*
X46178538Y-47335910D01*
X46178544Y-47335904D01*
X46183607Y-47332523D01*
X46184703Y-47334164D01*
X46240639Y-47310405D01*
X46309507Y-47322194D01*
X46326148Y-47332888D01*
X46326393Y-47332523D01*
X46331458Y-47335907D01*
X46331462Y-47335910D01*
X46505273Y-47428814D01*
X46693868Y-47486024D01*
X46890000Y-47505341D01*
X47086132Y-47486024D01*
X47274727Y-47428814D01*
X47448538Y-47335910D01*
X47448544Y-47335904D01*
X47453607Y-47332523D01*
X47454703Y-47334164D01*
X47510639Y-47310405D01*
X47579507Y-47322194D01*
X47596148Y-47332888D01*
X47596393Y-47332523D01*
X47601458Y-47335907D01*
X47601462Y-47335910D01*
X47775273Y-47428814D01*
X47963868Y-47486024D01*
X48160000Y-47505341D01*
X48356132Y-47486024D01*
X48544727Y-47428814D01*
X48718538Y-47335910D01*
X48718544Y-47335904D01*
X48723607Y-47332523D01*
X48724703Y-47334164D01*
X48780639Y-47310405D01*
X48849507Y-47322194D01*
X48866148Y-47332888D01*
X48866393Y-47332523D01*
X48871458Y-47335907D01*
X48871462Y-47335910D01*
X49045273Y-47428814D01*
X49233868Y-47486024D01*
X49430000Y-47505341D01*
X49626132Y-47486024D01*
X49814727Y-47428814D01*
X49988538Y-47335910D01*
X49988544Y-47335904D01*
X49993607Y-47332523D01*
X49994703Y-47334164D01*
X50050639Y-47310405D01*
X50119507Y-47322194D01*
X50136148Y-47332888D01*
X50136393Y-47332523D01*
X50141458Y-47335907D01*
X50141462Y-47335910D01*
X50315273Y-47428814D01*
X50503868Y-47486024D01*
X50700000Y-47505341D01*
X50896132Y-47486024D01*
X51084727Y-47428814D01*
X51258538Y-47335910D01*
X51258544Y-47335904D01*
X51263607Y-47332523D01*
X51264703Y-47334164D01*
X51320639Y-47310405D01*
X51389507Y-47322194D01*
X51406148Y-47332888D01*
X51406393Y-47332523D01*
X51411458Y-47335907D01*
X51411462Y-47335910D01*
X51585273Y-47428814D01*
X51773868Y-47486024D01*
X51970000Y-47505341D01*
X52166132Y-47486024D01*
X52354727Y-47428814D01*
X52528538Y-47335910D01*
X52528544Y-47335904D01*
X52533607Y-47332523D01*
X52534703Y-47334164D01*
X52590639Y-47310405D01*
X52659507Y-47322194D01*
X52676148Y-47332888D01*
X52676393Y-47332523D01*
X52681458Y-47335907D01*
X52681462Y-47335910D01*
X52855273Y-47428814D01*
X53043868Y-47486024D01*
X53240000Y-47505341D01*
X53436132Y-47486024D01*
X53624727Y-47428814D01*
X53798538Y-47335910D01*
X53950883Y-47210883D01*
X54075910Y-47058538D01*
X54109141Y-46996366D01*
X54158103Y-46946522D01*
X54226241Y-46931061D01*
X54291921Y-46954892D01*
X54334290Y-47010450D01*
X54342500Y-47054819D01*
X54342500Y-47329640D01*
X54357888Y-47500633D01*
X54418821Y-47721420D01*
X54418826Y-47721430D01*
X54455073Y-47796698D01*
X54466425Y-47865639D01*
X54438703Y-47929774D01*
X54380708Y-47968740D01*
X54343353Y-47974500D01*
X44319686Y-47974500D01*
X44252647Y-47954815D01*
X44206892Y-47902011D01*
X44196948Y-47832853D01*
X44203593Y-47806930D01*
X44276600Y-47612399D01*
X44317500Y-47387029D01*
X44317500Y-46750000D01*
X43560000Y-46750000D01*
X43560000Y-46250000D01*
X44317500Y-46250000D01*
X44317500Y-45670363D01*
X44317499Y-45670359D01*
X44302111Y-45499366D01*
X44241178Y-45278579D01*
X44241173Y-45278568D01*
X44141792Y-45072200D01*
X44141790Y-45072196D01*
X44007160Y-44886894D01*
X44007153Y-44886886D01*
X43841598Y-44728599D01*
X43650438Y-44602414D01*
X43439811Y-44512389D01*
X43439805Y-44512387D01*
X43295000Y-44479336D01*
X43295000Y-45491090D01*
X43284161Y-45483440D01*
X43150765Y-45436031D01*
X43009525Y-45426370D01*
X42870916Y-45455173D01*
X42795000Y-45494509D01*
X42795000Y-44477243D01*
X42760694Y-44481890D01*
X42542852Y-44552672D01*
X42341152Y-44661211D01*
X42341149Y-44661213D01*
X42162071Y-44804023D01*
X42011365Y-44976519D01*
X42011364Y-44976521D01*
X41893881Y-45173152D01*
X41813399Y-45387600D01*
X41772500Y-45612970D01*
X41772500Y-46250000D01*
X42530000Y-46250000D01*
X42530000Y-46750000D01*
X41772500Y-46750000D01*
X41772500Y-47329640D01*
X41787888Y-47500633D01*
X41848821Y-47721420D01*
X41848826Y-47721430D01*
X41885073Y-47796698D01*
X41896425Y-47865639D01*
X41868703Y-47929774D01*
X41810708Y-47968740D01*
X41773353Y-47974500D01*
X41680453Y-47974500D01*
X41613414Y-47954815D01*
X41592772Y-47938181D01*
X40305984Y-46651393D01*
X40272499Y-46590070D01*
X40270262Y-46551562D01*
X40275341Y-46500000D01*
X40273899Y-46485369D01*
X40273462Y-46466937D01*
X40274369Y-46449064D01*
X40263291Y-46376754D01*
X40262878Y-46373464D01*
X40261417Y-46358627D01*
X40256024Y-46303868D01*
X40250713Y-46286361D01*
X40246809Y-46269167D01*
X40243556Y-46247929D01*
X40219320Y-46182494D01*
X40218135Y-46178969D01*
X40217615Y-46177255D01*
X40198814Y-46115273D01*
X40186518Y-46092270D01*
X40183055Y-46084572D01*
X40176887Y-46067918D01*
X40172886Y-46057113D01*
X40137756Y-46000751D01*
X40135702Y-45997199D01*
X40118313Y-45964666D01*
X40105911Y-45941463D01*
X40105909Y-45941460D01*
X40087225Y-45918694D01*
X40082534Y-45912156D01*
X40065252Y-45884429D01*
X40021802Y-45838720D01*
X40018840Y-45835368D01*
X39980883Y-45789117D01*
X39980881Y-45789115D01*
X39980880Y-45789114D01*
X39955500Y-45768285D01*
X39949894Y-45763073D01*
X39925059Y-45736947D01*
X39876088Y-45702861D01*
X39872184Y-45699909D01*
X39828538Y-45664090D01*
X39828535Y-45664088D01*
X39828531Y-45664085D01*
X39796602Y-45647019D01*
X39790406Y-45643225D01*
X39758051Y-45620706D01*
X39706328Y-45598509D01*
X39701552Y-45596213D01*
X39654727Y-45571186D01*
X39654721Y-45571183D01*
X39616841Y-45559692D01*
X39610388Y-45557337D01*
X39571061Y-45540461D01*
X39571059Y-45540460D01*
X39571058Y-45540460D01*
X39519218Y-45529806D01*
X39513708Y-45528407D01*
X39466139Y-45513977D01*
X39466128Y-45513975D01*
X39423368Y-45509763D01*
X39416962Y-45508792D01*
X39371743Y-45499500D01*
X39371741Y-45499500D01*
X39322200Y-45499500D01*
X39316119Y-45499201D01*
X39270000Y-45494659D01*
X39223881Y-45499201D01*
X39217800Y-45499500D01*
X38052200Y-45499500D01*
X38046119Y-45499201D01*
X38000000Y-45494659D01*
X37953881Y-45499201D01*
X37947800Y-45499500D01*
X36782200Y-45499500D01*
X36776119Y-45499201D01*
X36730000Y-45494659D01*
X36684001Y-45499189D01*
X36681062Y-45499408D01*
X36679260Y-45499499D01*
X36630336Y-45504474D01*
X36533860Y-45513976D01*
X36533558Y-45514037D01*
X36527767Y-45514904D01*
X36527576Y-45514923D01*
X36527551Y-45514928D01*
X36435007Y-45543965D01*
X36345271Y-45571185D01*
X36338515Y-45573984D01*
X36333460Y-45575820D01*
X36333413Y-45575840D01*
X36251351Y-45621387D01*
X36171461Y-45664090D01*
X36166402Y-45667471D01*
X36166269Y-45667271D01*
X36155530Y-45674572D01*
X36154704Y-45675031D01*
X36086543Y-45690388D01*
X36023617Y-45667447D01*
X36023322Y-45667890D01*
X36021508Y-45666678D01*
X36020899Y-45666456D01*
X36019214Y-45665145D01*
X36018253Y-45664503D01*
X35844539Y-45571651D01*
X35656030Y-45514468D01*
X35656034Y-45514468D01*
X35460000Y-45495161D01*
X35263969Y-45514468D01*
X35075461Y-45571652D01*
X34951475Y-45637922D01*
X34698522Y-45637922D01*
X34698522Y-45637921D01*
X34574538Y-45571652D01*
X34386030Y-45514468D01*
X34190000Y-45495161D01*
X33993969Y-45514468D01*
X33805461Y-45571652D01*
X33681475Y-45637922D01*
X33428522Y-45637922D01*
X33428522Y-45637921D01*
X33304538Y-45571652D01*
X33116030Y-45514468D01*
X32920000Y-45495161D01*
X32723967Y-45514468D01*
X32535460Y-45571651D01*
X32361742Y-45664505D01*
X32356673Y-45667893D01*
X32355556Y-45666221D01*
X32299715Y-45689921D01*
X32230851Y-45678111D01*
X32213811Y-45667158D01*
X32213601Y-45667473D01*
X32208532Y-45664086D01*
X32034733Y-45571188D01*
X32034727Y-45571186D01*
X31866996Y-45520305D01*
X31846129Y-45513975D01*
X31650000Y-45494659D01*
X31453870Y-45513975D01*
X31265266Y-45571188D01*
X31091467Y-45664086D01*
X31086399Y-45667473D01*
X31085305Y-45665836D01*
X31029337Y-45689596D01*
X30960471Y-45677795D01*
X30943843Y-45667109D01*
X30943601Y-45667473D01*
X30938532Y-45664086D01*
X30764733Y-45571188D01*
X30764727Y-45571186D01*
X30596996Y-45520305D01*
X30576129Y-45513975D01*
X30380000Y-45494659D01*
X30183870Y-45513975D01*
X29995266Y-45571188D01*
X29821467Y-45664086D01*
X29816399Y-45667473D01*
X29815305Y-45665836D01*
X29759337Y-45689596D01*
X29690471Y-45677795D01*
X29673843Y-45667109D01*
X29673601Y-45667473D01*
X29668532Y-45664086D01*
X29494733Y-45571188D01*
X29494727Y-45571186D01*
X29326996Y-45520305D01*
X29306129Y-45513975D01*
X29110000Y-45494659D01*
X28913870Y-45513975D01*
X28725266Y-45571188D01*
X28551467Y-45664086D01*
X28546399Y-45667473D01*
X28545386Y-45665958D01*
X28488936Y-45689920D01*
X28420071Y-45678115D01*
X28403574Y-45667511D01*
X28403322Y-45667890D01*
X28398253Y-45664503D01*
X28224539Y-45571651D01*
X28036030Y-45514468D01*
X28036034Y-45514468D01*
X27840000Y-45495161D01*
X27643969Y-45514468D01*
X27455461Y-45571652D01*
X27331475Y-45637922D01*
X27078522Y-45637922D01*
X27078522Y-45637921D01*
X26954538Y-45571652D01*
X26766030Y-45514468D01*
X26570000Y-45495161D01*
X26373969Y-45514468D01*
X26185461Y-45571652D01*
X26061475Y-45637922D01*
X25808522Y-45637922D01*
X25808522Y-45637921D01*
X25684538Y-45571652D01*
X25496030Y-45514468D01*
X25300000Y-45495161D01*
X25103967Y-45514468D01*
X24915460Y-45571651D01*
X24741742Y-45664505D01*
X24736673Y-45667893D01*
X24735556Y-45666221D01*
X24679715Y-45689921D01*
X24610851Y-45678111D01*
X24593811Y-45667158D01*
X24593601Y-45667473D01*
X24588532Y-45664086D01*
X24414733Y-45571188D01*
X24414727Y-45571186D01*
X24246996Y-45520305D01*
X24226129Y-45513975D01*
X24030000Y-45494659D01*
X23833870Y-45513975D01*
X23645266Y-45571188D01*
X23471467Y-45664086D01*
X23466399Y-45667473D01*
X23465305Y-45665836D01*
X23409337Y-45689596D01*
X23340471Y-45677795D01*
X23323843Y-45667109D01*
X23323601Y-45667473D01*
X23318532Y-45664086D01*
X23144733Y-45571188D01*
X23144727Y-45571186D01*
X22976996Y-45520305D01*
X22956129Y-45513975D01*
X22760000Y-45494659D01*
X22563870Y-45513975D01*
X22375266Y-45571188D01*
X22201467Y-45664086D01*
X22196399Y-45667473D01*
X22195305Y-45665836D01*
X22139337Y-45689596D01*
X22070471Y-45677795D01*
X22053843Y-45667109D01*
X22053601Y-45667473D01*
X22048532Y-45664086D01*
X21874733Y-45571188D01*
X21874727Y-45571186D01*
X21706996Y-45520305D01*
X21686129Y-45513975D01*
X21490000Y-45494659D01*
X21293870Y-45513975D01*
X21105266Y-45571188D01*
X20931467Y-45664086D01*
X20931460Y-45664090D01*
X20779116Y-45789116D01*
X20654090Y-45941460D01*
X20654086Y-45941467D01*
X20561188Y-46115266D01*
X20503975Y-46303870D01*
X20484659Y-46500000D01*
X18030000Y-46500000D01*
X18030000Y-46250000D01*
X18787500Y-46250000D01*
X18787500Y-45670363D01*
X18787499Y-45670359D01*
X18772111Y-45499366D01*
X18711178Y-45278579D01*
X18711173Y-45278568D01*
X18611792Y-45072200D01*
X18611790Y-45072196D01*
X18477160Y-44886894D01*
X18477153Y-44886886D01*
X18311598Y-44728599D01*
X18120438Y-44602414D01*
X17909811Y-44512389D01*
X17909805Y-44512387D01*
X17765000Y-44479336D01*
X17765000Y-45491090D01*
X17754161Y-45483440D01*
X17620765Y-45436031D01*
X17479525Y-45426370D01*
X17340916Y-45455173D01*
X17265000Y-45494509D01*
X17265000Y-44477243D01*
X17230694Y-44481890D01*
X17012852Y-44552672D01*
X16811152Y-44661211D01*
X16811149Y-44661213D01*
X16632071Y-44804023D01*
X16481365Y-44976519D01*
X16481364Y-44976521D01*
X16363881Y-45173152D01*
X16283399Y-45387600D01*
X16242500Y-45612970D01*
X16242500Y-46250000D01*
X17000000Y-46250000D01*
X17000000Y-46750000D01*
X16242500Y-46750000D01*
X16242500Y-47329640D01*
X15000500Y-47329640D01*
X15000500Y-33804640D01*
X17382500Y-33804640D01*
X17397888Y-33975633D01*
X17458821Y-34196420D01*
X17458826Y-34196431D01*
X17558207Y-34402799D01*
X17558209Y-34402803D01*
X17692839Y-34588105D01*
X17692846Y-34588113D01*
X17858401Y-34746400D01*
X18049561Y-34872585D01*
X18260190Y-34962611D01*
X18260193Y-34962612D01*
X18404999Y-34995663D01*
X18405000Y-34995663D01*
X18405000Y-33983909D01*
X18415839Y-33991560D01*
X18549235Y-34038969D01*
X18690475Y-34048630D01*
X18829084Y-34019827D01*
X18905000Y-33980490D01*
X18905000Y-34997755D01*
X18939296Y-34993111D01*
X18939300Y-34993110D01*
X19157147Y-34922327D01*
X19358847Y-34813788D01*
X19358850Y-34813786D01*
X19537928Y-34670976D01*
X19688634Y-34498480D01*
X19688635Y-34498478D01*
X19806118Y-34301847D01*
X19886600Y-34087399D01*
X19927500Y-33862029D01*
X19927500Y-33149130D01*
X19947185Y-33082091D01*
X19999989Y-33036336D01*
X20069147Y-33026392D01*
X20130166Y-33053278D01*
X20175173Y-33090215D01*
X20175181Y-33090220D01*
X20360276Y-33189155D01*
X20360278Y-33189156D01*
X20561126Y-33250083D01*
X20717660Y-33265500D01*
X20717663Y-33265500D01*
X20822337Y-33265500D01*
X20822340Y-33265500D01*
X20978874Y-33250083D01*
X21179722Y-33189156D01*
X21364824Y-33090217D01*
X21527067Y-32957067D01*
X21660217Y-32794824D01*
X21759156Y-32609722D01*
X21820083Y-32408874D01*
X21840655Y-32200000D01*
X52889345Y-32200000D01*
X52909917Y-32408876D01*
X52970844Y-32609723D01*
X53069779Y-32794818D01*
X53069783Y-32794825D01*
X53202932Y-32957067D01*
X53365174Y-33090216D01*
X53365181Y-33090220D01*
X53550276Y-33189155D01*
X53550278Y-33189156D01*
X53751126Y-33250083D01*
X53907660Y-33265500D01*
X53907663Y-33265500D01*
X54012337Y-33265500D01*
X54012340Y-33265500D01*
X54168874Y-33250083D01*
X54369722Y-33189156D01*
X54554824Y-33090217D01*
X54599834Y-33053277D01*
X54664144Y-33025964D01*
X54733012Y-33037755D01*
X54784572Y-33084906D01*
X54802500Y-33149130D01*
X54802500Y-33804640D01*
X54817888Y-33975633D01*
X54878821Y-34196420D01*
X54878826Y-34196431D01*
X54978207Y-34402799D01*
X54978209Y-34402803D01*
X55112839Y-34588105D01*
X55112846Y-34588113D01*
X55278401Y-34746400D01*
X55469561Y-34872585D01*
X55680190Y-34962611D01*
X55680193Y-34962612D01*
X55824999Y-34995663D01*
X55825000Y-34995663D01*
X55825000Y-33983909D01*
X55835839Y-33991560D01*
X55969235Y-34038969D01*
X56110475Y-34048630D01*
X56249084Y-34019827D01*
X56325000Y-33980490D01*
X56325000Y-34997755D01*
X56359296Y-34993111D01*
X56359300Y-34993110D01*
X56577147Y-34922327D01*
X56778847Y-34813788D01*
X56778850Y-34813786D01*
X56957928Y-34670976D01*
X57108634Y-34498480D01*
X57108635Y-34498478D01*
X57226118Y-34301847D01*
X57306600Y-34087399D01*
X57347500Y-33862029D01*
X57347500Y-33225000D01*
X56590000Y-33225000D01*
X56590000Y-32725000D01*
X57347500Y-32725000D01*
X57347500Y-32145363D01*
X57347499Y-32145359D01*
X57332111Y-31974366D01*
X57283989Y-31800000D01*
X60994357Y-31800000D01*
X61014884Y-32021535D01*
X61014885Y-32021537D01*
X61075769Y-32235523D01*
X61075775Y-32235538D01*
X61174938Y-32434683D01*
X61174943Y-32434691D01*
X61309020Y-32612238D01*
X61473437Y-32762123D01*
X61473439Y-32762125D01*
X61662595Y-32879245D01*
X61662596Y-32879245D01*
X61662599Y-32879247D01*
X61870060Y-32959618D01*
X62088757Y-33000500D01*
X62088759Y-33000500D01*
X62311241Y-33000500D01*
X62311243Y-33000500D01*
X62529940Y-32959618D01*
X62737401Y-32879247D01*
X62926562Y-32762124D01*
X63090981Y-32612236D01*
X63225058Y-32434689D01*
X63324229Y-32235528D01*
X63385115Y-32021536D01*
X63405643Y-31800000D01*
X63385115Y-31578464D01*
X63324229Y-31364472D01*
X63324224Y-31364461D01*
X63225061Y-31165316D01*
X63225056Y-31165308D01*
X63090979Y-30987761D01*
X62926562Y-30837876D01*
X62926560Y-30837874D01*
X62737404Y-30720754D01*
X62737398Y-30720752D01*
X62529940Y-30640382D01*
X62311243Y-30599500D01*
X62088757Y-30599500D01*
X61870060Y-30640382D01*
X61738864Y-30691207D01*
X61662601Y-30720752D01*
X61662595Y-30720754D01*
X61473439Y-30837874D01*
X61473437Y-30837876D01*
X61309020Y-30987761D01*
X61174943Y-31165308D01*
X61174938Y-31165316D01*
X61075775Y-31364461D01*
X61075769Y-31364476D01*
X61014885Y-31578462D01*
X61014884Y-31578464D01*
X60994357Y-31799999D01*
X60994357Y-31800000D01*
X57283989Y-31800000D01*
X57271178Y-31753579D01*
X57271173Y-31753568D01*
X57171792Y-31547200D01*
X57171790Y-31547196D01*
X57037160Y-31361894D01*
X57037153Y-31361886D01*
X56871598Y-31203599D01*
X56680438Y-31077414D01*
X56469811Y-30987389D01*
X56469805Y-30987387D01*
X56325000Y-30954336D01*
X56325000Y-31966090D01*
X56314161Y-31958440D01*
X56180765Y-31911031D01*
X56039525Y-31901370D01*
X55900916Y-31930173D01*
X55825000Y-31969509D01*
X55825000Y-30952243D01*
X55790694Y-30956890D01*
X55572852Y-31027672D01*
X55371152Y-31136211D01*
X55371149Y-31136213D01*
X55192071Y-31279023D01*
X55041366Y-31451518D01*
X54998144Y-31523858D01*
X54946860Y-31571311D01*
X54878063Y-31583505D01*
X54813594Y-31556569D01*
X54795844Y-31538922D01*
X54717067Y-31442932D01*
X54554825Y-31309783D01*
X54554818Y-31309779D01*
X54369723Y-31210844D01*
X54168876Y-31149917D01*
X54106260Y-31143750D01*
X54012340Y-31134500D01*
X53907660Y-31134500D01*
X53829393Y-31142208D01*
X53751123Y-31149917D01*
X53550276Y-31210844D01*
X53365181Y-31309779D01*
X53365174Y-31309783D01*
X53202932Y-31442932D01*
X53069783Y-31605174D01*
X53069779Y-31605181D01*
X52970844Y-31790276D01*
X52909917Y-31991123D01*
X52889345Y-32200000D01*
X21840655Y-32200000D01*
X21820083Y-31991126D01*
X21759156Y-31790278D01*
X21679291Y-31640861D01*
X21660220Y-31605181D01*
X21660216Y-31605174D01*
X21527067Y-31442932D01*
X21364825Y-31309783D01*
X21364818Y-31309779D01*
X21179723Y-31210844D01*
X20978876Y-31149917D01*
X20916260Y-31143750D01*
X20822340Y-31134500D01*
X20717660Y-31134500D01*
X20639393Y-31142208D01*
X20561123Y-31149917D01*
X20360276Y-31210844D01*
X20175181Y-31309779D01*
X20175174Y-31309783D01*
X20012932Y-31442932D01*
X19936062Y-31536599D01*
X19878316Y-31575933D01*
X19808471Y-31577804D01*
X19748703Y-31541616D01*
X19739891Y-31530819D01*
X19617160Y-31361894D01*
X19617153Y-31361886D01*
X19451598Y-31203599D01*
X19260438Y-31077414D01*
X19049811Y-30987389D01*
X19049805Y-30987387D01*
X18905000Y-30954336D01*
X18905000Y-31966090D01*
X18894161Y-31958440D01*
X18760765Y-31911031D01*
X18619525Y-31901370D01*
X18480916Y-31930173D01*
X18405000Y-31969509D01*
X18405000Y-30952243D01*
X18370694Y-30956890D01*
X18152852Y-31027672D01*
X17951152Y-31136211D01*
X17951149Y-31136213D01*
X17772071Y-31279023D01*
X17621365Y-31451519D01*
X17621364Y-31451521D01*
X17503881Y-31648152D01*
X17423399Y-31862600D01*
X17382500Y-32087970D01*
X17382500Y-32725000D01*
X18140000Y-32725000D01*
X18140000Y-33225000D01*
X17382500Y-33225000D01*
X17382500Y-33804640D01*
X15000500Y-33804640D01*
X15000500Y-30124500D01*
X15020185Y-30057461D01*
X15072989Y-30011706D01*
X15124500Y-30000500D01*
X76799901Y-30000500D01*
X79375500Y-30000500D01*
X79442539Y-30020185D01*
G37*
%TD.AperFunction*%
%TD*%
M02*
