%TF.GenerationSoftware,KiCad,Pcbnew,7.0.8*%
%TF.CreationDate,2023-10-16T22:13:19+02:00*%
%TF.ProjectId,sata_caddy,73617461-5f63-4616-9464-792e6b696361,rev?*%
%TF.SameCoordinates,Original*%
%TF.FileFunction,Soldermask,Bot*%
%TF.FilePolarity,Negative*%
%FSLAX46Y46*%
G04 Gerber Fmt 4.6, Leading zero omitted, Abs format (unit mm)*
G04 Created by KiCad (PCBNEW 7.0.8) date 2023-10-16 22:13:19*
%MOMM*%
%LPD*%
G01*
G04 APERTURE LIST*
G04 Aperture macros list*
%AMRoundRect*
0 Rectangle with rounded corners*
0 $1 Rounding radius*
0 $2 $3 $4 $5 $6 $7 $8 $9 X,Y pos of 4 corners*
0 Add a 4 corners polygon primitive as box body*
4,1,4,$2,$3,$4,$5,$6,$7,$8,$9,$2,$3,0*
0 Add four circle primitives for the rounded corners*
1,1,$1+$1,$2,$3*
1,1,$1+$1,$4,$5*
1,1,$1+$1,$6,$7*
1,1,$1+$1,$8,$9*
0 Add four rect primitives between the rounded corners*
20,1,$1+$1,$2,$3,$4,$5,0*
20,1,$1+$1,$4,$5,$6,$7,0*
20,1,$1+$1,$6,$7,$8,$9,0*
20,1,$1+$1,$8,$9,$2,$3,0*%
G04 Aperture macros list end*
%ADD10C,1.400000*%
%ADD11O,1.400000X1.400000*%
%ADD12R,1.700000X1.700000*%
%ADD13O,1.700000X1.700000*%
%ADD14R,1.050000X1.500000*%
%ADD15O,1.050000X1.500000*%
%ADD16R,1.600000X1.600000*%
%ADD17O,1.600000X1.600000*%
%ADD18C,1.152400*%
%ADD19O,1.697400X3.242400*%
%ADD20C,1.630000*%
%ADD21RoundRect,0.076200X-0.450000X-1.200000X0.450000X-1.200000X0.450000X1.200000X-0.450000X1.200000X0*%
G04 APERTURE END LIST*
D10*
%TO.C,R4*%
X68400000Y-43200000D03*
D11*
X76020000Y-43200000D03*
%TD*%
D12*
%TO.C,J1*%
X82650000Y-51175000D03*
D13*
X85190000Y-51175000D03*
X87730000Y-51175000D03*
X90270000Y-51175000D03*
X92810000Y-51175000D03*
X95350000Y-51175000D03*
%TD*%
D12*
%TO.C,J4*%
X84620000Y-59900000D03*
D13*
X87160000Y-59900000D03*
X89700000Y-59900000D03*
X92240000Y-59900000D03*
X94780000Y-59900000D03*
%TD*%
D10*
%TO.C,R1*%
X62200000Y-39420000D03*
D11*
X62200000Y-31800000D03*
%TD*%
D14*
%TO.C,Q1*%
X62560000Y-43900000D03*
D15*
X63830000Y-43900000D03*
X65100000Y-43900000D03*
%TD*%
D10*
%TO.C,R2*%
X88680000Y-55800000D03*
D11*
X96300000Y-55800000D03*
%TD*%
D10*
%TO.C,R3*%
X77890000Y-55800000D03*
D11*
X85510000Y-55800000D03*
%TD*%
D16*
%TO.C,U1*%
X76000000Y-40100000D03*
D17*
X76000000Y-37560000D03*
X76000000Y-35020000D03*
X76000000Y-32480000D03*
X68380000Y-32480000D03*
X68380000Y-35020000D03*
X68380000Y-37560000D03*
X68380000Y-40100000D03*
%TD*%
D18*
%TO.C,J3*%
X39270000Y-46500000D03*
X38000000Y-46500000D03*
X36730000Y-46500000D03*
X35460000Y-46500000D03*
X34190000Y-46500000D03*
X32920000Y-46500000D03*
X31650000Y-46500000D03*
X30380000Y-46500000D03*
X29110000Y-46500000D03*
X27840000Y-46500000D03*
X26570000Y-46500000D03*
X25300000Y-46500000D03*
X24030000Y-46500000D03*
X22760000Y-46500000D03*
X21490000Y-46500000D03*
X53240000Y-46500000D03*
X51970000Y-46500000D03*
X50700000Y-46500000D03*
X49430000Y-46500000D03*
X48160000Y-46500000D03*
X46890000Y-46500000D03*
X45620000Y-46500000D03*
D19*
X17515000Y-46500000D03*
X43045000Y-46500000D03*
X55615000Y-46500000D03*
%TD*%
D20*
%TO.C,J2*%
X20770000Y-32200000D03*
X53960000Y-32200000D03*
D21*
X39270000Y-35200000D03*
X38000000Y-35200000D03*
X36730000Y-35200000D03*
X35460000Y-34700000D03*
X34190000Y-35200000D03*
X32920000Y-35200000D03*
X31650000Y-35200000D03*
X30380000Y-35200000D03*
X29110000Y-35200000D03*
X27840000Y-35200000D03*
X26570000Y-35200000D03*
X25300000Y-34700000D03*
X24030000Y-35200000D03*
X22760000Y-35200000D03*
X21490000Y-35200000D03*
X53240000Y-35200000D03*
X51970000Y-35200000D03*
X50700000Y-35200000D03*
X49430000Y-35200000D03*
X48160000Y-35200000D03*
X46890000Y-35200000D03*
X45620000Y-35200000D03*
D19*
X18655000Y-32975000D03*
X56075000Y-32975000D03*
%TD*%
M02*
