%TF.GenerationSoftware,KiCad,Pcbnew,7.0.8*%
%TF.CreationDate,2023-10-16T22:13:19+02:00*%
%TF.ProjectId,sata_caddy,73617461-5f63-4616-9464-792e6b696361,rev?*%
%TF.SameCoordinates,Original*%
%TF.FileFunction,Copper,L2,Bot*%
%TF.FilePolarity,Positive*%
%FSLAX46Y46*%
G04 Gerber Fmt 4.6, Leading zero omitted, Abs format (unit mm)*
G04 Created by KiCad (PCBNEW 7.0.8) date 2023-10-16 22:13:19*
%MOMM*%
%LPD*%
G01*
G04 APERTURE LIST*
%TA.AperFunction,ComponentPad*%
%ADD10C,1.400000*%
%TD*%
%TA.AperFunction,ComponentPad*%
%ADD11O,1.400000X1.400000*%
%TD*%
%TA.AperFunction,ComponentPad*%
%ADD12R,1.700000X1.700000*%
%TD*%
%TA.AperFunction,ComponentPad*%
%ADD13O,1.700000X1.700000*%
%TD*%
%TA.AperFunction,ComponentPad*%
%ADD14R,1.050000X1.500000*%
%TD*%
%TA.AperFunction,ComponentPad*%
%ADD15O,1.050000X1.500000*%
%TD*%
%TA.AperFunction,ComponentPad*%
%ADD16R,1.600000X1.600000*%
%TD*%
%TA.AperFunction,ComponentPad*%
%ADD17O,1.600000X1.600000*%
%TD*%
%TA.AperFunction,ComponentPad*%
%ADD18C,1.000000*%
%TD*%
%TA.AperFunction,ComponentPad*%
%ADD19O,1.545000X3.090000*%
%TD*%
%TA.AperFunction,SMDPad,CuDef*%
%ADD20R,0.900000X2.400000*%
%TD*%
%TA.AperFunction,ViaPad*%
%ADD21C,0.800000*%
%TD*%
%TA.AperFunction,Conductor*%
%ADD22C,1.000000*%
%TD*%
%TA.AperFunction,Conductor*%
%ADD23C,0.250000*%
%TD*%
G04 APERTURE END LIST*
D10*
%TO.P,R4,1*%
%TO.N,/SENS_CADDY_CLOSED*%
X68400000Y-43200000D03*
D11*
%TO.P,R4,2*%
%TO.N,Net-(U1--)*%
X76020000Y-43200000D03*
%TD*%
D12*
%TO.P,J1,1,Pin_1*%
%TO.N,+3.3V*%
X82650000Y-51175000D03*
D13*
%TO.P,J1,2,Pin_2*%
%TO.N,/RED_ANODE*%
X85190000Y-51175000D03*
%TO.P,J1,3,Pin_3*%
%TO.N,/GREEN_ANODE*%
X87730000Y-51175000D03*
%TO.P,J1,4,Pin_4*%
%TO.N,/BLUE_ANODE*%
X90270000Y-51175000D03*
%TO.P,J1,5,Pin_5*%
%TO.N,/CONN_SENS*%
X92810000Y-51175000D03*
%TO.P,J1,6,Pin_6*%
%TO.N,GND*%
X95350000Y-51175000D03*
%TD*%
D12*
%TO.P,J4,1,Pin_1*%
%TO.N,+3.3V*%
X84620000Y-59900000D03*
D13*
%TO.P,J4,2,Pin_2*%
%TO.N,/SENS_CADDY_CLOSED*%
X87160000Y-59900000D03*
%TO.P,J4,3,Pin_3*%
%TO.N,/RED_ANODE*%
X89700000Y-59900000D03*
%TO.P,J4,4,Pin_4*%
%TO.N,/GREEN_ANODE*%
X92240000Y-59900000D03*
%TO.P,J4,5,Pin_5*%
%TO.N,GND*%
X94780000Y-59900000D03*
%TD*%
D10*
%TO.P,R1,1*%
%TO.N,+3.3V*%
X62200000Y-39420000D03*
D11*
%TO.P,R1,2*%
%TO.N,/SATA_PIN_11*%
X62200000Y-31800000D03*
%TD*%
D14*
%TO.P,Q1,1,C*%
%TO.N,/BLUE_ANODE*%
X62560000Y-43900000D03*
D15*
%TO.P,Q1,2,B*%
%TO.N,/SATA_PIN_11*%
X63830000Y-43900000D03*
%TO.P,Q1,3,E*%
%TO.N,+3.3V*%
X65100000Y-43900000D03*
%TD*%
D10*
%TO.P,R2,1*%
%TO.N,/CONN_SENS*%
X88680000Y-55800000D03*
D11*
%TO.P,R2,2*%
%TO.N,GND*%
X96300000Y-55800000D03*
%TD*%
D10*
%TO.P,R3,1*%
%TO.N,Net-(U1--)*%
X77890000Y-55800000D03*
D11*
%TO.P,R3,2*%
%TO.N,GND*%
X85510000Y-55800000D03*
%TD*%
D16*
%TO.P,U1,1,NULL*%
%TO.N,unconnected-(U1-NULL-Pad1)*%
X76000000Y-40100000D03*
D17*
%TO.P,U1,2,-*%
%TO.N,Net-(U1--)*%
X76000000Y-37560000D03*
%TO.P,U1,3,+*%
%TO.N,/CONN_SENS*%
X76000000Y-35020000D03*
%TO.P,U1,4,V-*%
%TO.N,GND*%
X76000000Y-32480000D03*
%TO.P,U1,5,NULL*%
%TO.N,unconnected-(U1-NULL-Pad5)*%
X68380000Y-32480000D03*
%TO.P,U1,6*%
%TO.N,/SENS_CADDY_CLOSED*%
X68380000Y-35020000D03*
%TO.P,U1,7,V+*%
%TO.N,+3.3V*%
X68380000Y-37560000D03*
%TO.P,U1,8,STRB*%
%TO.N,unconnected-(U1-STRB-Pad8)*%
X68380000Y-40100000D03*
%TD*%
D18*
%TO.P,J3,P1,P1*%
%TO.N,+3.3V*%
X39270000Y-46500000D03*
%TO.P,J3,P2,P2*%
X38000000Y-46500000D03*
%TO.P,J3,P3,P3*%
X36730000Y-46500000D03*
%TO.P,J3,P4,P4*%
%TO.N,GND*%
X35460000Y-46500000D03*
%TO.P,J3,P5,P5*%
X34190000Y-46500000D03*
%TO.P,J3,P6,P6*%
X32920000Y-46500000D03*
%TO.P,J3,P7,P7*%
%TO.N,Net-(J2-PadP7)*%
X31650000Y-46500000D03*
%TO.P,J3,P8,P8*%
%TO.N,Net-(J2-PadP8)*%
X30380000Y-46500000D03*
%TO.P,J3,P9,P9*%
%TO.N,Net-(J2-PadP9)*%
X29110000Y-46500000D03*
%TO.P,J3,P10,P10*%
%TO.N,GND*%
X27840000Y-46500000D03*
%TO.P,J3,P11,P11*%
X26570000Y-46500000D03*
%TO.P,J3,P12,P12*%
X25300000Y-46500000D03*
%TO.P,J3,P13,P13*%
%TO.N,Net-(J2-PadP13)*%
X24030000Y-46500000D03*
%TO.P,J3,P14,P14*%
%TO.N,Net-(J2-PadP14)*%
X22760000Y-46500000D03*
%TO.P,J3,P15,P15*%
%TO.N,Net-(J2-PadP15)*%
X21490000Y-46500000D03*
%TO.P,J3,S1,S1*%
%TO.N,/S1*%
X53240000Y-46500000D03*
%TO.P,J3,S2,S2*%
%TO.N,/S2*%
X51970000Y-46500000D03*
%TO.P,J3,S3,S3*%
%TO.N,/S3*%
X50700000Y-46500000D03*
%TO.P,J3,S4,S4*%
%TO.N,/S4*%
X49430000Y-46500000D03*
%TO.P,J3,S5,S5*%
%TO.N,/S5*%
X48160000Y-46500000D03*
%TO.P,J3,S6,S6*%
%TO.N,/S6*%
X46890000Y-46500000D03*
%TO.P,J3,S7,S7*%
%TO.N,/S7*%
X45620000Y-46500000D03*
D19*
%TO.P,J3,SH,SHIELD*%
%TO.N,GND*%
X17515000Y-46500000D03*
X43045000Y-46500000D03*
X55615000Y-46500000D03*
%TD*%
D20*
%TO.P,J2,P1,P1*%
%TO.N,+3.3V*%
X39270000Y-35200000D03*
%TO.P,J2,P2,P2*%
X38000000Y-35200000D03*
%TO.P,J2,P3,P3*%
X36730000Y-35200000D03*
%TO.P,J2,P4,P4*%
%TO.N,GND*%
X35460000Y-34700000D03*
%TO.P,J2,P5,P5*%
X34190000Y-35200000D03*
%TO.P,J2,P6,P6*%
X32920000Y-35200000D03*
%TO.P,J2,P7,P7*%
%TO.N,Net-(J2-PadP7)*%
X31650000Y-35200000D03*
%TO.P,J2,P8,P8*%
%TO.N,Net-(J2-PadP8)*%
X30380000Y-35200000D03*
%TO.P,J2,P9,P9*%
%TO.N,Net-(J2-PadP9)*%
X29110000Y-35200000D03*
%TO.P,J2,P10,P10*%
%TO.N,GND*%
X27840000Y-35200000D03*
%TO.P,J2,P11,P11*%
%TO.N,/SATA_PIN_11*%
X26570000Y-35200000D03*
%TO.P,J2,P12,P12*%
%TO.N,GND*%
X25300000Y-34700000D03*
%TO.P,J2,P13,P13*%
%TO.N,Net-(J2-PadP13)*%
X24030000Y-35200000D03*
%TO.P,J2,P14,P14*%
%TO.N,Net-(J2-PadP14)*%
X22760000Y-35200000D03*
%TO.P,J2,P15,P15*%
%TO.N,Net-(J2-PadP15)*%
X21490000Y-35200000D03*
%TO.P,J2,S1,S1*%
%TO.N,/S1*%
X53240000Y-35200000D03*
%TO.P,J2,S2,S2*%
%TO.N,/S2*%
X51970000Y-35200000D03*
%TO.P,J2,S3,S3*%
%TO.N,/S3*%
X50700000Y-35200000D03*
%TO.P,J2,S4,S4*%
%TO.N,/S4*%
X49430000Y-35200000D03*
%TO.P,J2,S5,S5*%
%TO.N,/S5*%
X48160000Y-35200000D03*
%TO.P,J2,S6,S6*%
%TO.N,/S6*%
X46890000Y-35200000D03*
%TO.P,J2,S7,S7*%
%TO.N,/S7*%
X45620000Y-35200000D03*
D19*
%TO.P,J2,SH,SHIELD*%
%TO.N,GND*%
X18655000Y-32975000D03*
X56075000Y-32975000D03*
%TD*%
D21*
%TO.N,GND*%
X34000000Y-31900000D03*
X17900000Y-42700000D03*
X55300000Y-38400000D03*
X19600000Y-35900000D03*
X32300000Y-32900000D03*
X26600000Y-44200000D03*
X19600000Y-41500000D03*
X43700000Y-37700000D03*
X17800000Y-40300000D03*
X51900000Y-32800000D03*
X55200000Y-40700000D03*
X22100000Y-31200000D03*
X43700000Y-43000000D03*
X38300000Y-32900000D03*
X57100000Y-37000000D03*
X26600000Y-40900000D03*
X26600000Y-37800000D03*
X57000000Y-41900000D03*
X19600000Y-38900000D03*
X17900000Y-37400000D03*
X43700000Y-34900000D03*
X41800000Y-39100000D03*
X29700000Y-32800000D03*
X46600000Y-31800000D03*
X19600000Y-43900000D03*
X41800000Y-41700000D03*
X45100000Y-32800000D03*
X43800000Y-31800000D03*
X55300000Y-43000000D03*
X27300000Y-31200000D03*
X36500000Y-32000000D03*
X40300000Y-31900000D03*
X31000000Y-31900000D03*
X57100000Y-39300000D03*
X43800000Y-40300000D03*
X26200000Y-32400000D03*
X24700000Y-31200000D03*
X41900000Y-32900000D03*
X50300000Y-31900000D03*
X23300000Y-32300000D03*
X55200000Y-35900000D03*
X41800000Y-36400000D03*
X48000000Y-32800000D03*
%TD*%
D22*
%TO.N,+3.3V*%
X38000000Y-35200000D02*
X38000000Y-46500000D01*
X36730000Y-35200000D02*
X36730000Y-46500000D01*
X39270000Y-35200000D02*
X39270000Y-46500000D01*
D23*
%TO.N,/RED_ANODE*%
X85190000Y-52490000D02*
X86600000Y-53900000D01*
X85190000Y-51175000D02*
X85190000Y-52490000D01*
X89000000Y-53900000D02*
X90298568Y-55198568D01*
X90298568Y-55198568D02*
X90298568Y-59301432D01*
X86600000Y-53900000D02*
X89000000Y-53900000D01*
X90298568Y-59301432D02*
X89700000Y-59900000D01*
%TO.N,/GREEN_ANODE*%
X92240000Y-55685000D02*
X92240000Y-59900000D01*
X87730000Y-51175000D02*
X92240000Y-55685000D01*
%TO.N,/CONN_SENS*%
X77900000Y-53100000D02*
X82600000Y-57800000D01*
X82600000Y-57800000D02*
X86680000Y-57800000D01*
X86680000Y-57800000D02*
X88680000Y-55800000D01*
X77900000Y-36920000D02*
X77900000Y-53100000D01*
X76000000Y-35020000D02*
X77900000Y-36920000D01*
D22*
%TO.N,GND*%
X27840000Y-35200000D02*
X27840000Y-46500000D01*
X34190000Y-35200000D02*
X34190000Y-46500000D01*
X35460000Y-34700000D02*
X35460000Y-46500000D01*
D23*
X28430000Y-33170000D02*
X27840000Y-33760000D01*
D22*
X25300000Y-34700000D02*
X25300000Y-46500000D01*
D23*
X27840000Y-33760000D02*
X27840000Y-35200000D01*
D22*
X32920000Y-35200000D02*
X32920000Y-46500000D01*
D23*
X56075000Y-46040000D02*
X55615000Y-46500000D01*
D22*
%TO.N,Net-(J2-PadP7)*%
X31650000Y-35200000D02*
X31650000Y-46500000D01*
%TO.N,Net-(J2-PadP8)*%
X30380000Y-35200000D02*
X30380000Y-46500000D01*
%TO.N,Net-(J2-PadP9)*%
X29110000Y-35200000D02*
X29110000Y-46500000D01*
D23*
%TO.N,/SATA_PIN_11*%
X61000000Y-30600000D02*
X29970000Y-30600000D01*
X63830000Y-33430000D02*
X62200000Y-31800000D01*
X63830000Y-43900000D02*
X63830000Y-33430000D01*
X26570000Y-34000000D02*
X26570000Y-35200000D01*
X62200000Y-31800000D02*
X61000000Y-30600000D01*
X29970000Y-30600000D02*
X26570000Y-34000000D01*
D22*
%TO.N,Net-(J2-PadP13)*%
X24030000Y-35200000D02*
X24030000Y-46500000D01*
%TO.N,Net-(J2-PadP14)*%
X22760000Y-35200000D02*
X22760000Y-46500000D01*
%TO.N,Net-(J2-PadP15)*%
X21490000Y-35200000D02*
X21490000Y-46500000D01*
%TO.N,/S1*%
X53240000Y-35200000D02*
X53240000Y-46500000D01*
%TO.N,/S2*%
X51970000Y-35200000D02*
X51970000Y-46500000D01*
%TO.N,/S3*%
X50700000Y-35200000D02*
X50700000Y-46500000D01*
%TO.N,/S4*%
X49430000Y-35200000D02*
X49430000Y-46500000D01*
%TO.N,/S5*%
X48160000Y-35200000D02*
X48160000Y-46500000D01*
%TO.N,/S6*%
X46890000Y-35200000D02*
X46890000Y-46500000D01*
%TO.N,/S7*%
X45620000Y-35200000D02*
X45620000Y-46500000D01*
D23*
%TO.N,/SENS_CADDY_CLOSED*%
X76500000Y-46200000D02*
X76500000Y-57200000D01*
X73500000Y-43200000D02*
X76500000Y-46200000D01*
X77550000Y-58250000D02*
X85510000Y-58250000D01*
X76500000Y-57200000D02*
X77550000Y-58250000D01*
X68400000Y-43200000D02*
X73500000Y-43200000D01*
X85510000Y-58250000D02*
X87160000Y-59900000D01*
%TD*%
%TA.AperFunction,Conductor*%
%TO.N,GND*%
G36*
X29452585Y-30020185D02*
G01*
X29498340Y-30072989D01*
X29508284Y-30142147D01*
X29479259Y-30205703D01*
X29473227Y-30212181D01*
X26393177Y-33292229D01*
X26331854Y-33325714D01*
X26262162Y-33320730D01*
X26206229Y-33278858D01*
X26196662Y-33263971D01*
X26193351Y-33257907D01*
X26107190Y-33142812D01*
X26107187Y-33142809D01*
X25992093Y-33056649D01*
X25992086Y-33056645D01*
X25857379Y-33006403D01*
X25857372Y-33006401D01*
X25797844Y-33000000D01*
X25550000Y-33000000D01*
X25550000Y-36400000D01*
X25569550Y-36419550D01*
X25570009Y-36419685D01*
X25572112Y-36422112D01*
X25586319Y-36436319D01*
X25585302Y-36437335D01*
X25615764Y-36472489D01*
X25623342Y-36500116D01*
X25624124Y-36499932D01*
X25625907Y-36507479D01*
X25676202Y-36642328D01*
X25676206Y-36642335D01*
X25762452Y-36757544D01*
X25762455Y-36757547D01*
X25877664Y-36843793D01*
X25877671Y-36843797D01*
X26012517Y-36894091D01*
X26012516Y-36894091D01*
X26019444Y-36894835D01*
X26072127Y-36900500D01*
X27067872Y-36900499D01*
X27127483Y-36894091D01*
X27162381Y-36881074D01*
X27232069Y-36876089D01*
X27249050Y-36881075D01*
X27282623Y-36893598D01*
X27342155Y-36899999D01*
X27342172Y-36900000D01*
X27590000Y-36900000D01*
X27590000Y-35074000D01*
X27609685Y-35006961D01*
X27662489Y-34961206D01*
X27714000Y-34950000D01*
X27966000Y-34950000D01*
X28033039Y-34969685D01*
X28078794Y-35022489D01*
X28090000Y-35074000D01*
X28090000Y-36913982D01*
X28106666Y-36944504D01*
X28109500Y-36970862D01*
X28109500Y-45384891D01*
X28089815Y-45451930D01*
X28037011Y-45497685D01*
X27973346Y-45508294D01*
X27840000Y-45495161D01*
X27643969Y-45514468D01*
X27455461Y-45571652D01*
X27331475Y-45637922D01*
X27843553Y-46150000D01*
X27810995Y-46150000D01*
X27724784Y-46164386D01*
X27622053Y-46219981D01*
X27542940Y-46305921D01*
X27496018Y-46412892D01*
X27486372Y-46529302D01*
X27515047Y-46642538D01*
X27578936Y-46740327D01*
X27671115Y-46812072D01*
X27781595Y-46850000D01*
X27843551Y-46850000D01*
X27331476Y-47362075D01*
X27331476Y-47362076D01*
X27455466Y-47428350D01*
X27643969Y-47485531D01*
X27643965Y-47485531D01*
X27840000Y-47504838D01*
X28036032Y-47485531D01*
X28224539Y-47428348D01*
X28398252Y-47335497D01*
X28403315Y-47332114D01*
X28404436Y-47333791D01*
X28460228Y-47310083D01*
X28529098Y-47321862D01*
X28546186Y-47332842D01*
X28546398Y-47332526D01*
X28551455Y-47335904D01*
X28551462Y-47335910D01*
X28554939Y-47337768D01*
X28572392Y-47349074D01*
X28578041Y-47353447D01*
X28578044Y-47353449D01*
X28653757Y-47390588D01*
X28724401Y-47428348D01*
X28725273Y-47428814D01*
X28732477Y-47430999D01*
X28751093Y-47438333D01*
X28760729Y-47443060D01*
X28839287Y-47463400D01*
X28913868Y-47486024D01*
X28922956Y-47486918D01*
X28924926Y-47487113D01*
X28943854Y-47490474D01*
X28957711Y-47494062D01*
X28957715Y-47494063D01*
X29034133Y-47497938D01*
X29037034Y-47498154D01*
X29110000Y-47505341D01*
X29124630Y-47503899D01*
X29143056Y-47503462D01*
X29160936Y-47504369D01*
X29233253Y-47493289D01*
X29236525Y-47492879D01*
X29306132Y-47486024D01*
X29323632Y-47480714D01*
X29340837Y-47476808D01*
X29362071Y-47473556D01*
X29427515Y-47449317D01*
X29431019Y-47448138D01*
X29494727Y-47428814D01*
X29517730Y-47416517D01*
X29525421Y-47413057D01*
X29552887Y-47402886D01*
X29552891Y-47402883D01*
X29552894Y-47402882D01*
X29609238Y-47367762D01*
X29612801Y-47365701D01*
X29668538Y-47335910D01*
X29668544Y-47335904D01*
X29673599Y-47332528D01*
X29674698Y-47334172D01*
X29730610Y-47310408D01*
X29799481Y-47322180D01*
X29816153Y-47332892D01*
X29816398Y-47332526D01*
X29821455Y-47335904D01*
X29821462Y-47335910D01*
X29824939Y-47337768D01*
X29842392Y-47349074D01*
X29848041Y-47353447D01*
X29848044Y-47353449D01*
X29923757Y-47390588D01*
X29994401Y-47428348D01*
X29995273Y-47428814D01*
X30002477Y-47430999D01*
X30021093Y-47438333D01*
X30030729Y-47443060D01*
X30109287Y-47463400D01*
X30183868Y-47486024D01*
X30192956Y-47486918D01*
X30194926Y-47487113D01*
X30213854Y-47490474D01*
X30227711Y-47494062D01*
X30227715Y-47494063D01*
X30304133Y-47497938D01*
X30307034Y-47498154D01*
X30380000Y-47505341D01*
X30394630Y-47503899D01*
X30413056Y-47503462D01*
X30430936Y-47504369D01*
X30503253Y-47493289D01*
X30506525Y-47492879D01*
X30576132Y-47486024D01*
X30593632Y-47480714D01*
X30610837Y-47476808D01*
X30632071Y-47473556D01*
X30697515Y-47449317D01*
X30701019Y-47448138D01*
X30764727Y-47428814D01*
X30787730Y-47416517D01*
X30795421Y-47413057D01*
X30822887Y-47402886D01*
X30822891Y-47402883D01*
X30822894Y-47402882D01*
X30879238Y-47367762D01*
X30882801Y-47365701D01*
X30938538Y-47335910D01*
X30938544Y-47335904D01*
X30943599Y-47332528D01*
X30944698Y-47334172D01*
X31000610Y-47310408D01*
X31069481Y-47322180D01*
X31086153Y-47332892D01*
X31086398Y-47332526D01*
X31091455Y-47335904D01*
X31091462Y-47335910D01*
X31094939Y-47337768D01*
X31112392Y-47349074D01*
X31118041Y-47353447D01*
X31118044Y-47353449D01*
X31193757Y-47390588D01*
X31264401Y-47428348D01*
X31265273Y-47428814D01*
X31272477Y-47430999D01*
X31291093Y-47438333D01*
X31300729Y-47443060D01*
X31379287Y-47463400D01*
X31453868Y-47486024D01*
X31462956Y-47486918D01*
X31464926Y-47487113D01*
X31483854Y-47490474D01*
X31497711Y-47494062D01*
X31497715Y-47494063D01*
X31574133Y-47497938D01*
X31577034Y-47498154D01*
X31650000Y-47505341D01*
X31664630Y-47503899D01*
X31683056Y-47503462D01*
X31700936Y-47504369D01*
X31773253Y-47493289D01*
X31776525Y-47492879D01*
X31846132Y-47486024D01*
X31863632Y-47480714D01*
X31880837Y-47476808D01*
X31902071Y-47473556D01*
X31967515Y-47449317D01*
X31971019Y-47448138D01*
X32034727Y-47428814D01*
X32057730Y-47416517D01*
X32065421Y-47413057D01*
X32092887Y-47402886D01*
X32092891Y-47402883D01*
X32092894Y-47402882D01*
X32149238Y-47367762D01*
X32152801Y-47365701D01*
X32208538Y-47335910D01*
X32208544Y-47335904D01*
X32213599Y-47332528D01*
X32214615Y-47334049D01*
X32271021Y-47310084D01*
X32339890Y-47321866D01*
X32356424Y-47332489D01*
X32356678Y-47332110D01*
X32361746Y-47335496D01*
X32535460Y-47428348D01*
X32723969Y-47485531D01*
X32723965Y-47485531D01*
X32920000Y-47504838D01*
X33116032Y-47485531D01*
X33304537Y-47428348D01*
X33428522Y-47362076D01*
X33681476Y-47362076D01*
X33805466Y-47428350D01*
X33993969Y-47485531D01*
X33993965Y-47485531D01*
X34190000Y-47504838D01*
X34386032Y-47485531D01*
X34574537Y-47428348D01*
X34698522Y-47362076D01*
X34190001Y-46853553D01*
X34190000Y-46853553D01*
X33681476Y-47362076D01*
X33428522Y-47362076D01*
X32916447Y-46850000D01*
X32949005Y-46850000D01*
X33035216Y-46835614D01*
X33137947Y-46780019D01*
X33217060Y-46694079D01*
X33263982Y-46587108D01*
X33271200Y-46500000D01*
X33273553Y-46500000D01*
X33555000Y-46781446D01*
X33555001Y-46781446D01*
X33807145Y-46529302D01*
X33836372Y-46529302D01*
X33865047Y-46642538D01*
X33928936Y-46740327D01*
X34021115Y-46812072D01*
X34131595Y-46850000D01*
X34219005Y-46850000D01*
X34305216Y-46835614D01*
X34407947Y-46780019D01*
X34487060Y-46694079D01*
X34533982Y-46587108D01*
X34541200Y-46500000D01*
X34543552Y-46500000D01*
X34825000Y-46781446D01*
X34825001Y-46781446D01*
X35106446Y-46500001D01*
X35106446Y-46499999D01*
X34825001Y-46218553D01*
X34825000Y-46218553D01*
X34543552Y-46500000D01*
X34541200Y-46500000D01*
X34543628Y-46470698D01*
X34514953Y-46357462D01*
X34451064Y-46259673D01*
X34358885Y-46187928D01*
X34248405Y-46150000D01*
X34160995Y-46150000D01*
X34074784Y-46164386D01*
X33972053Y-46219981D01*
X33892940Y-46305921D01*
X33846018Y-46412892D01*
X33836372Y-46529302D01*
X33807145Y-46529302D01*
X33836446Y-46500001D01*
X33836446Y-46499999D01*
X33555001Y-46218553D01*
X33555000Y-46218553D01*
X33273553Y-46500000D01*
X33271200Y-46500000D01*
X33273628Y-46470698D01*
X33244953Y-46357462D01*
X33181064Y-46259673D01*
X33088885Y-46187928D01*
X32978405Y-46150000D01*
X32916447Y-46150000D01*
X32920000Y-46146447D01*
X33428522Y-45637922D01*
X33681475Y-45637922D01*
X34190000Y-46146446D01*
X34190001Y-46146446D01*
X34698522Y-45637922D01*
X34951475Y-45637922D01*
X35463553Y-46150000D01*
X35430995Y-46150000D01*
X35344784Y-46164386D01*
X35242053Y-46219981D01*
X35162940Y-46305921D01*
X35116018Y-46412892D01*
X35106372Y-46529302D01*
X35135047Y-46642538D01*
X35198936Y-46740327D01*
X35291115Y-46812072D01*
X35401595Y-46850000D01*
X35463551Y-46850000D01*
X34951476Y-47362075D01*
X34951476Y-47362076D01*
X35075466Y-47428350D01*
X35263969Y-47485531D01*
X35263965Y-47485531D01*
X35460000Y-47504838D01*
X35656032Y-47485531D01*
X35844539Y-47428348D01*
X36018252Y-47335497D01*
X36023315Y-47332114D01*
X36024436Y-47333791D01*
X36080228Y-47310083D01*
X36149098Y-47321862D01*
X36166186Y-47332842D01*
X36166398Y-47332526D01*
X36171455Y-47335904D01*
X36171462Y-47335910D01*
X36174939Y-47337768D01*
X36192392Y-47349074D01*
X36198041Y-47353447D01*
X36198044Y-47353449D01*
X36273757Y-47390588D01*
X36344401Y-47428348D01*
X36345273Y-47428814D01*
X36352477Y-47430999D01*
X36371093Y-47438333D01*
X36380729Y-47443060D01*
X36459287Y-47463400D01*
X36533868Y-47486024D01*
X36542956Y-47486918D01*
X36544926Y-47487113D01*
X36563854Y-47490474D01*
X36577711Y-47494062D01*
X36577715Y-47494063D01*
X36654133Y-47497938D01*
X36657034Y-47498154D01*
X36730000Y-47505341D01*
X36744630Y-47503899D01*
X36763056Y-47503462D01*
X36780936Y-47504369D01*
X36853253Y-47493289D01*
X36856525Y-47492879D01*
X36926132Y-47486024D01*
X36943632Y-47480714D01*
X36960837Y-47476808D01*
X36982071Y-47473556D01*
X37047515Y-47449317D01*
X37051019Y-47448138D01*
X37114727Y-47428814D01*
X37137730Y-47416517D01*
X37145421Y-47413057D01*
X37172887Y-47402886D01*
X37172891Y-47402883D01*
X37172894Y-47402882D01*
X37229238Y-47367762D01*
X37232801Y-47365701D01*
X37288538Y-47335910D01*
X37288544Y-47335904D01*
X37293599Y-47332528D01*
X37294698Y-47334172D01*
X37350610Y-47310408D01*
X37419481Y-47322180D01*
X37436153Y-47332892D01*
X37436398Y-47332526D01*
X37441455Y-47335904D01*
X37441462Y-47335910D01*
X37444939Y-47337768D01*
X37462392Y-47349074D01*
X37468041Y-47353447D01*
X37468044Y-47353449D01*
X37543757Y-47390588D01*
X37614401Y-47428348D01*
X37615273Y-47428814D01*
X37622477Y-47430999D01*
X37641093Y-47438333D01*
X37650729Y-47443060D01*
X37729287Y-47463400D01*
X37803868Y-47486024D01*
X37812956Y-47486918D01*
X37814926Y-47487113D01*
X37833854Y-47490474D01*
X37847711Y-47494062D01*
X37847715Y-47494063D01*
X37924133Y-47497938D01*
X37927034Y-47498154D01*
X38000000Y-47505341D01*
X38014630Y-47503899D01*
X38033056Y-47503462D01*
X38050936Y-47504369D01*
X38123253Y-47493289D01*
X38126525Y-47492879D01*
X38196132Y-47486024D01*
X38213632Y-47480714D01*
X38230837Y-47476808D01*
X38252071Y-47473556D01*
X38317515Y-47449317D01*
X38321019Y-47448138D01*
X38384727Y-47428814D01*
X38407730Y-47416517D01*
X38415421Y-47413057D01*
X38442887Y-47402886D01*
X38442891Y-47402883D01*
X38442894Y-47402882D01*
X38499238Y-47367762D01*
X38502801Y-47365701D01*
X38558538Y-47335910D01*
X38558544Y-47335904D01*
X38563599Y-47332528D01*
X38564698Y-47334172D01*
X38620610Y-47310408D01*
X38689481Y-47322180D01*
X38706153Y-47332892D01*
X38706398Y-47332526D01*
X38711455Y-47335904D01*
X38711462Y-47335910D01*
X38714939Y-47337768D01*
X38732392Y-47349074D01*
X38738041Y-47353447D01*
X38738044Y-47353449D01*
X38813757Y-47390588D01*
X38884401Y-47428348D01*
X38885273Y-47428814D01*
X38892477Y-47430999D01*
X38911093Y-47438333D01*
X38920729Y-47443060D01*
X38999287Y-47463400D01*
X39073868Y-47486024D01*
X39082956Y-47486918D01*
X39084926Y-47487113D01*
X39103854Y-47490474D01*
X39117711Y-47494062D01*
X39117715Y-47494063D01*
X39194133Y-47497938D01*
X39197034Y-47498154D01*
X39270000Y-47505341D01*
X39284630Y-47503899D01*
X39303056Y-47503462D01*
X39320936Y-47504369D01*
X39393253Y-47493289D01*
X39396525Y-47492879D01*
X39466132Y-47486024D01*
X39483632Y-47480714D01*
X39500837Y-47476808D01*
X39522071Y-47473556D01*
X39587515Y-47449317D01*
X39591019Y-47448138D01*
X39654727Y-47428814D01*
X39677730Y-47416517D01*
X39685421Y-47413057D01*
X39712887Y-47402886D01*
X39712891Y-47402883D01*
X39712894Y-47402882D01*
X39769238Y-47367762D01*
X39772801Y-47365701D01*
X39828538Y-47335910D01*
X39836177Y-47329640D01*
X41772500Y-47329640D01*
X41787888Y-47500633D01*
X41848821Y-47721420D01*
X41848826Y-47721431D01*
X41948207Y-47927799D01*
X41948209Y-47927803D01*
X42082839Y-48113105D01*
X42082846Y-48113113D01*
X42248401Y-48271400D01*
X42439561Y-48397585D01*
X42650190Y-48487611D01*
X42650193Y-48487612D01*
X42795000Y-48520663D01*
X42795000Y-47508909D01*
X42805839Y-47516560D01*
X42939235Y-47563969D01*
X43080475Y-47573630D01*
X43219084Y-47544827D01*
X43295000Y-47505490D01*
X43295000Y-48522756D01*
X43329296Y-48518111D01*
X43329300Y-48518110D01*
X43547147Y-48447327D01*
X43748847Y-48338788D01*
X43748850Y-48338786D01*
X43927928Y-48195976D01*
X44078634Y-48023480D01*
X44078635Y-48023478D01*
X44196118Y-47826847D01*
X44276600Y-47612399D01*
X44317500Y-47387029D01*
X44317500Y-46750000D01*
X43560000Y-46750000D01*
X43560000Y-46500000D01*
X44614659Y-46500000D01*
X44619189Y-46545999D01*
X44619408Y-46548938D01*
X44619499Y-46550736D01*
X44624474Y-46599663D01*
X44633976Y-46696130D01*
X44634034Y-46696419D01*
X44634904Y-46702228D01*
X44634924Y-46702429D01*
X44634927Y-46702444D01*
X44663965Y-46794992D01*
X44691184Y-46884722D01*
X44693980Y-46891473D01*
X44695816Y-46896528D01*
X44695844Y-46896595D01*
X44720254Y-46940573D01*
X44741387Y-46978648D01*
X44784089Y-47058537D01*
X44787474Y-47063602D01*
X44787271Y-47063737D01*
X44794454Y-47074304D01*
X44794593Y-47074505D01*
X44853656Y-47143305D01*
X44909117Y-47210884D01*
X44909395Y-47211112D01*
X44924810Y-47226188D01*
X44927134Y-47228895D01*
X44927138Y-47228898D01*
X44927140Y-47228900D01*
X44954734Y-47250259D01*
X44996326Y-47282454D01*
X45061462Y-47335910D01*
X45064939Y-47337768D01*
X45082392Y-47349074D01*
X45088041Y-47353447D01*
X45088044Y-47353449D01*
X45163757Y-47390588D01*
X45234401Y-47428348D01*
X45235273Y-47428814D01*
X45242477Y-47430999D01*
X45261093Y-47438333D01*
X45270729Y-47443060D01*
X45349287Y-47463400D01*
X45423868Y-47486024D01*
X45432956Y-47486918D01*
X45434926Y-47487113D01*
X45453854Y-47490474D01*
X45467711Y-47494062D01*
X45467715Y-47494063D01*
X45544133Y-47497938D01*
X45547034Y-47498154D01*
X45620000Y-47505341D01*
X45634630Y-47503899D01*
X45653056Y-47503462D01*
X45670936Y-47504369D01*
X45743253Y-47493289D01*
X45746525Y-47492879D01*
X45816132Y-47486024D01*
X45833632Y-47480714D01*
X45850837Y-47476808D01*
X45872071Y-47473556D01*
X45937515Y-47449317D01*
X45941019Y-47448138D01*
X46004727Y-47428814D01*
X46027730Y-47416517D01*
X46035421Y-47413057D01*
X46062887Y-47402886D01*
X46062891Y-47402883D01*
X46062894Y-47402882D01*
X46119238Y-47367762D01*
X46122801Y-47365701D01*
X46178538Y-47335910D01*
X46178544Y-47335904D01*
X46183599Y-47332528D01*
X46184698Y-47334172D01*
X46240610Y-47310408D01*
X46309481Y-47322180D01*
X46326153Y-47332892D01*
X46326398Y-47332526D01*
X46331455Y-47335904D01*
X46331462Y-47335910D01*
X46334939Y-47337768D01*
X46352392Y-47349074D01*
X46358041Y-47353447D01*
X46358044Y-47353449D01*
X46433757Y-47390588D01*
X46504401Y-47428348D01*
X46505273Y-47428814D01*
X46512477Y-47430999D01*
X46531093Y-47438333D01*
X46540729Y-47443060D01*
X46619287Y-47463400D01*
X46693868Y-47486024D01*
X46702956Y-47486918D01*
X46704926Y-47487113D01*
X46723854Y-47490474D01*
X46737711Y-47494062D01*
X46737715Y-47494063D01*
X46814133Y-47497938D01*
X46817034Y-47498154D01*
X46890000Y-47505341D01*
X46904630Y-47503899D01*
X46923056Y-47503462D01*
X46940936Y-47504369D01*
X47013253Y-47493289D01*
X47016525Y-47492879D01*
X47086132Y-47486024D01*
X47103632Y-47480714D01*
X47120837Y-47476808D01*
X47142071Y-47473556D01*
X47207515Y-47449317D01*
X47211019Y-47448138D01*
X47274727Y-47428814D01*
X47297730Y-47416517D01*
X47305421Y-47413057D01*
X47332887Y-47402886D01*
X47332891Y-47402883D01*
X47332894Y-47402882D01*
X47389238Y-47367762D01*
X47392801Y-47365701D01*
X47448538Y-47335910D01*
X47448544Y-47335904D01*
X47453599Y-47332528D01*
X47454698Y-47334172D01*
X47510610Y-47310408D01*
X47579481Y-47322180D01*
X47596153Y-47332892D01*
X47596398Y-47332526D01*
X47601455Y-47335904D01*
X47601462Y-47335910D01*
X47604939Y-47337768D01*
X47622392Y-47349074D01*
X47628041Y-47353447D01*
X47628044Y-47353449D01*
X47703757Y-47390588D01*
X47774401Y-47428348D01*
X47775273Y-47428814D01*
X47782477Y-47430999D01*
X47801093Y-47438333D01*
X47810729Y-47443060D01*
X47889287Y-47463400D01*
X47963868Y-47486024D01*
X47972956Y-47486918D01*
X47974926Y-47487113D01*
X47993854Y-47490474D01*
X48007711Y-47494062D01*
X48007715Y-47494063D01*
X48084133Y-47497938D01*
X48087034Y-47498154D01*
X48160000Y-47505341D01*
X48174630Y-47503899D01*
X48193056Y-47503462D01*
X48210936Y-47504369D01*
X48283253Y-47493289D01*
X48286525Y-47492879D01*
X48356132Y-47486024D01*
X48373632Y-47480714D01*
X48390837Y-47476808D01*
X48412071Y-47473556D01*
X48477515Y-47449317D01*
X48481019Y-47448138D01*
X48544727Y-47428814D01*
X48567730Y-47416517D01*
X48575421Y-47413057D01*
X48602887Y-47402886D01*
X48602891Y-47402883D01*
X48602894Y-47402882D01*
X48659238Y-47367762D01*
X48662801Y-47365701D01*
X48718538Y-47335910D01*
X48718544Y-47335904D01*
X48723599Y-47332528D01*
X48724698Y-47334172D01*
X48780610Y-47310408D01*
X48849481Y-47322180D01*
X48866153Y-47332892D01*
X48866398Y-47332526D01*
X48871455Y-47335904D01*
X48871462Y-47335910D01*
X48874939Y-47337768D01*
X48892392Y-47349074D01*
X48898041Y-47353447D01*
X48898044Y-47353449D01*
X48973757Y-47390588D01*
X49044401Y-47428348D01*
X49045273Y-47428814D01*
X49052477Y-47430999D01*
X49071093Y-47438333D01*
X49080729Y-47443060D01*
X49159287Y-47463400D01*
X49233868Y-47486024D01*
X49242956Y-47486918D01*
X49244926Y-47487113D01*
X49263854Y-47490474D01*
X49277711Y-47494062D01*
X49277715Y-47494063D01*
X49354133Y-47497938D01*
X49357034Y-47498154D01*
X49430000Y-47505341D01*
X49444630Y-47503899D01*
X49463056Y-47503462D01*
X49480936Y-47504369D01*
X49553253Y-47493289D01*
X49556525Y-47492879D01*
X49626132Y-47486024D01*
X49643632Y-47480714D01*
X49660837Y-47476808D01*
X49682071Y-47473556D01*
X49747515Y-47449317D01*
X49751019Y-47448138D01*
X49814727Y-47428814D01*
X49837730Y-47416517D01*
X49845421Y-47413057D01*
X49872887Y-47402886D01*
X49872891Y-47402883D01*
X49872894Y-47402882D01*
X49929238Y-47367762D01*
X49932801Y-47365701D01*
X49988538Y-47335910D01*
X49988544Y-47335904D01*
X49993599Y-47332528D01*
X49994698Y-47334172D01*
X50050610Y-47310408D01*
X50119481Y-47322180D01*
X50136153Y-47332892D01*
X50136398Y-47332526D01*
X50141455Y-47335904D01*
X50141462Y-47335910D01*
X50144939Y-47337768D01*
X50162392Y-47349074D01*
X50168041Y-47353447D01*
X50168044Y-47353449D01*
X50243757Y-47390588D01*
X50314401Y-47428348D01*
X50315273Y-47428814D01*
X50322477Y-47430999D01*
X50341093Y-47438333D01*
X50350729Y-47443060D01*
X50429287Y-47463400D01*
X50503868Y-47486024D01*
X50512956Y-47486918D01*
X50514926Y-47487113D01*
X50533854Y-47490474D01*
X50547711Y-47494062D01*
X50547715Y-47494063D01*
X50624133Y-47497938D01*
X50627034Y-47498154D01*
X50700000Y-47505341D01*
X50714630Y-47503899D01*
X50733056Y-47503462D01*
X50750936Y-47504369D01*
X50823253Y-47493289D01*
X50826525Y-47492879D01*
X50896132Y-47486024D01*
X50913632Y-47480714D01*
X50930837Y-47476808D01*
X50952071Y-47473556D01*
X51017515Y-47449317D01*
X51021019Y-47448138D01*
X51084727Y-47428814D01*
X51107730Y-47416517D01*
X51115421Y-47413057D01*
X51142887Y-47402886D01*
X51142891Y-47402883D01*
X51142894Y-47402882D01*
X51199238Y-47367762D01*
X51202801Y-47365701D01*
X51258538Y-47335910D01*
X51258544Y-47335904D01*
X51263599Y-47332528D01*
X51264698Y-47334172D01*
X51320610Y-47310408D01*
X51389481Y-47322180D01*
X51406153Y-47332892D01*
X51406398Y-47332526D01*
X51411455Y-47335904D01*
X51411462Y-47335910D01*
X51414939Y-47337768D01*
X51432392Y-47349074D01*
X51438041Y-47353447D01*
X51438044Y-47353449D01*
X51513757Y-47390588D01*
X51584401Y-47428348D01*
X51585273Y-47428814D01*
X51592477Y-47430999D01*
X51611093Y-47438333D01*
X51620729Y-47443060D01*
X51699287Y-47463400D01*
X51773868Y-47486024D01*
X51782956Y-47486918D01*
X51784926Y-47487113D01*
X51803854Y-47490474D01*
X51817711Y-47494062D01*
X51817715Y-47494063D01*
X51894133Y-47497938D01*
X51897034Y-47498154D01*
X51970000Y-47505341D01*
X51984630Y-47503899D01*
X52003056Y-47503462D01*
X52020936Y-47504369D01*
X52093253Y-47493289D01*
X52096525Y-47492879D01*
X52166132Y-47486024D01*
X52183632Y-47480714D01*
X52200837Y-47476808D01*
X52222071Y-47473556D01*
X52287515Y-47449317D01*
X52291019Y-47448138D01*
X52354727Y-47428814D01*
X52377730Y-47416517D01*
X52385421Y-47413057D01*
X52412887Y-47402886D01*
X52412891Y-47402883D01*
X52412894Y-47402882D01*
X52469238Y-47367762D01*
X52472801Y-47365701D01*
X52528538Y-47335910D01*
X52528544Y-47335904D01*
X52533599Y-47332528D01*
X52534698Y-47334172D01*
X52590610Y-47310408D01*
X52659481Y-47322180D01*
X52676153Y-47332892D01*
X52676398Y-47332526D01*
X52681455Y-47335904D01*
X52681462Y-47335910D01*
X52684939Y-47337768D01*
X52702392Y-47349074D01*
X52708041Y-47353447D01*
X52708044Y-47353449D01*
X52783757Y-47390588D01*
X52854401Y-47428348D01*
X52855273Y-47428814D01*
X52862477Y-47430999D01*
X52881093Y-47438333D01*
X52890729Y-47443060D01*
X52969287Y-47463400D01*
X53043868Y-47486024D01*
X53052956Y-47486918D01*
X53054926Y-47487113D01*
X53073854Y-47490474D01*
X53087711Y-47494062D01*
X53087715Y-47494063D01*
X53164133Y-47497938D01*
X53167034Y-47498154D01*
X53240000Y-47505341D01*
X53254630Y-47503899D01*
X53273056Y-47503462D01*
X53290936Y-47504369D01*
X53363253Y-47493289D01*
X53366525Y-47492879D01*
X53436132Y-47486024D01*
X53453632Y-47480714D01*
X53470837Y-47476808D01*
X53492071Y-47473556D01*
X53557515Y-47449317D01*
X53561019Y-47448138D01*
X53624727Y-47428814D01*
X53647730Y-47416517D01*
X53655421Y-47413057D01*
X53682887Y-47402886D01*
X53682891Y-47402883D01*
X53682894Y-47402882D01*
X53739238Y-47367762D01*
X53742801Y-47365701D01*
X53798538Y-47335910D01*
X53821310Y-47317220D01*
X53827840Y-47312535D01*
X53855571Y-47295252D01*
X53901288Y-47251793D01*
X53904631Y-47248839D01*
X53950883Y-47210883D01*
X53971717Y-47185495D01*
X53976915Y-47179904D01*
X54003053Y-47155059D01*
X54037143Y-47106079D01*
X54040088Y-47102185D01*
X54075910Y-47058538D01*
X54092989Y-47026582D01*
X54096770Y-47020410D01*
X54116729Y-46991734D01*
X54171183Y-46947960D01*
X54240661Y-46940573D01*
X54303104Y-46971922D01*
X54338685Y-47032054D01*
X54342500Y-47062577D01*
X54342500Y-47329640D01*
X54357888Y-47500633D01*
X54418821Y-47721420D01*
X54418826Y-47721431D01*
X54518207Y-47927799D01*
X54518209Y-47927803D01*
X54652839Y-48113105D01*
X54652846Y-48113113D01*
X54818401Y-48271400D01*
X55009561Y-48397585D01*
X55220190Y-48487611D01*
X55220193Y-48487612D01*
X55365000Y-48520663D01*
X55365000Y-47508909D01*
X55375839Y-47516560D01*
X55509235Y-47563969D01*
X55650475Y-47573630D01*
X55789084Y-47544827D01*
X55865000Y-47505490D01*
X55865000Y-48522755D01*
X55899296Y-48518111D01*
X55899300Y-48518110D01*
X56117147Y-48447327D01*
X56318847Y-48338788D01*
X56318850Y-48338786D01*
X56497928Y-48195976D01*
X56648634Y-48023480D01*
X56648635Y-48023478D01*
X56766118Y-47826847D01*
X56846600Y-47612399D01*
X56887500Y-47387029D01*
X56887500Y-46750000D01*
X56130000Y-46750000D01*
X56130000Y-46250000D01*
X56887500Y-46250000D01*
X56887500Y-45670363D01*
X56887499Y-45670359D01*
X56872111Y-45499366D01*
X56811178Y-45278579D01*
X56811173Y-45278568D01*
X56711792Y-45072200D01*
X56711790Y-45072196D01*
X56577160Y-44886894D01*
X56577153Y-44886886D01*
X56411598Y-44728599D01*
X56220438Y-44602414D01*
X56009811Y-44512389D01*
X56009805Y-44512387D01*
X55865000Y-44479336D01*
X55865000Y-45491090D01*
X55854161Y-45483440D01*
X55720765Y-45436031D01*
X55579525Y-45426370D01*
X55440916Y-45455173D01*
X55365000Y-45494509D01*
X55365000Y-44477243D01*
X55330694Y-44481890D01*
X55112852Y-44552672D01*
X54911152Y-44661211D01*
X54911149Y-44661213D01*
X54732071Y-44804023D01*
X54581365Y-44976519D01*
X54581364Y-44976521D01*
X54470947Y-45161327D01*
X54419665Y-45208780D01*
X54350867Y-45220975D01*
X54286398Y-45194040D01*
X54246726Y-45136525D01*
X54240500Y-45097727D01*
X54240500Y-35149256D01*
X54225074Y-34997560D01*
X54196186Y-34905489D01*
X54190499Y-34868368D01*
X54190499Y-33952129D01*
X54190498Y-33952123D01*
X54190497Y-33952116D01*
X54184091Y-33892517D01*
X54182940Y-33889432D01*
X54133797Y-33757671D01*
X54133793Y-33757664D01*
X54047547Y-33642455D01*
X54047544Y-33642452D01*
X53932335Y-33556206D01*
X53932328Y-33556202D01*
X53797482Y-33505908D01*
X53797483Y-33505908D01*
X53737883Y-33499501D01*
X53737881Y-33499500D01*
X53737873Y-33499500D01*
X53737864Y-33499500D01*
X52742129Y-33499500D01*
X52742123Y-33499501D01*
X52682518Y-33505908D01*
X52648331Y-33518659D01*
X52578639Y-33523642D01*
X52561669Y-33518659D01*
X52528810Y-33506404D01*
X52527483Y-33505909D01*
X52527482Y-33505908D01*
X52467883Y-33499501D01*
X52467881Y-33499500D01*
X52467873Y-33499500D01*
X52467864Y-33499500D01*
X51472129Y-33499500D01*
X51472123Y-33499501D01*
X51412518Y-33505908D01*
X51378331Y-33518659D01*
X51308639Y-33523642D01*
X51291669Y-33518659D01*
X51258810Y-33506404D01*
X51257483Y-33505909D01*
X51257482Y-33505908D01*
X51197883Y-33499501D01*
X51197881Y-33499500D01*
X51197873Y-33499500D01*
X51197864Y-33499500D01*
X50202129Y-33499500D01*
X50202123Y-33499501D01*
X50142518Y-33505908D01*
X50108331Y-33518659D01*
X50038639Y-33523642D01*
X50021669Y-33518659D01*
X49988810Y-33506404D01*
X49987483Y-33505909D01*
X49987482Y-33505908D01*
X49927883Y-33499501D01*
X49927881Y-33499500D01*
X49927873Y-33499500D01*
X49927864Y-33499500D01*
X48932129Y-33499500D01*
X48932123Y-33499501D01*
X48872518Y-33505908D01*
X48838331Y-33518659D01*
X48768639Y-33523642D01*
X48751669Y-33518659D01*
X48718810Y-33506404D01*
X48717483Y-33505909D01*
X48717482Y-33505908D01*
X48657883Y-33499501D01*
X48657881Y-33499500D01*
X48657873Y-33499500D01*
X48657864Y-33499500D01*
X47662129Y-33499500D01*
X47662123Y-33499501D01*
X47602518Y-33505908D01*
X47568331Y-33518659D01*
X47498639Y-33523642D01*
X47481669Y-33518659D01*
X47448810Y-33506404D01*
X47447483Y-33505909D01*
X47447482Y-33505908D01*
X47387883Y-33499501D01*
X47387881Y-33499500D01*
X47387873Y-33499500D01*
X47387864Y-33499500D01*
X46392129Y-33499500D01*
X46392123Y-33499501D01*
X46332518Y-33505908D01*
X46298331Y-33518659D01*
X46228639Y-33523642D01*
X46211669Y-33518659D01*
X46178810Y-33506404D01*
X46177483Y-33505909D01*
X46177482Y-33505908D01*
X46117883Y-33499501D01*
X46117881Y-33499500D01*
X46117873Y-33499500D01*
X46117864Y-33499500D01*
X45122129Y-33499500D01*
X45122123Y-33499501D01*
X45062516Y-33505908D01*
X44927671Y-33556202D01*
X44927664Y-33556206D01*
X44812455Y-33642452D01*
X44812452Y-33642455D01*
X44726206Y-33757664D01*
X44726202Y-33757671D01*
X44675908Y-33892517D01*
X44671251Y-33935841D01*
X44669501Y-33952123D01*
X44669500Y-33952135D01*
X44669500Y-34852394D01*
X44661239Y-34892601D01*
X44662341Y-34892947D01*
X44660461Y-34898938D01*
X44660460Y-34898941D01*
X44660460Y-34898942D01*
X44647665Y-34961206D01*
X44619500Y-35098258D01*
X44619500Y-46447798D01*
X44619201Y-46453878D01*
X44614659Y-46499999D01*
X44614659Y-46500000D01*
X43560000Y-46500000D01*
X43560000Y-46250000D01*
X44317500Y-46250000D01*
X44317500Y-45670363D01*
X44317499Y-45670359D01*
X44302111Y-45499366D01*
X44241178Y-45278579D01*
X44241173Y-45278568D01*
X44141792Y-45072200D01*
X44141790Y-45072196D01*
X44007160Y-44886894D01*
X44007153Y-44886886D01*
X43841598Y-44728599D01*
X43650438Y-44602414D01*
X43439811Y-44512389D01*
X43439805Y-44512387D01*
X43295000Y-44479336D01*
X43295000Y-45491090D01*
X43284161Y-45483440D01*
X43150765Y-45436031D01*
X43009525Y-45426370D01*
X42870916Y-45455173D01*
X42795000Y-45494509D01*
X42795000Y-44477243D01*
X42760694Y-44481890D01*
X42542852Y-44552672D01*
X42341152Y-44661211D01*
X42341149Y-44661213D01*
X42162071Y-44804023D01*
X42011365Y-44976519D01*
X42011364Y-44976521D01*
X41893881Y-45173152D01*
X41813399Y-45387600D01*
X41772500Y-45612970D01*
X41772500Y-46250000D01*
X42530000Y-46250000D01*
X42530000Y-46750000D01*
X41772500Y-46750000D01*
X41772500Y-47329640D01*
X39836177Y-47329640D01*
X39851310Y-47317220D01*
X39857840Y-47312535D01*
X39885571Y-47295252D01*
X39931288Y-47251793D01*
X39934631Y-47248839D01*
X39980883Y-47210883D01*
X40001717Y-47185495D01*
X40006915Y-47179904D01*
X40033053Y-47155059D01*
X40067143Y-47106079D01*
X40070088Y-47102185D01*
X40105910Y-47058538D01*
X40122989Y-47026582D01*
X40126770Y-47020410D01*
X40149295Y-46988049D01*
X40171504Y-46936293D01*
X40173783Y-46931554D01*
X40198814Y-46884727D01*
X40210309Y-46846828D01*
X40212656Y-46840398D01*
X40229540Y-46801058D01*
X40240196Y-46749201D01*
X40241587Y-46743723D01*
X40256024Y-46696132D01*
X40260237Y-46653345D01*
X40261202Y-46646982D01*
X40270500Y-46601741D01*
X40270500Y-46552200D01*
X40270799Y-46546119D01*
X40275341Y-46499999D01*
X40270799Y-46453878D01*
X40270500Y-46447798D01*
X40270500Y-35149256D01*
X40255074Y-34997560D01*
X40226186Y-34905489D01*
X40220499Y-34868368D01*
X40220499Y-33952129D01*
X40220498Y-33952123D01*
X40220497Y-33952116D01*
X40214091Y-33892517D01*
X40212940Y-33889432D01*
X40163797Y-33757671D01*
X40163793Y-33757664D01*
X40077547Y-33642455D01*
X40077544Y-33642452D01*
X39962335Y-33556206D01*
X39962328Y-33556202D01*
X39827482Y-33505908D01*
X39827483Y-33505908D01*
X39767883Y-33499501D01*
X39767881Y-33499500D01*
X39767873Y-33499500D01*
X39767864Y-33499500D01*
X38772129Y-33499500D01*
X38772123Y-33499501D01*
X38712518Y-33505908D01*
X38678331Y-33518659D01*
X38608639Y-33523642D01*
X38591669Y-33518659D01*
X38558810Y-33506404D01*
X38557483Y-33505909D01*
X38557482Y-33505908D01*
X38497883Y-33499501D01*
X38497881Y-33499500D01*
X38497873Y-33499500D01*
X38497864Y-33499500D01*
X37502129Y-33499500D01*
X37502123Y-33499501D01*
X37442518Y-33505908D01*
X37408331Y-33518659D01*
X37338639Y-33523642D01*
X37321669Y-33518659D01*
X37288810Y-33506404D01*
X37287483Y-33505909D01*
X37287482Y-33505908D01*
X37227883Y-33499501D01*
X37227881Y-33499500D01*
X37227873Y-33499500D01*
X37227865Y-33499500D01*
X36526471Y-33499500D01*
X36459432Y-33479815D01*
X36413677Y-33427011D01*
X36406256Y-33399960D01*
X36405380Y-33400168D01*
X36403596Y-33392620D01*
X36353354Y-33257913D01*
X36353350Y-33257906D01*
X36267190Y-33142812D01*
X36267187Y-33142809D01*
X36152093Y-33056649D01*
X36152086Y-33056645D01*
X36017379Y-33006403D01*
X36017372Y-33006401D01*
X35957844Y-33000000D01*
X35710000Y-33000000D01*
X35710000Y-36413982D01*
X35726666Y-36444504D01*
X35729500Y-36470862D01*
X35729500Y-45384891D01*
X35709815Y-45451930D01*
X35657011Y-45497685D01*
X35593346Y-45508294D01*
X35460000Y-45495161D01*
X35263969Y-45514468D01*
X35075461Y-45571652D01*
X34951475Y-45637922D01*
X34698522Y-45637922D01*
X34698522Y-45637921D01*
X34574538Y-45571652D01*
X34386030Y-45514468D01*
X34190000Y-45495161D01*
X33993969Y-45514468D01*
X33805461Y-45571652D01*
X33681475Y-45637922D01*
X33428522Y-45637922D01*
X33428522Y-45637921D01*
X33304538Y-45571652D01*
X33116030Y-45514468D01*
X32919999Y-45495161D01*
X32786654Y-45508294D01*
X32718008Y-45495275D01*
X32667298Y-45447210D01*
X32650500Y-45384891D01*
X32650500Y-36970862D01*
X32670000Y-36904453D01*
X32670000Y-35450000D01*
X33170000Y-35450000D01*
X33170000Y-36900000D01*
X33417828Y-36900000D01*
X33417844Y-36899999D01*
X33477372Y-36893598D01*
X33477375Y-36893597D01*
X33511665Y-36880808D01*
X33581356Y-36875822D01*
X33598335Y-36880808D01*
X33632624Y-36893597D01*
X33632627Y-36893598D01*
X33692155Y-36899999D01*
X33692172Y-36900000D01*
X33940000Y-36900000D01*
X34440000Y-36900000D01*
X34687828Y-36900000D01*
X34687844Y-36899999D01*
X34747372Y-36893598D01*
X34747379Y-36893596D01*
X34882086Y-36843354D01*
X34882093Y-36843350D01*
X34997187Y-36757190D01*
X34997190Y-36757187D01*
X35083350Y-36642093D01*
X35083354Y-36642086D01*
X35133596Y-36507379D01*
X35135380Y-36499832D01*
X35137543Y-36500343D01*
X35159975Y-36446192D01*
X35173891Y-36436529D01*
X35173681Y-36436319D01*
X35210000Y-36400000D01*
X35210000Y-33000000D01*
X34962155Y-33000000D01*
X34902627Y-33006401D01*
X34902620Y-33006403D01*
X34767913Y-33056645D01*
X34767906Y-33056649D01*
X34652812Y-33142809D01*
X34652809Y-33142812D01*
X34566649Y-33257906D01*
X34566645Y-33257913D01*
X34516403Y-33392620D01*
X34514620Y-33400168D01*
X34512456Y-33399656D01*
X34490025Y-33453808D01*
X34476108Y-33463470D01*
X34476319Y-33463681D01*
X34440000Y-33500000D01*
X34440000Y-36900000D01*
X33940000Y-36900000D01*
X33940000Y-35450000D01*
X33170000Y-35450000D01*
X32670000Y-35450000D01*
X32670000Y-33500000D01*
X33170000Y-33500000D01*
X33170000Y-34950000D01*
X33940000Y-34950000D01*
X33940000Y-33500000D01*
X33692155Y-33500000D01*
X33632627Y-33506401D01*
X33632616Y-33506404D01*
X33598332Y-33519191D01*
X33528640Y-33524175D01*
X33511668Y-33519191D01*
X33477383Y-33506404D01*
X33477372Y-33506401D01*
X33417844Y-33500000D01*
X33170000Y-33500000D01*
X32670000Y-33500000D01*
X32422155Y-33500000D01*
X32362627Y-33506401D01*
X32362619Y-33506403D01*
X32329047Y-33518925D01*
X32259355Y-33523909D01*
X32242381Y-33518925D01*
X32207482Y-33505908D01*
X32207483Y-33505908D01*
X32147883Y-33499501D01*
X32147881Y-33499500D01*
X32147873Y-33499500D01*
X32147864Y-33499500D01*
X31152129Y-33499500D01*
X31152123Y-33499501D01*
X31092518Y-33505908D01*
X31058331Y-33518659D01*
X30988639Y-33523642D01*
X30971669Y-33518659D01*
X30938810Y-33506404D01*
X30937483Y-33505909D01*
X30937482Y-33505908D01*
X30877883Y-33499501D01*
X30877881Y-33499500D01*
X30877873Y-33499500D01*
X30877864Y-33499500D01*
X29882129Y-33499500D01*
X29882123Y-33499501D01*
X29822518Y-33505908D01*
X29788331Y-33518659D01*
X29718639Y-33523642D01*
X29701669Y-33518659D01*
X29668810Y-33506404D01*
X29667483Y-33505909D01*
X29667482Y-33505908D01*
X29607883Y-33499501D01*
X29607881Y-33499500D01*
X29607873Y-33499500D01*
X29607864Y-33499500D01*
X28612129Y-33499500D01*
X28612123Y-33499501D01*
X28552520Y-33505908D01*
X28552517Y-33505908D01*
X28552517Y-33505909D01*
X28517620Y-33518925D01*
X28517617Y-33518926D01*
X28447925Y-33523909D01*
X28430952Y-33518925D01*
X28397379Y-33506403D01*
X28397372Y-33506401D01*
X28337844Y-33500000D01*
X28253951Y-33500000D01*
X28186912Y-33480315D01*
X28141157Y-33427511D01*
X28131213Y-33358353D01*
X28160238Y-33294797D01*
X28166270Y-33288319D01*
X28196677Y-33257913D01*
X30192772Y-31261819D01*
X30254095Y-31228334D01*
X30280453Y-31225500D01*
X53121319Y-31225500D01*
X53188358Y-31245185D01*
X53234113Y-31297989D01*
X53244057Y-31367147D01*
X53215032Y-31430703D01*
X53207069Y-31438454D01*
X53207240Y-31438625D01*
X53202934Y-31442930D01*
X53069783Y-31605174D01*
X53069779Y-31605181D01*
X52970844Y-31790276D01*
X52909917Y-31991123D01*
X52889345Y-32200000D01*
X52909917Y-32408876D01*
X52970844Y-32609723D01*
X53069779Y-32794818D01*
X53069783Y-32794825D01*
X53202932Y-32957067D01*
X53365174Y-33090216D01*
X53365181Y-33090220D01*
X53550276Y-33189155D01*
X53550278Y-33189156D01*
X53751126Y-33250083D01*
X53907660Y-33265500D01*
X53907663Y-33265500D01*
X54012337Y-33265500D01*
X54012340Y-33265500D01*
X54168874Y-33250083D01*
X54369722Y-33189156D01*
X54554824Y-33090217D01*
X54599834Y-33053277D01*
X54664144Y-33025964D01*
X54733012Y-33037755D01*
X54784572Y-33084906D01*
X54802500Y-33149130D01*
X54802500Y-33804640D01*
X54817888Y-33975633D01*
X54878821Y-34196420D01*
X54878826Y-34196431D01*
X54978207Y-34402799D01*
X54978209Y-34402803D01*
X55112839Y-34588105D01*
X55112846Y-34588113D01*
X55278401Y-34746400D01*
X55469561Y-34872585D01*
X55680190Y-34962611D01*
X55680193Y-34962612D01*
X55825000Y-34995663D01*
X55825000Y-33983909D01*
X55835839Y-33991560D01*
X55969235Y-34038969D01*
X56110475Y-34048630D01*
X56249084Y-34019827D01*
X56325000Y-33980490D01*
X56325000Y-34997756D01*
X56359296Y-34993111D01*
X56359300Y-34993110D01*
X56577147Y-34922327D01*
X56778847Y-34813788D01*
X56778850Y-34813786D01*
X56957928Y-34670976D01*
X57108634Y-34498480D01*
X57108635Y-34498478D01*
X57226118Y-34301847D01*
X57306600Y-34087399D01*
X57347500Y-33862029D01*
X57347500Y-33225000D01*
X56590000Y-33225000D01*
X56590000Y-32725000D01*
X57347500Y-32725000D01*
X57347500Y-32145363D01*
X57347499Y-32145359D01*
X57332111Y-31974366D01*
X57271178Y-31753579D01*
X57271173Y-31753568D01*
X57171792Y-31547200D01*
X57171790Y-31547197D01*
X57081109Y-31422385D01*
X57057629Y-31356579D01*
X57073454Y-31288525D01*
X57123560Y-31239830D01*
X57181427Y-31225500D01*
X60689548Y-31225500D01*
X60756587Y-31245185D01*
X60777229Y-31261819D01*
X60981107Y-31465697D01*
X61014592Y-31527020D01*
X61015266Y-31572742D01*
X61015414Y-31572756D01*
X61015287Y-31574125D01*
X61015317Y-31576153D01*
X61014884Y-31578465D01*
X60994357Y-31799999D01*
X60994357Y-31800000D01*
X61014884Y-32021535D01*
X61014885Y-32021537D01*
X61075769Y-32235523D01*
X61075775Y-32235538D01*
X61174938Y-32434683D01*
X61174943Y-32434691D01*
X61309020Y-32612238D01*
X61473437Y-32762123D01*
X61473439Y-32762125D01*
X61662595Y-32879245D01*
X61662596Y-32879245D01*
X61662599Y-32879247D01*
X61870060Y-32959618D01*
X62088757Y-33000500D01*
X62088759Y-33000500D01*
X62311240Y-33000500D01*
X62311243Y-33000500D01*
X62419427Y-32980276D01*
X62488942Y-32987307D01*
X62529893Y-33014484D01*
X63168181Y-33652771D01*
X63201666Y-33714094D01*
X63204500Y-33740452D01*
X63204500Y-38430416D01*
X63184815Y-38497455D01*
X63132011Y-38543210D01*
X63062853Y-38553154D01*
X62999297Y-38524129D01*
X62996962Y-38522054D01*
X62969978Y-38497455D01*
X62926562Y-38457876D01*
X62926559Y-38457874D01*
X62926558Y-38457873D01*
X62737404Y-38340754D01*
X62737398Y-38340752D01*
X62529940Y-38260382D01*
X62311243Y-38219500D01*
X62088757Y-38219500D01*
X61870060Y-38260382D01*
X61741889Y-38310036D01*
X61662601Y-38340752D01*
X61662595Y-38340754D01*
X61473439Y-38457874D01*
X61473437Y-38457876D01*
X61309020Y-38607761D01*
X61174943Y-38785308D01*
X61174938Y-38785316D01*
X61075775Y-38984461D01*
X61075769Y-38984476D01*
X61014885Y-39198462D01*
X61014884Y-39198464D01*
X60994357Y-39419999D01*
X60994357Y-39420000D01*
X61014884Y-39641535D01*
X61014885Y-39641537D01*
X61075769Y-39855523D01*
X61075775Y-39855538D01*
X61174938Y-40054683D01*
X61174943Y-40054691D01*
X61309020Y-40232238D01*
X61473437Y-40382123D01*
X61473439Y-40382125D01*
X61662595Y-40499245D01*
X61662596Y-40499245D01*
X61662599Y-40499247D01*
X61870060Y-40579618D01*
X62088757Y-40620500D01*
X62088759Y-40620500D01*
X62311241Y-40620500D01*
X62311243Y-40620500D01*
X62529940Y-40579618D01*
X62737401Y-40499247D01*
X62926562Y-40382124D01*
X62987368Y-40326692D01*
X62996962Y-40317946D01*
X63059766Y-40287329D01*
X63129153Y-40295526D01*
X63183093Y-40339936D01*
X63204461Y-40406458D01*
X63204500Y-40409583D01*
X63204500Y-42525500D01*
X63184815Y-42592539D01*
X63132011Y-42638294D01*
X63080500Y-42649500D01*
X61987129Y-42649500D01*
X61987123Y-42649501D01*
X61927516Y-42655908D01*
X61792671Y-42706202D01*
X61792664Y-42706206D01*
X61677455Y-42792452D01*
X61677452Y-42792455D01*
X61591206Y-42907664D01*
X61591202Y-42907671D01*
X61540908Y-43042517D01*
X61534501Y-43102116D01*
X61534500Y-43102135D01*
X61534500Y-44697870D01*
X61534501Y-44697876D01*
X61540908Y-44757483D01*
X61591202Y-44892328D01*
X61591206Y-44892335D01*
X61677452Y-45007544D01*
X61677455Y-45007547D01*
X61792664Y-45093793D01*
X61792671Y-45093797D01*
X61927517Y-45144091D01*
X61927516Y-45144091D01*
X61934444Y-45144835D01*
X61987127Y-45150500D01*
X63132872Y-45150499D01*
X63192483Y-45144091D01*
X63327331Y-45093796D01*
X63327335Y-45093792D01*
X63335118Y-45089544D01*
X63336252Y-45091621D01*
X63389715Y-45071671D01*
X63434576Y-45076694D01*
X63435656Y-45077021D01*
X63435659Y-45077023D01*
X63628967Y-45135662D01*
X63830000Y-45155462D01*
X64031033Y-45135662D01*
X64224341Y-45077023D01*
X64402494Y-44981798D01*
X64402498Y-44981794D01*
X64406546Y-44979631D01*
X64474949Y-44965389D01*
X64523454Y-44979631D01*
X64527502Y-44981794D01*
X64527506Y-44981798D01*
X64705659Y-45077023D01*
X64898967Y-45135662D01*
X65100000Y-45155462D01*
X65301033Y-45135662D01*
X65494341Y-45077023D01*
X65672494Y-44981798D01*
X65828647Y-44853647D01*
X65956798Y-44697494D01*
X66052023Y-44519341D01*
X66110662Y-44326033D01*
X66125500Y-44175380D01*
X66125500Y-43624620D01*
X66110662Y-43473967D01*
X66052023Y-43280659D01*
X66052021Y-43280656D01*
X66052021Y-43280654D01*
X66008910Y-43200000D01*
X67194357Y-43200000D01*
X67214884Y-43421535D01*
X67214885Y-43421537D01*
X67275769Y-43635523D01*
X67275775Y-43635538D01*
X67374938Y-43834683D01*
X67374943Y-43834691D01*
X67509020Y-44012238D01*
X67673437Y-44162123D01*
X67673439Y-44162125D01*
X67862595Y-44279245D01*
X67862596Y-44279245D01*
X67862599Y-44279247D01*
X68070060Y-44359618D01*
X68288757Y-44400500D01*
X68288759Y-44400500D01*
X68511241Y-44400500D01*
X68511243Y-44400500D01*
X68729940Y-44359618D01*
X68937401Y-44279247D01*
X69126562Y-44162124D01*
X69290981Y-44012236D01*
X69394788Y-43874772D01*
X69450897Y-43833137D01*
X69493742Y-43825500D01*
X73189548Y-43825500D01*
X73256587Y-43845185D01*
X73277229Y-43861819D01*
X75838181Y-46422771D01*
X75871666Y-46484094D01*
X75874500Y-46510452D01*
X75874500Y-57117255D01*
X75872775Y-57132872D01*
X75873061Y-57132899D01*
X75872326Y-57140665D01*
X75874500Y-57209814D01*
X75874500Y-57239343D01*
X75874501Y-57239360D01*
X75875368Y-57246231D01*
X75875826Y-57252050D01*
X75877290Y-57298624D01*
X75877291Y-57298627D01*
X75882880Y-57317867D01*
X75886824Y-57336911D01*
X75889336Y-57356791D01*
X75906490Y-57400119D01*
X75908382Y-57405647D01*
X75921381Y-57450388D01*
X75931580Y-57467634D01*
X75940138Y-57485103D01*
X75947514Y-57503732D01*
X75974898Y-57541423D01*
X75978106Y-57546307D01*
X76001827Y-57586416D01*
X76001833Y-57586424D01*
X76015990Y-57600580D01*
X76028628Y-57615376D01*
X76040405Y-57631586D01*
X76040406Y-57631587D01*
X76076309Y-57661288D01*
X76080620Y-57665210D01*
X76807842Y-58392433D01*
X77049197Y-58633788D01*
X77059022Y-58646051D01*
X77059243Y-58645869D01*
X77064214Y-58651878D01*
X77090217Y-58676295D01*
X77114635Y-58699226D01*
X77135529Y-58720120D01*
X77141011Y-58724373D01*
X77145443Y-58728157D01*
X77179418Y-58760062D01*
X77196976Y-58769714D01*
X77213235Y-58780395D01*
X77229064Y-58792673D01*
X77271838Y-58811182D01*
X77277056Y-58813738D01*
X77317908Y-58836197D01*
X77337316Y-58841180D01*
X77355717Y-58847480D01*
X77374104Y-58855437D01*
X77417488Y-58862308D01*
X77420119Y-58862725D01*
X77425839Y-58863909D01*
X77470981Y-58875500D01*
X77491016Y-58875500D01*
X77510414Y-58877026D01*
X77530194Y-58880159D01*
X77530195Y-58880160D01*
X77530195Y-58880159D01*
X77530196Y-58880160D01*
X77576584Y-58875775D01*
X77582422Y-58875500D01*
X83145500Y-58875500D01*
X83212539Y-58895185D01*
X83258294Y-58947989D01*
X83269500Y-58999500D01*
X83269500Y-60797870D01*
X83269501Y-60797876D01*
X83275908Y-60857483D01*
X83326202Y-60992328D01*
X83326206Y-60992335D01*
X83412452Y-61107544D01*
X83412455Y-61107547D01*
X83527664Y-61193793D01*
X83527671Y-61193797D01*
X83662517Y-61244091D01*
X83662516Y-61244091D01*
X83669444Y-61244835D01*
X83722127Y-61250500D01*
X85517872Y-61250499D01*
X85577483Y-61244091D01*
X85712331Y-61193796D01*
X85827546Y-61107546D01*
X85913796Y-60992331D01*
X85962810Y-60860916D01*
X86004681Y-60804984D01*
X86070145Y-60780566D01*
X86138418Y-60795417D01*
X86166673Y-60816569D01*
X86288599Y-60938495D01*
X86385384Y-61006265D01*
X86482165Y-61074032D01*
X86482167Y-61074033D01*
X86482170Y-61074035D01*
X86696337Y-61173903D01*
X86924592Y-61235063D01*
X87101034Y-61250500D01*
X87159999Y-61255659D01*
X87160000Y-61255659D01*
X87160001Y-61255659D01*
X87218966Y-61250500D01*
X87395408Y-61235063D01*
X87623663Y-61173903D01*
X87837830Y-61074035D01*
X88031401Y-60938495D01*
X88198495Y-60771401D01*
X88328425Y-60585842D01*
X88383002Y-60542217D01*
X88452500Y-60535023D01*
X88514855Y-60566546D01*
X88531575Y-60585842D01*
X88661281Y-60771082D01*
X88661505Y-60771401D01*
X88828599Y-60938495D01*
X88925384Y-61006265D01*
X89022165Y-61074032D01*
X89022167Y-61074033D01*
X89022170Y-61074035D01*
X89236337Y-61173903D01*
X89464592Y-61235063D01*
X89641034Y-61250500D01*
X89699999Y-61255659D01*
X89700000Y-61255659D01*
X89700001Y-61255659D01*
X89758966Y-61250500D01*
X89935408Y-61235063D01*
X90163663Y-61173903D01*
X90377830Y-61074035D01*
X90571401Y-60938495D01*
X90738495Y-60771401D01*
X90868425Y-60585842D01*
X90923002Y-60542217D01*
X90992500Y-60535023D01*
X91054855Y-60566546D01*
X91071575Y-60585842D01*
X91201281Y-60771082D01*
X91201505Y-60771401D01*
X91368599Y-60938495D01*
X91465384Y-61006265D01*
X91562165Y-61074032D01*
X91562167Y-61074033D01*
X91562170Y-61074035D01*
X91776337Y-61173903D01*
X92004592Y-61235063D01*
X92181034Y-61250500D01*
X92239999Y-61255659D01*
X92240000Y-61255659D01*
X92240001Y-61255659D01*
X92298966Y-61250500D01*
X92475408Y-61235063D01*
X92703663Y-61173903D01*
X92917830Y-61074035D01*
X93111401Y-60938495D01*
X93278495Y-60771401D01*
X93408730Y-60585405D01*
X93463307Y-60541781D01*
X93532805Y-60534587D01*
X93595160Y-60566110D01*
X93611879Y-60585405D01*
X93741890Y-60771078D01*
X93908917Y-60938105D01*
X94102421Y-61073600D01*
X94316507Y-61173429D01*
X94316516Y-61173433D01*
X94530000Y-61230634D01*
X94530000Y-60335501D01*
X94637685Y-60384680D01*
X94744237Y-60400000D01*
X94815763Y-60400000D01*
X94922315Y-60384680D01*
X95030000Y-60335501D01*
X95030000Y-61230633D01*
X95243483Y-61173433D01*
X95243492Y-61173429D01*
X95457578Y-61073600D01*
X95651082Y-60938105D01*
X95818105Y-60771082D01*
X95953600Y-60577578D01*
X96053429Y-60363492D01*
X96053432Y-60363486D01*
X96110636Y-60150000D01*
X95213686Y-60150000D01*
X95239493Y-60109844D01*
X95280000Y-59971889D01*
X95280000Y-59828111D01*
X95239493Y-59690156D01*
X95213686Y-59650000D01*
X96110636Y-59650000D01*
X96110635Y-59649999D01*
X96053432Y-59436513D01*
X96053429Y-59436507D01*
X95953600Y-59222422D01*
X95953599Y-59222420D01*
X95818113Y-59028926D01*
X95818108Y-59028920D01*
X95651082Y-58861894D01*
X95457578Y-58726399D01*
X95243492Y-58626570D01*
X95243486Y-58626567D01*
X95030000Y-58569364D01*
X95030000Y-59464498D01*
X94922315Y-59415320D01*
X94815763Y-59400000D01*
X94744237Y-59400000D01*
X94637685Y-59415320D01*
X94530000Y-59464498D01*
X94530000Y-58569364D01*
X94529999Y-58569364D01*
X94316513Y-58626567D01*
X94316507Y-58626570D01*
X94102422Y-58726399D01*
X94102420Y-58726400D01*
X93908926Y-58861886D01*
X93908920Y-58861891D01*
X93741891Y-59028920D01*
X93741890Y-59028922D01*
X93611880Y-59214595D01*
X93557303Y-59258219D01*
X93487804Y-59265412D01*
X93425450Y-59233890D01*
X93408730Y-59214594D01*
X93278494Y-59028597D01*
X93111402Y-58861506D01*
X93111401Y-58861505D01*
X92966521Y-58760059D01*
X92918376Y-58726347D01*
X92874751Y-58671770D01*
X92865500Y-58624772D01*
X92865500Y-56050000D01*
X95123505Y-56050000D01*
X95176239Y-56235349D01*
X95275368Y-56434425D01*
X95409391Y-56611900D01*
X95573738Y-56761721D01*
X95762820Y-56878797D01*
X95762822Y-56878798D01*
X95970195Y-56959135D01*
X96050000Y-56974052D01*
X96050000Y-56050000D01*
X95123505Y-56050000D01*
X92865500Y-56050000D01*
X92865500Y-55829302D01*
X95946372Y-55829302D01*
X95975047Y-55942538D01*
X96038936Y-56040327D01*
X96131115Y-56112072D01*
X96241595Y-56150000D01*
X96329005Y-56150000D01*
X96415216Y-56135614D01*
X96517947Y-56080019D01*
X96545581Y-56050000D01*
X96550000Y-56050000D01*
X96550000Y-56974052D01*
X96629804Y-56959135D01*
X96837177Y-56878798D01*
X96837179Y-56878797D01*
X97026261Y-56761721D01*
X97190608Y-56611900D01*
X97324631Y-56434425D01*
X97423760Y-56235349D01*
X97476495Y-56050000D01*
X96550000Y-56050000D01*
X96545581Y-56050000D01*
X96597060Y-55994079D01*
X96643982Y-55887108D01*
X96653628Y-55770698D01*
X96624953Y-55657462D01*
X96561064Y-55559673D01*
X96468885Y-55487928D01*
X96358405Y-55450000D01*
X96270995Y-55450000D01*
X96184784Y-55464386D01*
X96082053Y-55519981D01*
X96002940Y-55605921D01*
X95956018Y-55712892D01*
X95946372Y-55829302D01*
X92865500Y-55829302D01*
X92865500Y-55767738D01*
X92867224Y-55752124D01*
X92866938Y-55752097D01*
X92867672Y-55744334D01*
X92865500Y-55675203D01*
X92865500Y-55645651D01*
X92865500Y-55645650D01*
X92864629Y-55638759D01*
X92864172Y-55632945D01*
X92862709Y-55586372D01*
X92857122Y-55567144D01*
X92853571Y-55550000D01*
X95123505Y-55550000D01*
X96050000Y-55550000D01*
X96050000Y-54625946D01*
X96550000Y-54625946D01*
X96550000Y-55550000D01*
X97476495Y-55550000D01*
X97423760Y-55364650D01*
X97324631Y-55165574D01*
X97190608Y-54988099D01*
X97026261Y-54838278D01*
X96837179Y-54721202D01*
X96837177Y-54721201D01*
X96629799Y-54640864D01*
X96550000Y-54625946D01*
X96050000Y-54625946D01*
X95970200Y-54640864D01*
X95762822Y-54721201D01*
X95762820Y-54721202D01*
X95573738Y-54838278D01*
X95409391Y-54988099D01*
X95275368Y-55165574D01*
X95176239Y-55364650D01*
X95123505Y-55550000D01*
X92853571Y-55550000D01*
X92853174Y-55548084D01*
X92850664Y-55528208D01*
X92833507Y-55484875D01*
X92831619Y-55479359D01*
X92818619Y-55434612D01*
X92808418Y-55417363D01*
X92799860Y-55399894D01*
X92792486Y-55381268D01*
X92792483Y-55381264D01*
X92792483Y-55381263D01*
X92765098Y-55343571D01*
X92761890Y-55338687D01*
X92738172Y-55298582D01*
X92738163Y-55298571D01*
X92724005Y-55284413D01*
X92711370Y-55269620D01*
X92699593Y-55253412D01*
X92663693Y-55223713D01*
X92659381Y-55219790D01*
X90181931Y-52742340D01*
X90148446Y-52681017D01*
X90153430Y-52611325D01*
X90195302Y-52555392D01*
X90260766Y-52530975D01*
X90269612Y-52530659D01*
X90270001Y-52530659D01*
X90328966Y-52525500D01*
X90505408Y-52510063D01*
X90733663Y-52448903D01*
X90947830Y-52349035D01*
X91141401Y-52213495D01*
X91308495Y-52046401D01*
X91438425Y-51860842D01*
X91493002Y-51817217D01*
X91562500Y-51810023D01*
X91624855Y-51841546D01*
X91641575Y-51860842D01*
X91771281Y-52046082D01*
X91771505Y-52046401D01*
X91938599Y-52213495D01*
X92035384Y-52281265D01*
X92132165Y-52349032D01*
X92132167Y-52349033D01*
X92132170Y-52349035D01*
X92346337Y-52448903D01*
X92574592Y-52510063D01*
X92751034Y-52525500D01*
X92809999Y-52530659D01*
X92810000Y-52530659D01*
X92810001Y-52530659D01*
X92868966Y-52525500D01*
X93045408Y-52510063D01*
X93273663Y-52448903D01*
X93487830Y-52349035D01*
X93681401Y-52213495D01*
X93848495Y-52046401D01*
X93978730Y-51860405D01*
X94033307Y-51816781D01*
X94102805Y-51809587D01*
X94165160Y-51841110D01*
X94181879Y-51860405D01*
X94311890Y-52046078D01*
X94478917Y-52213105D01*
X94672421Y-52348600D01*
X94886507Y-52448429D01*
X94886516Y-52448433D01*
X95100000Y-52505634D01*
X95100000Y-51610501D01*
X95207685Y-51659680D01*
X95314237Y-51675000D01*
X95385763Y-51675000D01*
X95492315Y-51659680D01*
X95600000Y-51610501D01*
X95600000Y-52505633D01*
X95813483Y-52448433D01*
X95813492Y-52448429D01*
X96027578Y-52348600D01*
X96221082Y-52213105D01*
X96388105Y-52046082D01*
X96523600Y-51852578D01*
X96623429Y-51638492D01*
X96623432Y-51638486D01*
X96680636Y-51425000D01*
X95783686Y-51425000D01*
X95809493Y-51384844D01*
X95850000Y-51246889D01*
X95850000Y-51103111D01*
X95809493Y-50965156D01*
X95783686Y-50925000D01*
X96680636Y-50925000D01*
X96680635Y-50924999D01*
X96623432Y-50711513D01*
X96623429Y-50711507D01*
X96523600Y-50497422D01*
X96523599Y-50497420D01*
X96388113Y-50303926D01*
X96388108Y-50303920D01*
X96221082Y-50136894D01*
X96027578Y-50001399D01*
X95813492Y-49901570D01*
X95813486Y-49901567D01*
X95600000Y-49844364D01*
X95600000Y-50739498D01*
X95492315Y-50690320D01*
X95385763Y-50675000D01*
X95314237Y-50675000D01*
X95207685Y-50690320D01*
X95100000Y-50739498D01*
X95100000Y-49844364D01*
X95099999Y-49844364D01*
X94886513Y-49901567D01*
X94886507Y-49901570D01*
X94672422Y-50001399D01*
X94672420Y-50001400D01*
X94478926Y-50136886D01*
X94478920Y-50136891D01*
X94311891Y-50303920D01*
X94311890Y-50303922D01*
X94181880Y-50489595D01*
X94127303Y-50533219D01*
X94057804Y-50540412D01*
X93995450Y-50508890D01*
X93978730Y-50489594D01*
X93848494Y-50303597D01*
X93681402Y-50136506D01*
X93681395Y-50136501D01*
X93487834Y-50000967D01*
X93487830Y-50000965D01*
X93442474Y-49979815D01*
X93273663Y-49901097D01*
X93273659Y-49901096D01*
X93273655Y-49901094D01*
X93045413Y-49839938D01*
X93045403Y-49839936D01*
X92810001Y-49819341D01*
X92809999Y-49819341D01*
X92574596Y-49839936D01*
X92574586Y-49839938D01*
X92346344Y-49901094D01*
X92346335Y-49901098D01*
X92132171Y-50000964D01*
X92132169Y-50000965D01*
X91938597Y-50136505D01*
X91771505Y-50303597D01*
X91641575Y-50489158D01*
X91586998Y-50532783D01*
X91517500Y-50539977D01*
X91455145Y-50508454D01*
X91438425Y-50489158D01*
X91308494Y-50303597D01*
X91141402Y-50136506D01*
X91141395Y-50136501D01*
X90947834Y-50000967D01*
X90947830Y-50000965D01*
X90902474Y-49979815D01*
X90733663Y-49901097D01*
X90733659Y-49901096D01*
X90733655Y-49901094D01*
X90505413Y-49839938D01*
X90505403Y-49839936D01*
X90270001Y-49819341D01*
X90269999Y-49819341D01*
X90034596Y-49839936D01*
X90034586Y-49839938D01*
X89806344Y-49901094D01*
X89806335Y-49901098D01*
X89592171Y-50000964D01*
X89592169Y-50000965D01*
X89398597Y-50136505D01*
X89231505Y-50303597D01*
X89101575Y-50489158D01*
X89046998Y-50532783D01*
X88977500Y-50539977D01*
X88915145Y-50508454D01*
X88898425Y-50489158D01*
X88768494Y-50303597D01*
X88601402Y-50136506D01*
X88601395Y-50136501D01*
X88407834Y-50000967D01*
X88407830Y-50000965D01*
X88362474Y-49979815D01*
X88193663Y-49901097D01*
X88193659Y-49901096D01*
X88193655Y-49901094D01*
X87965413Y-49839938D01*
X87965403Y-49839936D01*
X87730001Y-49819341D01*
X87729999Y-49819341D01*
X87494596Y-49839936D01*
X87494586Y-49839938D01*
X87266344Y-49901094D01*
X87266335Y-49901098D01*
X87052171Y-50000964D01*
X87052169Y-50000965D01*
X86858597Y-50136505D01*
X86691505Y-50303597D01*
X86561575Y-50489158D01*
X86506998Y-50532783D01*
X86437500Y-50539977D01*
X86375145Y-50508454D01*
X86358425Y-50489158D01*
X86228494Y-50303597D01*
X86061402Y-50136506D01*
X86061395Y-50136501D01*
X85867834Y-50000967D01*
X85867830Y-50000965D01*
X85822474Y-49979815D01*
X85653663Y-49901097D01*
X85653659Y-49901096D01*
X85653655Y-49901094D01*
X85425413Y-49839938D01*
X85425403Y-49839936D01*
X85190001Y-49819341D01*
X85189999Y-49819341D01*
X84954596Y-49839936D01*
X84954586Y-49839938D01*
X84726344Y-49901094D01*
X84726335Y-49901098D01*
X84512171Y-50000964D01*
X84512169Y-50000965D01*
X84318600Y-50136503D01*
X84196673Y-50258430D01*
X84135350Y-50291914D01*
X84065658Y-50286930D01*
X84009725Y-50245058D01*
X83992810Y-50214081D01*
X83943797Y-50082671D01*
X83943793Y-50082664D01*
X83857547Y-49967455D01*
X83857544Y-49967452D01*
X83742335Y-49881206D01*
X83742328Y-49881202D01*
X83607482Y-49830908D01*
X83607483Y-49830908D01*
X83547883Y-49824501D01*
X83547881Y-49824500D01*
X83547873Y-49824500D01*
X83547864Y-49824500D01*
X81752129Y-49824500D01*
X81752123Y-49824501D01*
X81692516Y-49830908D01*
X81557671Y-49881202D01*
X81557664Y-49881206D01*
X81442455Y-49967452D01*
X81442452Y-49967455D01*
X81356206Y-50082664D01*
X81356202Y-50082671D01*
X81305908Y-50217517D01*
X81299501Y-50277116D01*
X81299500Y-50277135D01*
X81299500Y-52072870D01*
X81299501Y-52072876D01*
X81305908Y-52132483D01*
X81356202Y-52267328D01*
X81356206Y-52267335D01*
X81442452Y-52382544D01*
X81442455Y-52382547D01*
X81557664Y-52468793D01*
X81557671Y-52468797D01*
X81692517Y-52519091D01*
X81692516Y-52519091D01*
X81699444Y-52519835D01*
X81752127Y-52525500D01*
X83547872Y-52525499D01*
X83607483Y-52519091D01*
X83742331Y-52468796D01*
X83857546Y-52382546D01*
X83943796Y-52267331D01*
X83992810Y-52135916D01*
X84034681Y-52079984D01*
X84100145Y-52055566D01*
X84168418Y-52070417D01*
X84196673Y-52091569D01*
X84318599Y-52213495D01*
X84509967Y-52347492D01*
X84553591Y-52402068D01*
X84562782Y-52445169D01*
X84564500Y-52499813D01*
X84564500Y-52529343D01*
X84564501Y-52529360D01*
X84565368Y-52536231D01*
X84565826Y-52542050D01*
X84567290Y-52588624D01*
X84567291Y-52588627D01*
X84572880Y-52607867D01*
X84576824Y-52626911D01*
X84579336Y-52646791D01*
X84596490Y-52690119D01*
X84598382Y-52695647D01*
X84611381Y-52740388D01*
X84621580Y-52757634D01*
X84630138Y-52775103D01*
X84637514Y-52793732D01*
X84664898Y-52831423D01*
X84668106Y-52836307D01*
X84691827Y-52876416D01*
X84691833Y-52876424D01*
X84705990Y-52890580D01*
X84718628Y-52905376D01*
X84730405Y-52921586D01*
X84730406Y-52921587D01*
X84766309Y-52951288D01*
X84770620Y-52955210D01*
X85118247Y-53302837D01*
X86099197Y-54283788D01*
X86109022Y-54296051D01*
X86109243Y-54295869D01*
X86114214Y-54301878D01*
X86140217Y-54326295D01*
X86164635Y-54349226D01*
X86185529Y-54370120D01*
X86191011Y-54374373D01*
X86195443Y-54378157D01*
X86229418Y-54410062D01*
X86246976Y-54419714D01*
X86263235Y-54430395D01*
X86279064Y-54442673D01*
X86321838Y-54461182D01*
X86327056Y-54463738D01*
X86367908Y-54486197D01*
X86387316Y-54491180D01*
X86405717Y-54497480D01*
X86424104Y-54505437D01*
X86467488Y-54512308D01*
X86470119Y-54512725D01*
X86475839Y-54513909D01*
X86520981Y-54525500D01*
X86541016Y-54525500D01*
X86560414Y-54527026D01*
X86580194Y-54530159D01*
X86580195Y-54530160D01*
X86580195Y-54530159D01*
X86580196Y-54530160D01*
X86626584Y-54525775D01*
X86632422Y-54525500D01*
X88022128Y-54525500D01*
X88089167Y-54545185D01*
X88134922Y-54597989D01*
X88144866Y-54667147D01*
X88115841Y-54730703D01*
X88087405Y-54754927D01*
X87953439Y-54837874D01*
X87953437Y-54837876D01*
X87789020Y-54987761D01*
X87654943Y-55165308D01*
X87654938Y-55165316D01*
X87555775Y-55364461D01*
X87555769Y-55364476D01*
X87494885Y-55578462D01*
X87494884Y-55578464D01*
X87474357Y-55799999D01*
X87474357Y-55800000D01*
X87494886Y-56021546D01*
X87495317Y-56023854D01*
X87495203Y-56024973D01*
X87495414Y-56027244D01*
X87494969Y-56027285D01*
X87488275Y-56093368D01*
X87461106Y-56134301D01*
X86457228Y-57138181D01*
X86395905Y-57171666D01*
X86369547Y-57174500D01*
X85947226Y-57174500D01*
X85880187Y-57154815D01*
X85834432Y-57102011D01*
X85824488Y-57032853D01*
X85853513Y-56969297D01*
X85902432Y-56934873D01*
X86047177Y-56878798D01*
X86047179Y-56878797D01*
X86236261Y-56761721D01*
X86400608Y-56611900D01*
X86534631Y-56434425D01*
X86633760Y-56235349D01*
X86686495Y-56050000D01*
X85755581Y-56050000D01*
X85807060Y-55994079D01*
X85853982Y-55887108D01*
X85863628Y-55770698D01*
X85834953Y-55657462D01*
X85771064Y-55559673D01*
X85678885Y-55487928D01*
X85568405Y-55450000D01*
X85480995Y-55450000D01*
X85394784Y-55464386D01*
X85292053Y-55519981D01*
X85212940Y-55605921D01*
X85166018Y-55712892D01*
X85156372Y-55829302D01*
X85185047Y-55942538D01*
X85248936Y-56040327D01*
X85261364Y-56050000D01*
X84333505Y-56050000D01*
X84386239Y-56235349D01*
X84485368Y-56434425D01*
X84619391Y-56611900D01*
X84783738Y-56761721D01*
X84972820Y-56878797D01*
X84972822Y-56878798D01*
X85117568Y-56934873D01*
X85172970Y-56977446D01*
X85196560Y-57043213D01*
X85180849Y-57111293D01*
X85130825Y-57160072D01*
X85072774Y-57174500D01*
X82910452Y-57174500D01*
X82843413Y-57154815D01*
X82822771Y-57138181D01*
X81234590Y-55550000D01*
X84333505Y-55550000D01*
X85260000Y-55550000D01*
X85260000Y-54625946D01*
X85760000Y-54625946D01*
X85760000Y-55550000D01*
X86686495Y-55550000D01*
X86633760Y-55364650D01*
X86534631Y-55165574D01*
X86400608Y-54988099D01*
X86236261Y-54838278D01*
X86047179Y-54721202D01*
X86047177Y-54721201D01*
X85839799Y-54640864D01*
X85760000Y-54625946D01*
X85260000Y-54625946D01*
X85180200Y-54640864D01*
X84972822Y-54721201D01*
X84972820Y-54721202D01*
X84783738Y-54838278D01*
X84619391Y-54988099D01*
X84485368Y-55165574D01*
X84386239Y-55364650D01*
X84333505Y-55550000D01*
X81234590Y-55550000D01*
X78561819Y-52877228D01*
X78528334Y-52815905D01*
X78525500Y-52789547D01*
X78525500Y-37002742D01*
X78527224Y-36987122D01*
X78526939Y-36987095D01*
X78527673Y-36979333D01*
X78525500Y-36910172D01*
X78525500Y-36880656D01*
X78525500Y-36880650D01*
X78524631Y-36873779D01*
X78524173Y-36867952D01*
X78523400Y-36843350D01*
X78522710Y-36821373D01*
X78517119Y-36802130D01*
X78513173Y-36783078D01*
X78510664Y-36763208D01*
X78493504Y-36719867D01*
X78491624Y-36714379D01*
X78478618Y-36669610D01*
X78468422Y-36652370D01*
X78459861Y-36634894D01*
X78452487Y-36616270D01*
X78452486Y-36616268D01*
X78425079Y-36578545D01*
X78421888Y-36573686D01*
X78398172Y-36533583D01*
X78398165Y-36533574D01*
X78384006Y-36519415D01*
X78371368Y-36504619D01*
X78359594Y-36488413D01*
X78338378Y-36470862D01*
X78323688Y-36458709D01*
X78319376Y-36454786D01*
X77299413Y-35434822D01*
X77265928Y-35373499D01*
X77267319Y-35315048D01*
X77285635Y-35246692D01*
X77305468Y-35020000D01*
X77303115Y-34993110D01*
X77296923Y-34922327D01*
X77285635Y-34793308D01*
X77240916Y-34626415D01*
X77226741Y-34573511D01*
X77226738Y-34573502D01*
X77130568Y-34367266D01*
X77000047Y-34180861D01*
X77000045Y-34180858D01*
X76839141Y-34019954D01*
X76652734Y-33889432D01*
X76652732Y-33889431D01*
X76594725Y-33862382D01*
X76594132Y-33862105D01*
X76541694Y-33815934D01*
X76522542Y-33748740D01*
X76542758Y-33681859D01*
X76594134Y-33637341D01*
X76652484Y-33610132D01*
X76838820Y-33479657D01*
X76999657Y-33318820D01*
X77130134Y-33132482D01*
X77226265Y-32926326D01*
X77226269Y-32926317D01*
X77278872Y-32730000D01*
X76315686Y-32730000D01*
X76327641Y-32718045D01*
X76385165Y-32605148D01*
X76404986Y-32480000D01*
X76385165Y-32354852D01*
X76327641Y-32241955D01*
X76315686Y-32230000D01*
X77278872Y-32230000D01*
X77278872Y-32229999D01*
X77226269Y-32033682D01*
X77226265Y-32033673D01*
X77130134Y-31827517D01*
X76999657Y-31641179D01*
X76838820Y-31480342D01*
X76652482Y-31349865D01*
X76446328Y-31253734D01*
X76250000Y-31201127D01*
X76250000Y-32164314D01*
X76238045Y-32152359D01*
X76125148Y-32094835D01*
X76031481Y-32080000D01*
X75968519Y-32080000D01*
X75874852Y-32094835D01*
X75761955Y-32152359D01*
X75750000Y-32164314D01*
X75750000Y-31201127D01*
X75553671Y-31253734D01*
X75347517Y-31349865D01*
X75161179Y-31480342D01*
X75000342Y-31641179D01*
X74869865Y-31827517D01*
X74773734Y-32033673D01*
X74773730Y-32033682D01*
X74721127Y-32229999D01*
X74721128Y-32230000D01*
X75684314Y-32230000D01*
X75672359Y-32241955D01*
X75614835Y-32354852D01*
X75595014Y-32480000D01*
X75614835Y-32605148D01*
X75672359Y-32718045D01*
X75684314Y-32730000D01*
X74721128Y-32730000D01*
X74773730Y-32926317D01*
X74773734Y-32926326D01*
X74869865Y-33132482D01*
X75000342Y-33318820D01*
X75161179Y-33479657D01*
X75347518Y-33610134D01*
X75347520Y-33610135D01*
X75405865Y-33637342D01*
X75458305Y-33683514D01*
X75477457Y-33750707D01*
X75457242Y-33817589D01*
X75405867Y-33862105D01*
X75347268Y-33889431D01*
X75347264Y-33889433D01*
X75160858Y-34019954D01*
X74999954Y-34180858D01*
X74869432Y-34367265D01*
X74869431Y-34367267D01*
X74773261Y-34573502D01*
X74773258Y-34573511D01*
X74714366Y-34793302D01*
X74714364Y-34793313D01*
X74694532Y-35019998D01*
X74694532Y-35020001D01*
X74714364Y-35246686D01*
X74714366Y-35246697D01*
X74773258Y-35466488D01*
X74773261Y-35466497D01*
X74869431Y-35672732D01*
X74869432Y-35672734D01*
X74999954Y-35859141D01*
X75160858Y-36020045D01*
X75160861Y-36020047D01*
X75347266Y-36150568D01*
X75405275Y-36177618D01*
X75457714Y-36223791D01*
X75476866Y-36290984D01*
X75456650Y-36357865D01*
X75405275Y-36402381D01*
X75388272Y-36410310D01*
X75347267Y-36429431D01*
X75347265Y-36429432D01*
X75160858Y-36559954D01*
X74999954Y-36720858D01*
X74869432Y-36907265D01*
X74869431Y-36907267D01*
X74773261Y-37113502D01*
X74773258Y-37113511D01*
X74714366Y-37333302D01*
X74714364Y-37333313D01*
X74694532Y-37559998D01*
X74694532Y-37560001D01*
X74714364Y-37786686D01*
X74714366Y-37786697D01*
X74773258Y-38006488D01*
X74773261Y-38006497D01*
X74869431Y-38212732D01*
X74869432Y-38212734D01*
X74999954Y-38399141D01*
X75160858Y-38560045D01*
X75185462Y-38577273D01*
X75229087Y-38631849D01*
X75236281Y-38701348D01*
X75204758Y-38763703D01*
X75144529Y-38799117D01*
X75127593Y-38802138D01*
X75092516Y-38805908D01*
X74957671Y-38856202D01*
X74957664Y-38856206D01*
X74842455Y-38942452D01*
X74842452Y-38942455D01*
X74756206Y-39057664D01*
X74756202Y-39057671D01*
X74705908Y-39192517D01*
X74699501Y-39252116D01*
X74699500Y-39252135D01*
X74699500Y-40947870D01*
X74699501Y-40947876D01*
X74705908Y-41007483D01*
X74756202Y-41142328D01*
X74756206Y-41142335D01*
X74842452Y-41257544D01*
X74842455Y-41257547D01*
X74957664Y-41343793D01*
X74957671Y-41343797D01*
X75092517Y-41394091D01*
X75092516Y-41394091D01*
X75099444Y-41394835D01*
X75152127Y-41400500D01*
X76847872Y-41400499D01*
X76907483Y-41394091D01*
X77042331Y-41343796D01*
X77076189Y-41318449D01*
X77141652Y-41294032D01*
X77209925Y-41308883D01*
X77259331Y-41358287D01*
X77274500Y-41417716D01*
X77274500Y-42500057D01*
X77254815Y-42567096D01*
X77202011Y-42612851D01*
X77132853Y-42622795D01*
X77069297Y-42593770D01*
X77048778Y-42569685D01*
X77048513Y-42569886D01*
X77045104Y-42565372D01*
X77045076Y-42565339D01*
X77045061Y-42565314D01*
X76910979Y-42387761D01*
X76746562Y-42237876D01*
X76746560Y-42237874D01*
X76557404Y-42120754D01*
X76557398Y-42120752D01*
X76349940Y-42040382D01*
X76131243Y-41999500D01*
X75908757Y-41999500D01*
X75690060Y-42040382D01*
X75558864Y-42091207D01*
X75482601Y-42120752D01*
X75482595Y-42120754D01*
X75293439Y-42237874D01*
X75293437Y-42237876D01*
X75129020Y-42387761D01*
X74994943Y-42565308D01*
X74994938Y-42565316D01*
X74895775Y-42764461D01*
X74895769Y-42764476D01*
X74834885Y-42978462D01*
X74834884Y-42978464D01*
X74814357Y-43199999D01*
X74814357Y-43200000D01*
X74826560Y-43331695D01*
X74813145Y-43400265D01*
X74764788Y-43450696D01*
X74696842Y-43466979D01*
X74630879Y-43443941D01*
X74615408Y-43430817D01*
X74000803Y-42816212D01*
X73990980Y-42803950D01*
X73990759Y-42804134D01*
X73985786Y-42798123D01*
X73959466Y-42773407D01*
X73935364Y-42750773D01*
X73924919Y-42740328D01*
X73914475Y-42729883D01*
X73908986Y-42725625D01*
X73904561Y-42721847D01*
X73870582Y-42689938D01*
X73870580Y-42689936D01*
X73870577Y-42689935D01*
X73853029Y-42680288D01*
X73836763Y-42669604D01*
X73820933Y-42657325D01*
X73778168Y-42638818D01*
X73772922Y-42636248D01*
X73732093Y-42613803D01*
X73732092Y-42613802D01*
X73712693Y-42608822D01*
X73694281Y-42602518D01*
X73675898Y-42594562D01*
X73675892Y-42594560D01*
X73629874Y-42587272D01*
X73624152Y-42586087D01*
X73579021Y-42574500D01*
X73579019Y-42574500D01*
X73558984Y-42574500D01*
X73539586Y-42572973D01*
X73532162Y-42571797D01*
X73519805Y-42569840D01*
X73519804Y-42569840D01*
X73473416Y-42574225D01*
X73467578Y-42574500D01*
X69493742Y-42574500D01*
X69426703Y-42554815D01*
X69394788Y-42525227D01*
X69290979Y-42387761D01*
X69126562Y-42237876D01*
X69126560Y-42237874D01*
X68937404Y-42120754D01*
X68937398Y-42120752D01*
X68729940Y-42040382D01*
X68511243Y-41999500D01*
X68288757Y-41999500D01*
X68070060Y-42040382D01*
X67938864Y-42091207D01*
X67862601Y-42120752D01*
X67862595Y-42120754D01*
X67673439Y-42237874D01*
X67673437Y-42237876D01*
X67509020Y-42387761D01*
X67374943Y-42565308D01*
X67374938Y-42565316D01*
X67275775Y-42764461D01*
X67275769Y-42764476D01*
X67214885Y-42978462D01*
X67214884Y-42978464D01*
X67194357Y-43199999D01*
X67194357Y-43200000D01*
X66008910Y-43200000D01*
X65956801Y-43102511D01*
X65956799Y-43102509D01*
X65956798Y-43102506D01*
X65917824Y-43055016D01*
X65828647Y-42946352D01*
X65672495Y-42818203D01*
X65672488Y-42818198D01*
X65494345Y-42722978D01*
X65301031Y-42664337D01*
X65100000Y-42644538D01*
X64898968Y-42664337D01*
X64705655Y-42722978D01*
X64637952Y-42759166D01*
X64569549Y-42773407D01*
X64504306Y-42748406D01*
X64462936Y-42692101D01*
X64455500Y-42649807D01*
X64455500Y-40100001D01*
X67074532Y-40100001D01*
X67094364Y-40326686D01*
X67094366Y-40326697D01*
X67153258Y-40546488D01*
X67153261Y-40546497D01*
X67249431Y-40752732D01*
X67249432Y-40752734D01*
X67379954Y-40939141D01*
X67540858Y-41100045D01*
X67540861Y-41100047D01*
X67727266Y-41230568D01*
X67933504Y-41326739D01*
X68153308Y-41385635D01*
X68315230Y-41399801D01*
X68379998Y-41405468D01*
X68380000Y-41405468D01*
X68380002Y-41405468D01*
X68436807Y-41400498D01*
X68606692Y-41385635D01*
X68826496Y-41326739D01*
X69032734Y-41230568D01*
X69219139Y-41100047D01*
X69380047Y-40939139D01*
X69510568Y-40752734D01*
X69606739Y-40546496D01*
X69665635Y-40326692D01*
X69685468Y-40100000D01*
X69665635Y-39873308D01*
X69606739Y-39653504D01*
X69510568Y-39447266D01*
X69380047Y-39260861D01*
X69380045Y-39260858D01*
X69219141Y-39099954D01*
X69032734Y-38969432D01*
X69032728Y-38969429D01*
X68974882Y-38942455D01*
X68974724Y-38942381D01*
X68922285Y-38896210D01*
X68903133Y-38829017D01*
X68923348Y-38762135D01*
X68974725Y-38717618D01*
X69032734Y-38690568D01*
X69219139Y-38560047D01*
X69380047Y-38399139D01*
X69510568Y-38212734D01*
X69606739Y-38006496D01*
X69665635Y-37786692D01*
X69685468Y-37560000D01*
X69665635Y-37333308D01*
X69606739Y-37113504D01*
X69510568Y-36907266D01*
X69405734Y-36757546D01*
X69380045Y-36720858D01*
X69219141Y-36559954D01*
X69032734Y-36429432D01*
X69032728Y-36429429D01*
X68999602Y-36413982D01*
X68974724Y-36402381D01*
X68922285Y-36356210D01*
X68903133Y-36289017D01*
X68923348Y-36222135D01*
X68974725Y-36177618D01*
X69032734Y-36150568D01*
X69219139Y-36020047D01*
X69380047Y-35859139D01*
X69510568Y-35672734D01*
X69606739Y-35466496D01*
X69665635Y-35246692D01*
X69685468Y-35020000D01*
X69683115Y-34993110D01*
X69676923Y-34922327D01*
X69665635Y-34793308D01*
X69620916Y-34626415D01*
X69606741Y-34573511D01*
X69606738Y-34573502D01*
X69510568Y-34367266D01*
X69380047Y-34180861D01*
X69380045Y-34180858D01*
X69219141Y-34019954D01*
X69032734Y-33889432D01*
X69032728Y-33889429D01*
X68974725Y-33862382D01*
X68922285Y-33816210D01*
X68903133Y-33749017D01*
X68923348Y-33682135D01*
X68974725Y-33637618D01*
X68975319Y-33637341D01*
X69032734Y-33610568D01*
X69219139Y-33480047D01*
X69380047Y-33319139D01*
X69510568Y-33132734D01*
X69606739Y-32926496D01*
X69665635Y-32706692D01*
X69685468Y-32480000D01*
X69665635Y-32253308D01*
X69606739Y-32033504D01*
X69510568Y-31827266D01*
X69380047Y-31640861D01*
X69380045Y-31640858D01*
X69219141Y-31479954D01*
X69032734Y-31349432D01*
X69032732Y-31349431D01*
X68826497Y-31253261D01*
X68826488Y-31253258D01*
X68606697Y-31194366D01*
X68606693Y-31194365D01*
X68606692Y-31194365D01*
X68606691Y-31194364D01*
X68606686Y-31194364D01*
X68380002Y-31174532D01*
X68379998Y-31174532D01*
X68153313Y-31194364D01*
X68153302Y-31194366D01*
X67933511Y-31253258D01*
X67933502Y-31253261D01*
X67727267Y-31349431D01*
X67727265Y-31349432D01*
X67540858Y-31479954D01*
X67379954Y-31640858D01*
X67249432Y-31827265D01*
X67249431Y-31827267D01*
X67153261Y-32033502D01*
X67153258Y-32033511D01*
X67094366Y-32253302D01*
X67094364Y-32253313D01*
X67074532Y-32479998D01*
X67074532Y-32480001D01*
X67094364Y-32706686D01*
X67094366Y-32706697D01*
X67153258Y-32926488D01*
X67153261Y-32926497D01*
X67249431Y-33132732D01*
X67249432Y-33132734D01*
X67379954Y-33319141D01*
X67540858Y-33480045D01*
X67540861Y-33480047D01*
X67727266Y-33610568D01*
X67784681Y-33637341D01*
X67785275Y-33637618D01*
X67837714Y-33683791D01*
X67856866Y-33750984D01*
X67836650Y-33817865D01*
X67785275Y-33862382D01*
X67727267Y-33889431D01*
X67727265Y-33889432D01*
X67540858Y-34019954D01*
X67379954Y-34180858D01*
X67249432Y-34367265D01*
X67249431Y-34367267D01*
X67153261Y-34573502D01*
X67153258Y-34573511D01*
X67094366Y-34793302D01*
X67094364Y-34793313D01*
X67074532Y-35019998D01*
X67074532Y-35020001D01*
X67094364Y-35246686D01*
X67094366Y-35246697D01*
X67153258Y-35466488D01*
X67153261Y-35466497D01*
X67249431Y-35672732D01*
X67249432Y-35672734D01*
X67379954Y-35859141D01*
X67540858Y-36020045D01*
X67540861Y-36020047D01*
X67727266Y-36150568D01*
X67785275Y-36177618D01*
X67837714Y-36223791D01*
X67856866Y-36290984D01*
X67836650Y-36357865D01*
X67785275Y-36402381D01*
X67768272Y-36410310D01*
X67727267Y-36429431D01*
X67727265Y-36429432D01*
X67540858Y-36559954D01*
X67379954Y-36720858D01*
X67249432Y-36907265D01*
X67249431Y-36907267D01*
X67153261Y-37113502D01*
X67153258Y-37113511D01*
X67094366Y-37333302D01*
X67094364Y-37333313D01*
X67074532Y-37559998D01*
X67074532Y-37560001D01*
X67094364Y-37786686D01*
X67094366Y-37786697D01*
X67153258Y-38006488D01*
X67153261Y-38006497D01*
X67249431Y-38212732D01*
X67249432Y-38212734D01*
X67379954Y-38399141D01*
X67540858Y-38560045D01*
X67580914Y-38588092D01*
X67727266Y-38690568D01*
X67750384Y-38701348D01*
X67785275Y-38717618D01*
X67837714Y-38763791D01*
X67856866Y-38830984D01*
X67836650Y-38897865D01*
X67785275Y-38942381D01*
X67785118Y-38942455D01*
X67727267Y-38969431D01*
X67727265Y-38969432D01*
X67540858Y-39099954D01*
X67379954Y-39260858D01*
X67249432Y-39447265D01*
X67249431Y-39447267D01*
X67153261Y-39653502D01*
X67153258Y-39653511D01*
X67094366Y-39873302D01*
X67094364Y-39873313D01*
X67074532Y-40099998D01*
X67074532Y-40100001D01*
X64455500Y-40100001D01*
X64455500Y-33512738D01*
X64457224Y-33497124D01*
X64456938Y-33497097D01*
X64457672Y-33489334D01*
X64455500Y-33420203D01*
X64455500Y-33390651D01*
X64455500Y-33390650D01*
X64454629Y-33383759D01*
X64454172Y-33377945D01*
X64452709Y-33331372D01*
X64447122Y-33312144D01*
X64443174Y-33293084D01*
X64442572Y-33288319D01*
X64440664Y-33273208D01*
X64440663Y-33273206D01*
X64440663Y-33273204D01*
X64423512Y-33229887D01*
X64421619Y-33224358D01*
X64408618Y-33179609D01*
X64408616Y-33179606D01*
X64398423Y-33162371D01*
X64389861Y-33144894D01*
X64382487Y-33126270D01*
X64382486Y-33126268D01*
X64355079Y-33088545D01*
X64351888Y-33083686D01*
X64328172Y-33043583D01*
X64328165Y-33043574D01*
X64314006Y-33029415D01*
X64301368Y-33014619D01*
X64295399Y-33006403D01*
X64289594Y-32998413D01*
X64253688Y-32968709D01*
X64249376Y-32964786D01*
X63418892Y-32134302D01*
X63385407Y-32072979D01*
X63384736Y-32027258D01*
X63384586Y-32027245D01*
X63384715Y-32025846D01*
X63384686Y-32023826D01*
X63385110Y-32021551D01*
X63385115Y-32021536D01*
X63405643Y-31800000D01*
X63385115Y-31578464D01*
X63324229Y-31364472D01*
X63324224Y-31364461D01*
X63225061Y-31165316D01*
X63225056Y-31165308D01*
X63090979Y-30987761D01*
X62926562Y-30837876D01*
X62926560Y-30837874D01*
X62737404Y-30720754D01*
X62737398Y-30720752D01*
X62529940Y-30640382D01*
X62311243Y-30599500D01*
X62088757Y-30599500D01*
X62044623Y-30607749D01*
X61980571Y-30619723D01*
X61911056Y-30612691D01*
X61870106Y-30585515D01*
X61500803Y-30216212D01*
X61490964Y-30203930D01*
X61490742Y-30204114D01*
X61490250Y-30203519D01*
X61489806Y-30202484D01*
X61483780Y-30194962D01*
X61481600Y-30191526D01*
X61484354Y-30189778D01*
X61462700Y-30139311D01*
X61474236Y-30070400D01*
X61521197Y-30018666D01*
X61585812Y-30000500D01*
X76799901Y-30000500D01*
X79375500Y-30000500D01*
X79442539Y-30020185D01*
X79488294Y-30072989D01*
X79499500Y-30124500D01*
X79499500Y-48175467D01*
X79499416Y-48175889D01*
X79499459Y-48200001D01*
X79499500Y-48200099D01*
X79499616Y-48200382D01*
X79499618Y-48200384D01*
X79499808Y-48200462D01*
X79500000Y-48200541D01*
X79500002Y-48200539D01*
X79524616Y-48200524D01*
X79524616Y-48200528D01*
X79524760Y-48200500D01*
X98875500Y-48200500D01*
X98942539Y-48220185D01*
X98988294Y-48272989D01*
X98999500Y-48324500D01*
X98999500Y-62875500D01*
X98979815Y-62942539D01*
X98927011Y-62988294D01*
X98875500Y-62999500D01*
X62124500Y-62999500D01*
X62057461Y-62979815D01*
X62011706Y-62927011D01*
X62000500Y-62875500D01*
X62000500Y-54296532D01*
X66599500Y-54296532D01*
X66600027Y-54301878D01*
X66638026Y-54687702D01*
X66714704Y-55073194D01*
X66714707Y-55073205D01*
X66828810Y-55449354D01*
X66979230Y-55812499D01*
X66979232Y-55812504D01*
X67164511Y-56159137D01*
X67164515Y-56159144D01*
X67164518Y-56159149D01*
X67376933Y-56477050D01*
X67382887Y-56485960D01*
X67382897Y-56485974D01*
X67632254Y-56789817D01*
X67910182Y-57067745D01*
X67910187Y-57067749D01*
X67910188Y-57067750D01*
X68214031Y-57317107D01*
X68540851Y-57535482D01*
X68540860Y-57535487D01*
X68540862Y-57535488D01*
X68887495Y-57720767D01*
X68887497Y-57720767D01*
X68887503Y-57720771D01*
X69250647Y-57871190D01*
X69626785Y-57985290D01*
X69626791Y-57985291D01*
X69626794Y-57985292D01*
X69626805Y-57985295D01*
X70012297Y-58061973D01*
X70403468Y-58100500D01*
X70403471Y-58100500D01*
X70796529Y-58100500D01*
X70796532Y-58100500D01*
X71187703Y-58061973D01*
X71262748Y-58047045D01*
X71573194Y-57985295D01*
X71573205Y-57985292D01*
X71573205Y-57985291D01*
X71573215Y-57985290D01*
X71949353Y-57871190D01*
X72312497Y-57720771D01*
X72659149Y-57535482D01*
X72985969Y-57317107D01*
X73289812Y-57067750D01*
X73567750Y-56789812D01*
X73817107Y-56485969D01*
X74035482Y-56159149D01*
X74220771Y-55812497D01*
X74371190Y-55449353D01*
X74485290Y-55073215D01*
X74485292Y-55073205D01*
X74485295Y-55073194D01*
X74561973Y-54687702D01*
X74600500Y-54296532D01*
X74600500Y-54100000D01*
X74600500Y-54099500D01*
X74600500Y-49099901D01*
X74600500Y-48903468D01*
X74561973Y-48512297D01*
X74549050Y-48447327D01*
X74485295Y-48126805D01*
X74485292Y-48126794D01*
X74485291Y-48126791D01*
X74485290Y-48126785D01*
X74371190Y-47750647D01*
X74220771Y-47387503D01*
X74218399Y-47383066D01*
X74035488Y-47040862D01*
X74035487Y-47040860D01*
X74035482Y-47040851D01*
X73817107Y-46714031D01*
X73567750Y-46410188D01*
X73567749Y-46410187D01*
X73567745Y-46410182D01*
X73289817Y-46132254D01*
X72985974Y-45882897D01*
X72985973Y-45882896D01*
X72985969Y-45882893D01*
X72659149Y-45664518D01*
X72659144Y-45664515D01*
X72659137Y-45664511D01*
X72312504Y-45479232D01*
X72312499Y-45479230D01*
X72254420Y-45455173D01*
X72084745Y-45384891D01*
X71949354Y-45328810D01*
X71573205Y-45214707D01*
X71573194Y-45214704D01*
X71187702Y-45138026D01*
X70893089Y-45109010D01*
X70796532Y-45099500D01*
X70403468Y-45099500D01*
X70314251Y-45108287D01*
X70012297Y-45138026D01*
X69626805Y-45214704D01*
X69626794Y-45214707D01*
X69250645Y-45328810D01*
X68887500Y-45479230D01*
X68887495Y-45479232D01*
X68540862Y-45664511D01*
X68540844Y-45664522D01*
X68214039Y-45882887D01*
X68214025Y-45882897D01*
X67910182Y-46132254D01*
X67632254Y-46410182D01*
X67382897Y-46714025D01*
X67382887Y-46714039D01*
X67164522Y-47040844D01*
X67164511Y-47040862D01*
X66979232Y-47387495D01*
X66979230Y-47387500D01*
X66828810Y-47750645D01*
X66714707Y-48126794D01*
X66714704Y-48126805D01*
X66638026Y-48512297D01*
X66618754Y-48707980D01*
X66599500Y-48903468D01*
X66599500Y-49099901D01*
X66599500Y-54099500D01*
X66599500Y-54100000D01*
X66599500Y-54296532D01*
X62000500Y-54296532D01*
X62000500Y-50024759D01*
X62000528Y-50024616D01*
X62000524Y-50024616D01*
X62000539Y-50000002D01*
X62000541Y-50000000D01*
X62000462Y-49999808D01*
X62000384Y-49999618D01*
X62000382Y-49999616D01*
X62000099Y-49999500D01*
X62000000Y-49999459D01*
X61975446Y-49999459D01*
X61975240Y-49999500D01*
X15124500Y-49999500D01*
X15057461Y-49979815D01*
X15011706Y-49927011D01*
X15000500Y-49875500D01*
X15000500Y-47329640D01*
X16242500Y-47329640D01*
X16257888Y-47500633D01*
X16318821Y-47721420D01*
X16318826Y-47721431D01*
X16418207Y-47927799D01*
X16418209Y-47927803D01*
X16552839Y-48113105D01*
X16552846Y-48113113D01*
X16718401Y-48271400D01*
X16909561Y-48397585D01*
X17120190Y-48487611D01*
X17120193Y-48487612D01*
X17265000Y-48520663D01*
X17265000Y-47508909D01*
X17275839Y-47516560D01*
X17409235Y-47563969D01*
X17550475Y-47573630D01*
X17689084Y-47544827D01*
X17765000Y-47505490D01*
X17765000Y-48522755D01*
X17799296Y-48518111D01*
X17799300Y-48518110D01*
X18017147Y-48447327D01*
X18218847Y-48338788D01*
X18218850Y-48338786D01*
X18397928Y-48195976D01*
X18548634Y-48023480D01*
X18548635Y-48023478D01*
X18666118Y-47826847D01*
X18746600Y-47612399D01*
X18787500Y-47387029D01*
X18787500Y-46750000D01*
X18030000Y-46750000D01*
X18030000Y-46500000D01*
X20484659Y-46500000D01*
X20489189Y-46545999D01*
X20489408Y-46548938D01*
X20489499Y-46550736D01*
X20494474Y-46599663D01*
X20503976Y-46696130D01*
X20504034Y-46696419D01*
X20504904Y-46702228D01*
X20504924Y-46702429D01*
X20504927Y-46702444D01*
X20533965Y-46794992D01*
X20561184Y-46884722D01*
X20563980Y-46891473D01*
X20565816Y-46896528D01*
X20565844Y-46896595D01*
X20590254Y-46940573D01*
X20611387Y-46978648D01*
X20654089Y-47058537D01*
X20657474Y-47063602D01*
X20657271Y-47063737D01*
X20664454Y-47074304D01*
X20664593Y-47074505D01*
X20723656Y-47143305D01*
X20779117Y-47210884D01*
X20779395Y-47211112D01*
X20794810Y-47226188D01*
X20797134Y-47228895D01*
X20797138Y-47228898D01*
X20797140Y-47228900D01*
X20824734Y-47250259D01*
X20866326Y-47282454D01*
X20931462Y-47335910D01*
X20934939Y-47337768D01*
X20952392Y-47349074D01*
X20958041Y-47353447D01*
X20958044Y-47353449D01*
X21033757Y-47390588D01*
X21104401Y-47428348D01*
X21105273Y-47428814D01*
X21112477Y-47430999D01*
X21131093Y-47438333D01*
X21140729Y-47443060D01*
X21219287Y-47463400D01*
X21293868Y-47486024D01*
X21302956Y-47486918D01*
X21304926Y-47487113D01*
X21323854Y-47490474D01*
X21337711Y-47494062D01*
X21337715Y-47494063D01*
X21414133Y-47497938D01*
X21417034Y-47498154D01*
X21490000Y-47505341D01*
X21504630Y-47503899D01*
X21523056Y-47503462D01*
X21540936Y-47504369D01*
X21613253Y-47493289D01*
X21616525Y-47492879D01*
X21686132Y-47486024D01*
X21703632Y-47480714D01*
X21720837Y-47476808D01*
X21742071Y-47473556D01*
X21807515Y-47449317D01*
X21811019Y-47448138D01*
X21874727Y-47428814D01*
X21897730Y-47416517D01*
X21905421Y-47413057D01*
X21932887Y-47402886D01*
X21932891Y-47402883D01*
X21932894Y-47402882D01*
X21989238Y-47367762D01*
X21992801Y-47365701D01*
X22048538Y-47335910D01*
X22048544Y-47335904D01*
X22053599Y-47332528D01*
X22054698Y-47334172D01*
X22110610Y-47310408D01*
X22179481Y-47322180D01*
X22196153Y-47332892D01*
X22196398Y-47332526D01*
X22201455Y-47335904D01*
X22201462Y-47335910D01*
X22204939Y-47337768D01*
X22222392Y-47349074D01*
X22228041Y-47353447D01*
X22228044Y-47353449D01*
X22303757Y-47390588D01*
X22374401Y-47428348D01*
X22375273Y-47428814D01*
X22382477Y-47430999D01*
X22401093Y-47438333D01*
X22410729Y-47443060D01*
X22489287Y-47463400D01*
X22563868Y-47486024D01*
X22572956Y-47486918D01*
X22574926Y-47487113D01*
X22593854Y-47490474D01*
X22607711Y-47494062D01*
X22607715Y-47494063D01*
X22684133Y-47497938D01*
X22687034Y-47498154D01*
X22760000Y-47505341D01*
X22774630Y-47503899D01*
X22793056Y-47503462D01*
X22810936Y-47504369D01*
X22883253Y-47493289D01*
X22886525Y-47492879D01*
X22956132Y-47486024D01*
X22973632Y-47480714D01*
X22990837Y-47476808D01*
X23012071Y-47473556D01*
X23077515Y-47449317D01*
X23081019Y-47448138D01*
X23144727Y-47428814D01*
X23167730Y-47416517D01*
X23175421Y-47413057D01*
X23202887Y-47402886D01*
X23202891Y-47402883D01*
X23202894Y-47402882D01*
X23259238Y-47367762D01*
X23262801Y-47365701D01*
X23318538Y-47335910D01*
X23318544Y-47335904D01*
X23323599Y-47332528D01*
X23324698Y-47334172D01*
X23380610Y-47310408D01*
X23449481Y-47322180D01*
X23466153Y-47332892D01*
X23466398Y-47332526D01*
X23471455Y-47335904D01*
X23471462Y-47335910D01*
X23474939Y-47337768D01*
X23492392Y-47349074D01*
X23498041Y-47353447D01*
X23498044Y-47353449D01*
X23573757Y-47390588D01*
X23644401Y-47428348D01*
X23645273Y-47428814D01*
X23652477Y-47430999D01*
X23671093Y-47438333D01*
X23680729Y-47443060D01*
X23759287Y-47463400D01*
X23833868Y-47486024D01*
X23842956Y-47486918D01*
X23844926Y-47487113D01*
X23863854Y-47490474D01*
X23877711Y-47494062D01*
X23877715Y-47494063D01*
X23954133Y-47497938D01*
X23957034Y-47498154D01*
X24030000Y-47505341D01*
X24044630Y-47503899D01*
X24063056Y-47503462D01*
X24080936Y-47504369D01*
X24153253Y-47493289D01*
X24156525Y-47492879D01*
X24226132Y-47486024D01*
X24243632Y-47480714D01*
X24260837Y-47476808D01*
X24282071Y-47473556D01*
X24347515Y-47449317D01*
X24351019Y-47448138D01*
X24414727Y-47428814D01*
X24437730Y-47416517D01*
X24445421Y-47413057D01*
X24472887Y-47402886D01*
X24472891Y-47402883D01*
X24472894Y-47402882D01*
X24529238Y-47367762D01*
X24532801Y-47365701D01*
X24588538Y-47335910D01*
X24588544Y-47335904D01*
X24593599Y-47332528D01*
X24594615Y-47334049D01*
X24651021Y-47310084D01*
X24719890Y-47321866D01*
X24736424Y-47332489D01*
X24736678Y-47332110D01*
X24741746Y-47335496D01*
X24915460Y-47428348D01*
X25103969Y-47485531D01*
X25103965Y-47485531D01*
X25300000Y-47504838D01*
X25496032Y-47485531D01*
X25684537Y-47428348D01*
X25808522Y-47362076D01*
X26061476Y-47362076D01*
X26185466Y-47428350D01*
X26373969Y-47485531D01*
X26373965Y-47485531D01*
X26570000Y-47504838D01*
X26766032Y-47485531D01*
X26954537Y-47428348D01*
X27078522Y-47362076D01*
X26570001Y-46853553D01*
X26570000Y-46853553D01*
X26061476Y-47362076D01*
X25808522Y-47362076D01*
X25296447Y-46850000D01*
X25329005Y-46850000D01*
X25415216Y-46835614D01*
X25517947Y-46780019D01*
X25597060Y-46694079D01*
X25643982Y-46587108D01*
X25651200Y-46500000D01*
X25653553Y-46500000D01*
X25935000Y-46781446D01*
X25935001Y-46781446D01*
X26187145Y-46529302D01*
X26216372Y-46529302D01*
X26245047Y-46642538D01*
X26308936Y-46740327D01*
X26401115Y-46812072D01*
X26511595Y-46850000D01*
X26599005Y-46850000D01*
X26685216Y-46835614D01*
X26787947Y-46780019D01*
X26867060Y-46694079D01*
X26913982Y-46587108D01*
X26921200Y-46500000D01*
X26923553Y-46500000D01*
X27205000Y-46781446D01*
X27205001Y-46781446D01*
X27486446Y-46500001D01*
X27486446Y-46499999D01*
X27205001Y-46218553D01*
X27205000Y-46218553D01*
X26923553Y-46500000D01*
X26921200Y-46500000D01*
X26923628Y-46470698D01*
X26894953Y-46357462D01*
X26831064Y-46259673D01*
X26738885Y-46187928D01*
X26628405Y-46150000D01*
X26540995Y-46150000D01*
X26454784Y-46164386D01*
X26352053Y-46219981D01*
X26272940Y-46305921D01*
X26226018Y-46412892D01*
X26216372Y-46529302D01*
X26187145Y-46529302D01*
X26216446Y-46500001D01*
X26216446Y-46499999D01*
X25935001Y-46218553D01*
X25935000Y-46218553D01*
X25653553Y-46500000D01*
X25651200Y-46500000D01*
X25653628Y-46470698D01*
X25624953Y-46357462D01*
X25561064Y-46259673D01*
X25468885Y-46187928D01*
X25358405Y-46150000D01*
X25296447Y-46150000D01*
X25300000Y-46146447D01*
X25808522Y-45637922D01*
X26061475Y-45637922D01*
X26570000Y-46146446D01*
X26570001Y-46146446D01*
X27078522Y-45637922D01*
X27078522Y-45637921D01*
X26954538Y-45571652D01*
X26766030Y-45514468D01*
X26570000Y-45495161D01*
X26373969Y-45514468D01*
X26185461Y-45571652D01*
X26061475Y-45637922D01*
X25808522Y-45637922D01*
X25808522Y-45637921D01*
X25684538Y-45571652D01*
X25496030Y-45514468D01*
X25299999Y-45495161D01*
X25166654Y-45508294D01*
X25098008Y-45495275D01*
X25047298Y-45447210D01*
X25030500Y-45384891D01*
X25030500Y-36470862D01*
X25050000Y-36404453D01*
X25050000Y-33000000D01*
X24802155Y-33000000D01*
X24742627Y-33006401D01*
X24742620Y-33006403D01*
X24607913Y-33056645D01*
X24607906Y-33056649D01*
X24492812Y-33142809D01*
X24492809Y-33142812D01*
X24406649Y-33257906D01*
X24406645Y-33257913D01*
X24356403Y-33392620D01*
X24354620Y-33400168D01*
X24352320Y-33399624D01*
X24330063Y-33453327D01*
X24272662Y-33493163D01*
X24233528Y-33499500D01*
X23532129Y-33499500D01*
X23532123Y-33499501D01*
X23472518Y-33505908D01*
X23438331Y-33518659D01*
X23368639Y-33523642D01*
X23351669Y-33518659D01*
X23318810Y-33506404D01*
X23317483Y-33505909D01*
X23317482Y-33505908D01*
X23257883Y-33499501D01*
X23257881Y-33499500D01*
X23257873Y-33499500D01*
X23257864Y-33499500D01*
X22262129Y-33499500D01*
X22262123Y-33499501D01*
X22202518Y-33505908D01*
X22168331Y-33518659D01*
X22098639Y-33523642D01*
X22081669Y-33518659D01*
X22048810Y-33506404D01*
X22047483Y-33505909D01*
X22047482Y-33505908D01*
X21987883Y-33499501D01*
X21987881Y-33499500D01*
X21987873Y-33499500D01*
X21987864Y-33499500D01*
X20992129Y-33499500D01*
X20992123Y-33499501D01*
X20932516Y-33505908D01*
X20797671Y-33556202D01*
X20797664Y-33556206D01*
X20682455Y-33642452D01*
X20682452Y-33642455D01*
X20596206Y-33757664D01*
X20596202Y-33757671D01*
X20545908Y-33892517D01*
X20541251Y-33935841D01*
X20539501Y-33952123D01*
X20539500Y-33952135D01*
X20539500Y-34852394D01*
X20531239Y-34892601D01*
X20532341Y-34892947D01*
X20530461Y-34898938D01*
X20530460Y-34898941D01*
X20530460Y-34898942D01*
X20517665Y-34961206D01*
X20489500Y-35098258D01*
X20489500Y-46447798D01*
X20489201Y-46453878D01*
X20484659Y-46499999D01*
X20484659Y-46500000D01*
X18030000Y-46500000D01*
X18030000Y-46250000D01*
X18787500Y-46250000D01*
X18787500Y-45670363D01*
X18787499Y-45670359D01*
X18772111Y-45499366D01*
X18711178Y-45278579D01*
X18711173Y-45278568D01*
X18611792Y-45072200D01*
X18611790Y-45072196D01*
X18477160Y-44886894D01*
X18477153Y-44886886D01*
X18311598Y-44728599D01*
X18120438Y-44602414D01*
X17909811Y-44512389D01*
X17909805Y-44512387D01*
X17765000Y-44479336D01*
X17765000Y-45491090D01*
X17754161Y-45483440D01*
X17620765Y-45436031D01*
X17479525Y-45426370D01*
X17340916Y-45455173D01*
X17265000Y-45494509D01*
X17265000Y-44477243D01*
X17230694Y-44481890D01*
X17012852Y-44552672D01*
X16811152Y-44661211D01*
X16811149Y-44661213D01*
X16632071Y-44804023D01*
X16481365Y-44976519D01*
X16481364Y-44976521D01*
X16363881Y-45173152D01*
X16283399Y-45387600D01*
X16242500Y-45612970D01*
X16242500Y-46250000D01*
X17000000Y-46250000D01*
X17000000Y-46750000D01*
X16242500Y-46750000D01*
X16242500Y-47329640D01*
X15000500Y-47329640D01*
X15000500Y-33804640D01*
X17382500Y-33804640D01*
X17397888Y-33975633D01*
X17458821Y-34196420D01*
X17458826Y-34196431D01*
X17558207Y-34402799D01*
X17558209Y-34402803D01*
X17692839Y-34588105D01*
X17692846Y-34588113D01*
X17858401Y-34746400D01*
X18049561Y-34872585D01*
X18260190Y-34962611D01*
X18260193Y-34962612D01*
X18405000Y-34995663D01*
X18405000Y-33983909D01*
X18415839Y-33991560D01*
X18549235Y-34038969D01*
X18690475Y-34048630D01*
X18829084Y-34019827D01*
X18905000Y-33980490D01*
X18905000Y-34997755D01*
X18939296Y-34993111D01*
X18939300Y-34993110D01*
X19157147Y-34922327D01*
X19358847Y-34813788D01*
X19358850Y-34813786D01*
X19537928Y-34670976D01*
X19688634Y-34498480D01*
X19688635Y-34498478D01*
X19806118Y-34301847D01*
X19886600Y-34087399D01*
X19927500Y-33862029D01*
X19927500Y-33149130D01*
X19947185Y-33082091D01*
X19999989Y-33036336D01*
X20069147Y-33026392D01*
X20130166Y-33053278D01*
X20175173Y-33090215D01*
X20175181Y-33090220D01*
X20360276Y-33189155D01*
X20360278Y-33189156D01*
X20561126Y-33250083D01*
X20717660Y-33265500D01*
X20717663Y-33265500D01*
X20822337Y-33265500D01*
X20822340Y-33265500D01*
X20978874Y-33250083D01*
X21179722Y-33189156D01*
X21364824Y-33090217D01*
X21527067Y-32957067D01*
X21660217Y-32794824D01*
X21759156Y-32609722D01*
X21820083Y-32408874D01*
X21840655Y-32200000D01*
X21820083Y-31991126D01*
X21759156Y-31790278D01*
X21679291Y-31640861D01*
X21660220Y-31605181D01*
X21660216Y-31605174D01*
X21527067Y-31442932D01*
X21364825Y-31309783D01*
X21364818Y-31309779D01*
X21179723Y-31210844D01*
X20978876Y-31149917D01*
X20916260Y-31143750D01*
X20822340Y-31134500D01*
X20717660Y-31134500D01*
X20639393Y-31142208D01*
X20561123Y-31149917D01*
X20360276Y-31210844D01*
X20175181Y-31309779D01*
X20175174Y-31309783D01*
X20012932Y-31442932D01*
X19936062Y-31536599D01*
X19878316Y-31575933D01*
X19808471Y-31577804D01*
X19748703Y-31541616D01*
X19739891Y-31530819D01*
X19617160Y-31361894D01*
X19617153Y-31361886D01*
X19451598Y-31203599D01*
X19260438Y-31077414D01*
X19049811Y-30987389D01*
X19049805Y-30987387D01*
X18905000Y-30954336D01*
X18905000Y-31966090D01*
X18894161Y-31958440D01*
X18760765Y-31911031D01*
X18619525Y-31901370D01*
X18480916Y-31930173D01*
X18405000Y-31969509D01*
X18405000Y-30952243D01*
X18370694Y-30956890D01*
X18152852Y-31027672D01*
X17951152Y-31136211D01*
X17951149Y-31136213D01*
X17772071Y-31279023D01*
X17621365Y-31451519D01*
X17621364Y-31451521D01*
X17503881Y-31648152D01*
X17423399Y-31862600D01*
X17382500Y-32087970D01*
X17382500Y-32725000D01*
X18140000Y-32725000D01*
X18140000Y-33225000D01*
X17382500Y-33225000D01*
X17382500Y-33804640D01*
X15000500Y-33804640D01*
X15000500Y-30124500D01*
X15020185Y-30057461D01*
X15072989Y-30011706D01*
X15124500Y-30000500D01*
X29385546Y-30000500D01*
X29452585Y-30020185D01*
G37*
%TD.AperFunction*%
%TD*%
M02*
