M48
; DRILL file {KiCad 7.0.8} date Mon 16 Oct 2023 10:14:52 PM CEST
; FORMAT={-:-/ absolute / metric / decimal}
; #@! TF.CreationDate,2023-10-16T22:14:52+02:00
; #@! TF.GenerationSoftware,Kicad,Pcbnew,7.0.8
; #@! TF.FileFunction,Plated,1,2,PTH
FMAT,2
METRIC
; #@! TA.AperFunction,Plated,PTH,ViaDrill
T1C0.400
; #@! TA.AperFunction,Plated,PTH,ComponentDrill
T2C0.700
; #@! TA.AperFunction,Plated,PTH,ComponentDrill
T3C0.750
; #@! TA.AperFunction,Plated,PTH,ComponentDrill
T4C0.800
; #@! TA.AperFunction,Plated,PTH,ComponentDrill
T5C1.000
; #@! TA.AperFunction,Plated,PTH,ComponentDrill
T6C1.030
%
G90
G05
T1
X17.8Y-40.3
X17.9Y-37.4
X17.9Y-42.7
X19.6Y-35.9
X19.6Y-38.9
X19.6Y-41.5
X19.6Y-43.9
X22.1Y-31.2
X23.3Y-32.3
X24.7Y-31.2
X26.2Y-32.4
X26.6Y-37.8
X26.6Y-40.9
X26.6Y-44.2
X27.3Y-31.2
X29.7Y-32.8
X31.0Y-31.9
X32.3Y-32.9
X34.0Y-31.9
X36.5Y-32.0
X38.3Y-32.9
X40.3Y-31.9
X41.8Y-36.4
X41.8Y-39.1
X41.8Y-41.7
X41.9Y-32.9
X43.7Y-34.9
X43.7Y-37.7
X43.7Y-43.0
X43.8Y-31.8
X43.8Y-40.3
X45.1Y-32.8
X46.6Y-31.8
X48.0Y-32.8
X50.3Y-31.9
X51.9Y-32.8
X55.2Y-35.9
X55.2Y-40.7
X55.3Y-38.4
X55.3Y-43.0
X57.0Y-41.9
X57.1Y-37.0
X57.1Y-39.3
T2
X21.49Y-46.5
X22.76Y-46.5
X24.03Y-46.5
X25.3Y-46.5
X26.57Y-46.5
X27.84Y-46.5
X29.11Y-46.5
X30.38Y-46.5
X31.65Y-46.5
X32.92Y-46.5
X34.19Y-46.5
X35.46Y-46.5
X36.73Y-46.5
X38.0Y-46.5
X39.27Y-46.5
X45.62Y-46.5
X46.89Y-46.5
X48.16Y-46.5
X49.43Y-46.5
X50.7Y-46.5
X51.97Y-46.5
X53.24Y-46.5
X62.2Y-31.8
X62.2Y-39.42
X68.4Y-43.2
X76.02Y-43.2
X77.89Y-55.8
X85.51Y-55.8
X88.68Y-55.8
X96.3Y-55.8
T3
X62.56Y-43.9
X63.83Y-43.9
X65.1Y-43.9
T4
X68.38Y-32.48
X68.38Y-35.02
X68.38Y-37.56
X68.38Y-40.1
X76.0Y-32.48
X76.0Y-35.02
X76.0Y-37.56
X76.0Y-40.1
T5
X82.65Y-51.175
X84.62Y-59.9
X85.19Y-51.175
X87.16Y-59.9
X87.73Y-51.175
X89.7Y-59.9
X90.27Y-51.175
X92.24Y-59.9
X92.81Y-51.175
X94.78Y-59.9
X95.35Y-51.175
T6
X17.515Y-45.945G85X17.515Y-47.055
G05
X18.655Y-32.42G85X18.655Y-33.53
G05
X43.045Y-45.945G85X43.045Y-47.055
G05
X55.615Y-45.945G85X55.615Y-47.055
G05
X56.075Y-32.42G85X56.075Y-33.53
G05
T0
M30
